<?xml version="1.0" encoding="utf-8" standalone="no"?>
<!DOCTYPE svg PUBLIC "-//W3C//DTD SVG 1.1//EN"
  "http://www.w3.org/Graphics/SVG/1.1/DTD/svg11.dtd">
<svg xmlns:xlink="http://www.w3.org/1999/xlink" width="504.433125pt" height="384.21375pt" viewBox="0 0 504.433125 384.21375" xmlns="http://www.w3.org/2000/svg" version="1.1">
 <metadata>
  <rdf:RDF xmlns:dc="http://purl.org/dc/elements/1.1/" xmlns:cc="http://creativecommons.org/ns#" xmlns:rdf="http://www.w3.org/1999/02/22-rdf-syntax-ns#">
   <cc:Work>
    <dc:type rdf:resource="http://purl.org/dc/dcmitype/StillImage"/>
    <dc:date>2024-04-27T13:39:55.555098</dc:date>
    <dc:format>image/svg+xml</dc:format>
    <dc:creator>
     <cc:Agent>
      <dc:title>Matplotlib v3.5.0, https://matplotlib.org/</dc:title>
     </cc:Agent>
    </dc:creator>
   </cc:Work>
  </rdf:RDF>
 </metadata>
 <defs>
  <style type="text/css">*{stroke-linejoin: round; stroke-linecap: butt}</style>
 </defs>
 <g id="figure_1">
  <g id="patch_1">
   <path d="M 0 384.21375 
L 504.433125 384.21375 
L 504.433125 0 
L 0 0 
z
" style="fill: #ffffff"/>
  </g>
  <g id="axes_1">
   <g id="patch_2">
    <path d="M 50.833125 339.84 
L 497.233125 339.84 
L 497.233125 7.2 
L 50.833125 7.2 
z
" style="fill: #ffffff"/>
   </g>
   <g id="PathCollection_1">
    <defs>
     <path id="m703c67298f" d="M 0 2.236068 
C 0.593012 2.236068 1.161816 2.000462 1.581139 1.581139 
C 2.000462 1.161816 2.236068 0.593012 2.236068 0 
C 2.236068 -0.593012 2.000462 -1.161816 1.581139 -1.581139 
C 1.161816 -2.000462 0.593012 -2.236068 0 -2.236068 
C -0.593012 -2.236068 -1.161816 -2.000462 -1.581139 -1.581139 
C -2.000462 -1.161816 -2.236068 -0.593012 -2.236068 0 
C -2.236068 0.593012 -2.000462 1.161816 -1.581139 1.581139 
C -1.161816 2.000462 -0.593012 2.236068 0 2.236068 
z
" style="stroke: #ff0000"/>
    </defs>
    <g clip-path="url(#p64feee54b5)">
     <use xlink:href="#m703c67298f" x="208.462846" y="270.933301" style="fill: #ff0000; stroke: #ff0000"/>
     <use xlink:href="#m703c67298f" x="225.100088" y="231.781361" style="fill: #ff0000; stroke: #ff0000"/>
     <use xlink:href="#m703c67298f" x="241.737263" y="190.084387" style="fill: #ff0000; stroke: #ff0000"/>
     <use xlink:href="#m703c67298f" x="257.72209" y="121.23369" style="fill: #ff0000; stroke: #ff0000"/>
     <use xlink:href="#m703c67298f" x="273.380675" y="63.946328" style="fill: #ff0000; stroke: #ff0000"/>
     <use xlink:href="#m703c67298f" x="288.713019" y="47.251363" style="fill: #ff0000; stroke: #ff0000"/>
     <use xlink:href="#m703c67298f" x="303.392947" y="86.994123" style="fill: #ff0000; stroke: #ff0000"/>
     <use xlink:href="#m703c67298f" x="318.072875" y="160.741894" style="fill: #ff0000; stroke: #ff0000"/>
     <use xlink:href="#m703c67298f" x="345.80159" y="163.979182" style="fill: #ff0000; stroke: #ff0000"/>
     <use xlink:href="#m703c67298f" x="359.176619" y="32.487727" style="fill: #ff0000; stroke: #ff0000"/>
     <use xlink:href="#m703c67298f" x="372.225474" y="29.028426" style="fill: #ff0000; stroke: #ff0000"/>
     <use xlink:href="#m703c67298f" x="384.621845" y="22.32" style="fill: #ff0000; stroke: #ff0000"/>
     <use xlink:href="#m703c67298f" x="396.365801" y="75.037058" style="fill: #ff0000; stroke: #ff0000"/>
     <use xlink:href="#m703c67298f" x="408.109689" y="132.065596" style="fill: #ff0000; stroke: #ff0000"/>
     <use xlink:href="#m703c67298f" x="419.201229" y="199.023295" style="fill: #ff0000; stroke: #ff0000"/>
     <use xlink:href="#m703c67298f" x="429.640286" y="247.571576" style="fill: #ff0000; stroke: #ff0000"/>
    </g>
   </g>
   <g id="matplotlib.axis_1">
    <g id="xtick_1">
     <g id="line2d_1">
      <defs>
       <path id="m606d15591b" d="M 0 0 
L 0 3.5 
" style="stroke: #000000; stroke-width: 0.8"/>
      </defs>
      <g>
       <use xlink:href="#m606d15591b" x="71.094197" y="339.84" style="stroke: #000000; stroke-width: 0.8"/>
      </g>
     </g>
     <g id="text_1">
      <!-- 2500 -->
      <g transform="translate(55.824197 355.958125)scale(0.12 -0.12)">
       <defs>
        <path id="DejaVuSans-32" d="M 1228 531 
L 3431 531 
L 3431 0 
L 469 0 
L 469 531 
Q 828 903 1448 1529 
Q 2069 2156 2228 2338 
Q 2531 2678 2651 2914 
Q 2772 3150 2772 3378 
Q 2772 3750 2511 3984 
Q 2250 4219 1831 4219 
Q 1534 4219 1204 4116 
Q 875 4013 500 3803 
L 500 4441 
Q 881 4594 1212 4672 
Q 1544 4750 1819 4750 
Q 2544 4750 2975 4387 
Q 3406 4025 3406 3419 
Q 3406 3131 3298 2873 
Q 3191 2616 2906 2266 
Q 2828 2175 2409 1742 
Q 1991 1309 1228 531 
z
" transform="scale(0.015625)"/>
        <path id="DejaVuSans-35" d="M 691 4666 
L 3169 4666 
L 3169 4134 
L 1269 4134 
L 1269 2991 
Q 1406 3038 1543 3061 
Q 1681 3084 1819 3084 
Q 2600 3084 3056 2656 
Q 3513 2228 3513 1497 
Q 3513 744 3044 326 
Q 2575 -91 1722 -91 
Q 1428 -91 1123 -41 
Q 819 9 494 109 
L 494 744 
Q 775 591 1075 516 
Q 1375 441 1709 441 
Q 2250 441 2565 725 
Q 2881 1009 2881 1497 
Q 2881 1984 2565 2268 
Q 2250 2553 1709 2553 
Q 1456 2553 1204 2497 
Q 953 2441 691 2322 
L 691 4666 
z
" transform="scale(0.015625)"/>
        <path id="DejaVuSans-30" d="M 2034 4250 
Q 1547 4250 1301 3770 
Q 1056 3291 1056 2328 
Q 1056 1369 1301 889 
Q 1547 409 2034 409 
Q 2525 409 2770 889 
Q 3016 1369 3016 2328 
Q 3016 3291 2770 3770 
Q 2525 4250 2034 4250 
z
M 2034 4750 
Q 2819 4750 3233 4129 
Q 3647 3509 3647 2328 
Q 3647 1150 3233 529 
Q 2819 -91 2034 -91 
Q 1250 -91 836 529 
Q 422 1150 422 2328 
Q 422 3509 836 4129 
Q 1250 4750 2034 4750 
z
" transform="scale(0.015625)"/>
       </defs>
       <use xlink:href="#DejaVuSans-32"/>
       <use xlink:href="#DejaVuSans-35" x="63.623047"/>
       <use xlink:href="#DejaVuSans-30" x="127.246094"/>
       <use xlink:href="#DejaVuSans-30" x="190.869141"/>
      </g>
     </g>
    </g>
    <g id="xtick_2">
     <g id="line2d_2">
      <g>
       <use xlink:href="#m606d15591b" x="138.751117" y="339.84" style="stroke: #000000; stroke-width: 0.8"/>
      </g>
     </g>
     <g id="text_2">
      <!-- 2600 -->
      <g transform="translate(123.481117 355.958125)scale(0.12 -0.12)">
       <defs>
        <path id="DejaVuSans-36" d="M 2113 2584 
Q 1688 2584 1439 2293 
Q 1191 2003 1191 1497 
Q 1191 994 1439 701 
Q 1688 409 2113 409 
Q 2538 409 2786 701 
Q 3034 994 3034 1497 
Q 3034 2003 2786 2293 
Q 2538 2584 2113 2584 
z
M 3366 4563 
L 3366 3988 
Q 3128 4100 2886 4159 
Q 2644 4219 2406 4219 
Q 1781 4219 1451 3797 
Q 1122 3375 1075 2522 
Q 1259 2794 1537 2939 
Q 1816 3084 2150 3084 
Q 2853 3084 3261 2657 
Q 3669 2231 3669 1497 
Q 3669 778 3244 343 
Q 2819 -91 2113 -91 
Q 1303 -91 875 529 
Q 447 1150 447 2328 
Q 447 3434 972 4092 
Q 1497 4750 2381 4750 
Q 2619 4750 2861 4703 
Q 3103 4656 3366 4563 
z
" transform="scale(0.015625)"/>
       </defs>
       <use xlink:href="#DejaVuSans-32"/>
       <use xlink:href="#DejaVuSans-36" x="63.623047"/>
       <use xlink:href="#DejaVuSans-30" x="127.246094"/>
       <use xlink:href="#DejaVuSans-30" x="190.869141"/>
      </g>
     </g>
    </g>
    <g id="xtick_3">
     <g id="line2d_3">
      <g>
       <use xlink:href="#m606d15591b" x="206.408038" y="339.84" style="stroke: #000000; stroke-width: 0.8"/>
      </g>
     </g>
     <g id="text_3">
      <!-- 2700 -->
      <g transform="translate(191.138038 355.958125)scale(0.12 -0.12)">
       <defs>
        <path id="DejaVuSans-37" d="M 525 4666 
L 3525 4666 
L 3525 4397 
L 1831 0 
L 1172 0 
L 2766 4134 
L 525 4134 
L 525 4666 
z
" transform="scale(0.015625)"/>
       </defs>
       <use xlink:href="#DejaVuSans-32"/>
       <use xlink:href="#DejaVuSans-37" x="63.623047"/>
       <use xlink:href="#DejaVuSans-30" x="127.246094"/>
       <use xlink:href="#DejaVuSans-30" x="190.869141"/>
      </g>
     </g>
    </g>
    <g id="xtick_4">
     <g id="line2d_4">
      <g>
       <use xlink:href="#m606d15591b" x="274.064958" y="339.84" style="stroke: #000000; stroke-width: 0.8"/>
      </g>
     </g>
     <g id="text_4">
      <!-- 2800 -->
      <g transform="translate(258.794958 355.958125)scale(0.12 -0.12)">
       <defs>
        <path id="DejaVuSans-38" d="M 2034 2216 
Q 1584 2216 1326 1975 
Q 1069 1734 1069 1313 
Q 1069 891 1326 650 
Q 1584 409 2034 409 
Q 2484 409 2743 651 
Q 3003 894 3003 1313 
Q 3003 1734 2745 1975 
Q 2488 2216 2034 2216 
z
M 1403 2484 
Q 997 2584 770 2862 
Q 544 3141 544 3541 
Q 544 4100 942 4425 
Q 1341 4750 2034 4750 
Q 2731 4750 3128 4425 
Q 3525 4100 3525 3541 
Q 3525 3141 3298 2862 
Q 3072 2584 2669 2484 
Q 3125 2378 3379 2068 
Q 3634 1759 3634 1313 
Q 3634 634 3220 271 
Q 2806 -91 2034 -91 
Q 1263 -91 848 271 
Q 434 634 434 1313 
Q 434 1759 690 2068 
Q 947 2378 1403 2484 
z
M 1172 3481 
Q 1172 3119 1398 2916 
Q 1625 2713 2034 2713 
Q 2441 2713 2670 2916 
Q 2900 3119 2900 3481 
Q 2900 3844 2670 4047 
Q 2441 4250 2034 4250 
Q 1625 4250 1398 4047 
Q 1172 3844 1172 3481 
z
" transform="scale(0.015625)"/>
       </defs>
       <use xlink:href="#DejaVuSans-32"/>
       <use xlink:href="#DejaVuSans-38" x="63.623047"/>
       <use xlink:href="#DejaVuSans-30" x="127.246094"/>
       <use xlink:href="#DejaVuSans-30" x="190.869141"/>
      </g>
     </g>
    </g>
    <g id="xtick_5">
     <g id="line2d_5">
      <g>
       <use xlink:href="#m606d15591b" x="341.721878" y="339.84" style="stroke: #000000; stroke-width: 0.8"/>
      </g>
     </g>
     <g id="text_5">
      <!-- 2900 -->
      <g transform="translate(326.451878 355.958125)scale(0.12 -0.12)">
       <defs>
        <path id="DejaVuSans-39" d="M 703 97 
L 703 672 
Q 941 559 1184 500 
Q 1428 441 1663 441 
Q 2288 441 2617 861 
Q 2947 1281 2994 2138 
Q 2813 1869 2534 1725 
Q 2256 1581 1919 1581 
Q 1219 1581 811 2004 
Q 403 2428 403 3163 
Q 403 3881 828 4315 
Q 1253 4750 1959 4750 
Q 2769 4750 3195 4129 
Q 3622 3509 3622 2328 
Q 3622 1225 3098 567 
Q 2575 -91 1691 -91 
Q 1453 -91 1209 -44 
Q 966 3 703 97 
z
M 1959 2075 
Q 2384 2075 2632 2365 
Q 2881 2656 2881 3163 
Q 2881 3666 2632 3958 
Q 2384 4250 1959 4250 
Q 1534 4250 1286 3958 
Q 1038 3666 1038 3163 
Q 1038 2656 1286 2365 
Q 1534 2075 1959 2075 
z
" transform="scale(0.015625)"/>
       </defs>
       <use xlink:href="#DejaVuSans-32"/>
       <use xlink:href="#DejaVuSans-39" x="63.623047"/>
       <use xlink:href="#DejaVuSans-30" x="127.246094"/>
       <use xlink:href="#DejaVuSans-30" x="190.869141"/>
      </g>
     </g>
    </g>
    <g id="xtick_6">
     <g id="line2d_6">
      <g>
       <use xlink:href="#m606d15591b" x="409.378798" y="339.84" style="stroke: #000000; stroke-width: 0.8"/>
      </g>
     </g>
     <g id="text_6">
      <!-- 3000 -->
      <g transform="translate(394.108798 355.958125)scale(0.12 -0.12)">
       <defs>
        <path id="DejaVuSans-33" d="M 2597 2516 
Q 3050 2419 3304 2112 
Q 3559 1806 3559 1356 
Q 3559 666 3084 287 
Q 2609 -91 1734 -91 
Q 1441 -91 1130 -33 
Q 819 25 488 141 
L 488 750 
Q 750 597 1062 519 
Q 1375 441 1716 441 
Q 2309 441 2620 675 
Q 2931 909 2931 1356 
Q 2931 1769 2642 2001 
Q 2353 2234 1838 2234 
L 1294 2234 
L 1294 2753 
L 1863 2753 
Q 2328 2753 2575 2939 
Q 2822 3125 2822 3475 
Q 2822 3834 2567 4026 
Q 2313 4219 1838 4219 
Q 1578 4219 1281 4162 
Q 984 4106 628 3988 
L 628 4550 
Q 988 4650 1302 4700 
Q 1616 4750 1894 4750 
Q 2613 4750 3031 4423 
Q 3450 4097 3450 3541 
Q 3450 3153 3228 2886 
Q 3006 2619 2597 2516 
z
" transform="scale(0.015625)"/>
       </defs>
       <use xlink:href="#DejaVuSans-33"/>
       <use xlink:href="#DejaVuSans-30" x="63.623047"/>
       <use xlink:href="#DejaVuSans-30" x="127.246094"/>
       <use xlink:href="#DejaVuSans-30" x="190.869141"/>
      </g>
     </g>
    </g>
    <g id="xtick_7">
     <g id="line2d_7">
      <g>
       <use xlink:href="#m606d15591b" x="477.035718" y="339.84" style="stroke: #000000; stroke-width: 0.8"/>
      </g>
     </g>
     <g id="text_7">
      <!-- 3100 -->
      <g transform="translate(461.765718 355.958125)scale(0.12 -0.12)">
       <defs>
        <path id="DejaVuSans-31" d="M 794 531 
L 1825 531 
L 1825 4091 
L 703 3866 
L 703 4441 
L 1819 4666 
L 2450 4666 
L 2450 531 
L 3481 531 
L 3481 0 
L 794 0 
L 794 531 
z
" transform="scale(0.015625)"/>
       </defs>
       <use xlink:href="#DejaVuSans-33"/>
       <use xlink:href="#DejaVuSans-31" x="63.623047"/>
       <use xlink:href="#DejaVuSans-30" x="127.246094"/>
       <use xlink:href="#DejaVuSans-30" x="190.869141"/>
      </g>
     </g>
    </g>
    <g id="text_8">
     <!-- $\sigma$ (cm$^{-1}$) -->
     <g transform="translate(243.723125 374.102188)scale(0.14 -0.14)">
      <defs>
       <path id="DejaVuSans-Oblique-3c3" d="M 2219 3044 
Q 1744 3044 1422 2700 
Q 1081 2341 969 1747 
Q 844 1119 1044 756 
Q 1241 397 1706 397 
Q 2166 397 2503 759 
Q 2844 1122 2966 1747 
Q 3075 2319 2881 2700 
Q 2700 3044 2219 3044 
z
M 2309 3503 
L 4219 3500 
L 4106 2925 
L 3463 2925 
Q 3706 2438 3575 1747 
Q 3406 888 2884 400 
Q 2359 -91 1609 -91 
Q 856 -91 525 400 
Q 194 888 363 1747 
Q 528 2609 1050 3097 
Q 1484 3503 2309 3503 
z
" transform="scale(0.015625)"/>
       <path id="DejaVuSans-20" transform="scale(0.015625)"/>
       <path id="DejaVuSans-28" d="M 1984 4856 
Q 1566 4138 1362 3434 
Q 1159 2731 1159 2009 
Q 1159 1288 1364 580 
Q 1569 -128 1984 -844 
L 1484 -844 
Q 1016 -109 783 600 
Q 550 1309 550 2009 
Q 550 2706 781 3412 
Q 1013 4119 1484 4856 
L 1984 4856 
z
" transform="scale(0.015625)"/>
       <path id="DejaVuSans-63" d="M 3122 3366 
L 3122 2828 
Q 2878 2963 2633 3030 
Q 2388 3097 2138 3097 
Q 1578 3097 1268 2742 
Q 959 2388 959 1747 
Q 959 1106 1268 751 
Q 1578 397 2138 397 
Q 2388 397 2633 464 
Q 2878 531 3122 666 
L 3122 134 
Q 2881 22 2623 -34 
Q 2366 -91 2075 -91 
Q 1284 -91 818 406 
Q 353 903 353 1747 
Q 353 2603 823 3093 
Q 1294 3584 2113 3584 
Q 2378 3584 2631 3529 
Q 2884 3475 3122 3366 
z
" transform="scale(0.015625)"/>
       <path id="DejaVuSans-6d" d="M 3328 2828 
Q 3544 3216 3844 3400 
Q 4144 3584 4550 3584 
Q 5097 3584 5394 3201 
Q 5691 2819 5691 2113 
L 5691 0 
L 5113 0 
L 5113 2094 
Q 5113 2597 4934 2840 
Q 4756 3084 4391 3084 
Q 3944 3084 3684 2787 
Q 3425 2491 3425 1978 
L 3425 0 
L 2847 0 
L 2847 2094 
Q 2847 2600 2669 2842 
Q 2491 3084 2119 3084 
Q 1678 3084 1418 2786 
Q 1159 2488 1159 1978 
L 1159 0 
L 581 0 
L 581 3500 
L 1159 3500 
L 1159 2956 
Q 1356 3278 1631 3431 
Q 1906 3584 2284 3584 
Q 2666 3584 2933 3390 
Q 3200 3197 3328 2828 
z
" transform="scale(0.015625)"/>
       <path id="DejaVuSans-2212" d="M 678 2272 
L 4684 2272 
L 4684 1741 
L 678 1741 
L 678 2272 
z
" transform="scale(0.015625)"/>
       <path id="DejaVuSans-29" d="M 513 4856 
L 1013 4856 
Q 1481 4119 1714 3412 
Q 1947 2706 1947 2009 
Q 1947 1309 1714 600 
Q 1481 -109 1013 -844 
L 513 -844 
Q 928 -128 1133 580 
Q 1338 1288 1338 2009 
Q 1338 2731 1133 3434 
Q 928 4138 513 4856 
z
" transform="scale(0.015625)"/>
      </defs>
      <use xlink:href="#DejaVuSans-Oblique-3c3" transform="translate(0 0.684375)"/>
      <use xlink:href="#DejaVuSans-20" transform="translate(63.378906 0.684375)"/>
      <use xlink:href="#DejaVuSans-28" transform="translate(95.166016 0.684375)"/>
      <use xlink:href="#DejaVuSans-63" transform="translate(134.179688 0.684375)"/>
      <use xlink:href="#DejaVuSans-6d" transform="translate(189.160156 0.684375)"/>
      <use xlink:href="#DejaVuSans-2212" transform="translate(287.529297 38.965625)scale(0.7)"/>
      <use xlink:href="#DejaVuSans-31" transform="translate(346.181641 38.965625)scale(0.7)"/>
      <use xlink:href="#DejaVuSans-29" transform="translate(393.452148 0.684375)"/>
     </g>
    </g>
   </g>
   <g id="matplotlib.axis_2">
    <g id="ytick_1">
     <g id="line2d_8">
      <defs>
       <path id="mf8276ba732" d="M 0 0 
L -3.5 0 
" style="stroke: #000000; stroke-width: 0.8"/>
      </defs>
      <g>
       <use xlink:href="#mf8276ba732" x="50.833125" y="319.778952" style="stroke: #000000; stroke-width: 0.8"/>
      </g>
     </g>
     <g id="text_9">
      <!-- 0.0 -->
      <g transform="translate(24.749375 324.338014)scale(0.12 -0.12)">
       <defs>
        <path id="DejaVuSans-2e" d="M 684 794 
L 1344 794 
L 1344 0 
L 684 0 
L 684 794 
z
" transform="scale(0.015625)"/>
       </defs>
       <use xlink:href="#DejaVuSans-30"/>
       <use xlink:href="#DejaVuSans-2e" x="63.623047"/>
       <use xlink:href="#DejaVuSans-30" x="95.410156"/>
      </g>
     </g>
    </g>
    <g id="ytick_2">
     <g id="line2d_9">
      <g>
       <use xlink:href="#mf8276ba732" x="50.833125" y="260.287161" style="stroke: #000000; stroke-width: 0.8"/>
      </g>
     </g>
     <g id="text_10">
      <!-- 0.2 -->
      <g transform="translate(24.749375 264.846224)scale(0.12 -0.12)">
       <use xlink:href="#DejaVuSans-30"/>
       <use xlink:href="#DejaVuSans-2e" x="63.623047"/>
       <use xlink:href="#DejaVuSans-32" x="95.410156"/>
      </g>
     </g>
    </g>
    <g id="ytick_3">
     <g id="line2d_10">
      <g>
       <use xlink:href="#mf8276ba732" x="50.833125" y="200.795371" style="stroke: #000000; stroke-width: 0.8"/>
      </g>
     </g>
     <g id="text_11">
      <!-- 0.4 -->
      <g transform="translate(24.749375 205.354434)scale(0.12 -0.12)">
       <defs>
        <path id="DejaVuSans-34" d="M 2419 4116 
L 825 1625 
L 2419 1625 
L 2419 4116 
z
M 2253 4666 
L 3047 4666 
L 3047 1625 
L 3713 1625 
L 3713 1100 
L 3047 1100 
L 3047 0 
L 2419 0 
L 2419 1100 
L 313 1100 
L 313 1709 
L 2253 4666 
z
" transform="scale(0.015625)"/>
       </defs>
       <use xlink:href="#DejaVuSans-30"/>
       <use xlink:href="#DejaVuSans-2e" x="63.623047"/>
       <use xlink:href="#DejaVuSans-34" x="95.410156"/>
      </g>
     </g>
    </g>
    <g id="ytick_4">
     <g id="line2d_11">
      <g>
       <use xlink:href="#mf8276ba732" x="50.833125" y="141.303581" style="stroke: #000000; stroke-width: 0.8"/>
      </g>
     </g>
     <g id="text_12">
      <!-- 0.6 -->
      <g transform="translate(24.749375 145.862643)scale(0.12 -0.12)">
       <use xlink:href="#DejaVuSans-30"/>
       <use xlink:href="#DejaVuSans-2e" x="63.623047"/>
       <use xlink:href="#DejaVuSans-36" x="95.410156"/>
      </g>
     </g>
    </g>
    <g id="ytick_5">
     <g id="line2d_12">
      <g>
       <use xlink:href="#mf8276ba732" x="50.833125" y="81.81179" style="stroke: #000000; stroke-width: 0.8"/>
      </g>
     </g>
     <g id="text_13">
      <!-- 0.8 -->
      <g transform="translate(24.749375 86.370853)scale(0.12 -0.12)">
       <use xlink:href="#DejaVuSans-30"/>
       <use xlink:href="#DejaVuSans-2e" x="63.623047"/>
       <use xlink:href="#DejaVuSans-38" x="95.410156"/>
      </g>
     </g>
    </g>
    <g id="ytick_6">
     <g id="line2d_13">
      <g>
       <use xlink:href="#mf8276ba732" x="50.833125" y="22.32" style="stroke: #000000; stroke-width: 0.8"/>
      </g>
     </g>
     <g id="text_14">
      <!-- 1.0 -->
      <g transform="translate(24.749375 26.879062)scale(0.12 -0.12)">
       <use xlink:href="#DejaVuSans-31"/>
       <use xlink:href="#DejaVuSans-2e" x="63.623047"/>
       <use xlink:href="#DejaVuSans-30" x="95.410156"/>
      </g>
     </g>
    </g>
    <g id="text_15">
     <!--  Amplitude relative (u.a.) -->
     <g transform="translate(17.837812 261.104219)rotate(-90)scale(0.14 -0.14)">
      <defs>
       <path id="DejaVuSans-41" d="M 2188 4044 
L 1331 1722 
L 3047 1722 
L 2188 4044 
z
M 1831 4666 
L 2547 4666 
L 4325 0 
L 3669 0 
L 3244 1197 
L 1141 1197 
L 716 0 
L 50 0 
L 1831 4666 
z
" transform="scale(0.015625)"/>
       <path id="DejaVuSans-70" d="M 1159 525 
L 1159 -1331 
L 581 -1331 
L 581 3500 
L 1159 3500 
L 1159 2969 
Q 1341 3281 1617 3432 
Q 1894 3584 2278 3584 
Q 2916 3584 3314 3078 
Q 3713 2572 3713 1747 
Q 3713 922 3314 415 
Q 2916 -91 2278 -91 
Q 1894 -91 1617 61 
Q 1341 213 1159 525 
z
M 3116 1747 
Q 3116 2381 2855 2742 
Q 2594 3103 2138 3103 
Q 1681 3103 1420 2742 
Q 1159 2381 1159 1747 
Q 1159 1113 1420 752 
Q 1681 391 2138 391 
Q 2594 391 2855 752 
Q 3116 1113 3116 1747 
z
" transform="scale(0.015625)"/>
       <path id="DejaVuSans-6c" d="M 603 4863 
L 1178 4863 
L 1178 0 
L 603 0 
L 603 4863 
z
" transform="scale(0.015625)"/>
       <path id="DejaVuSans-69" d="M 603 3500 
L 1178 3500 
L 1178 0 
L 603 0 
L 603 3500 
z
M 603 4863 
L 1178 4863 
L 1178 4134 
L 603 4134 
L 603 4863 
z
" transform="scale(0.015625)"/>
       <path id="DejaVuSans-74" d="M 1172 4494 
L 1172 3500 
L 2356 3500 
L 2356 3053 
L 1172 3053 
L 1172 1153 
Q 1172 725 1289 603 
Q 1406 481 1766 481 
L 2356 481 
L 2356 0 
L 1766 0 
Q 1100 0 847 248 
Q 594 497 594 1153 
L 594 3053 
L 172 3053 
L 172 3500 
L 594 3500 
L 594 4494 
L 1172 4494 
z
" transform="scale(0.015625)"/>
       <path id="DejaVuSans-75" d="M 544 1381 
L 544 3500 
L 1119 3500 
L 1119 1403 
Q 1119 906 1312 657 
Q 1506 409 1894 409 
Q 2359 409 2629 706 
Q 2900 1003 2900 1516 
L 2900 3500 
L 3475 3500 
L 3475 0 
L 2900 0 
L 2900 538 
Q 2691 219 2414 64 
Q 2138 -91 1772 -91 
Q 1169 -91 856 284 
Q 544 659 544 1381 
z
M 1991 3584 
L 1991 3584 
z
" transform="scale(0.015625)"/>
       <path id="DejaVuSans-64" d="M 2906 2969 
L 2906 4863 
L 3481 4863 
L 3481 0 
L 2906 0 
L 2906 525 
Q 2725 213 2448 61 
Q 2172 -91 1784 -91 
Q 1150 -91 751 415 
Q 353 922 353 1747 
Q 353 2572 751 3078 
Q 1150 3584 1784 3584 
Q 2172 3584 2448 3432 
Q 2725 3281 2906 2969 
z
M 947 1747 
Q 947 1113 1208 752 
Q 1469 391 1925 391 
Q 2381 391 2643 752 
Q 2906 1113 2906 1747 
Q 2906 2381 2643 2742 
Q 2381 3103 1925 3103 
Q 1469 3103 1208 2742 
Q 947 2381 947 1747 
z
" transform="scale(0.015625)"/>
       <path id="DejaVuSans-65" d="M 3597 1894 
L 3597 1613 
L 953 1613 
Q 991 1019 1311 708 
Q 1631 397 2203 397 
Q 2534 397 2845 478 
Q 3156 559 3463 722 
L 3463 178 
Q 3153 47 2828 -22 
Q 2503 -91 2169 -91 
Q 1331 -91 842 396 
Q 353 884 353 1716 
Q 353 2575 817 3079 
Q 1281 3584 2069 3584 
Q 2775 3584 3186 3129 
Q 3597 2675 3597 1894 
z
M 3022 2063 
Q 3016 2534 2758 2815 
Q 2500 3097 2075 3097 
Q 1594 3097 1305 2825 
Q 1016 2553 972 2059 
L 3022 2063 
z
" transform="scale(0.015625)"/>
       <path id="DejaVuSans-72" d="M 2631 2963 
Q 2534 3019 2420 3045 
Q 2306 3072 2169 3072 
Q 1681 3072 1420 2755 
Q 1159 2438 1159 1844 
L 1159 0 
L 581 0 
L 581 3500 
L 1159 3500 
L 1159 2956 
Q 1341 3275 1631 3429 
Q 1922 3584 2338 3584 
Q 2397 3584 2469 3576 
Q 2541 3569 2628 3553 
L 2631 2963 
z
" transform="scale(0.015625)"/>
       <path id="DejaVuSans-61" d="M 2194 1759 
Q 1497 1759 1228 1600 
Q 959 1441 959 1056 
Q 959 750 1161 570 
Q 1363 391 1709 391 
Q 2188 391 2477 730 
Q 2766 1069 2766 1631 
L 2766 1759 
L 2194 1759 
z
M 3341 1997 
L 3341 0 
L 2766 0 
L 2766 531 
Q 2569 213 2275 61 
Q 1981 -91 1556 -91 
Q 1019 -91 701 211 
Q 384 513 384 1019 
Q 384 1609 779 1909 
Q 1175 2209 1959 2209 
L 2766 2209 
L 2766 2266 
Q 2766 2663 2505 2880 
Q 2244 3097 1772 3097 
Q 1472 3097 1187 3025 
Q 903 2953 641 2809 
L 641 3341 
Q 956 3463 1253 3523 
Q 1550 3584 1831 3584 
Q 2591 3584 2966 3190 
Q 3341 2797 3341 1997 
z
" transform="scale(0.015625)"/>
       <path id="DejaVuSans-76" d="M 191 3500 
L 800 3500 
L 1894 563 
L 2988 3500 
L 3597 3500 
L 2284 0 
L 1503 0 
L 191 3500 
z
" transform="scale(0.015625)"/>
      </defs>
      <use xlink:href="#DejaVuSans-20"/>
      <use xlink:href="#DejaVuSans-41" x="31.787109"/>
      <use xlink:href="#DejaVuSans-6d" x="100.195312"/>
      <use xlink:href="#DejaVuSans-70" x="197.607422"/>
      <use xlink:href="#DejaVuSans-6c" x="261.083984"/>
      <use xlink:href="#DejaVuSans-69" x="288.867188"/>
      <use xlink:href="#DejaVuSans-74" x="316.650391"/>
      <use xlink:href="#DejaVuSans-75" x="355.859375"/>
      <use xlink:href="#DejaVuSans-64" x="419.238281"/>
      <use xlink:href="#DejaVuSans-65" x="482.714844"/>
      <use xlink:href="#DejaVuSans-20" x="544.238281"/>
      <use xlink:href="#DejaVuSans-72" x="576.025391"/>
      <use xlink:href="#DejaVuSans-65" x="614.888672"/>
      <use xlink:href="#DejaVuSans-6c" x="676.412109"/>
      <use xlink:href="#DejaVuSans-61" x="704.195312"/>
      <use xlink:href="#DejaVuSans-74" x="765.474609"/>
      <use xlink:href="#DejaVuSans-69" x="804.683594"/>
      <use xlink:href="#DejaVuSans-76" x="832.466797"/>
      <use xlink:href="#DejaVuSans-65" x="891.646484"/>
      <use xlink:href="#DejaVuSans-20" x="953.169922"/>
      <use xlink:href="#DejaVuSans-28" x="984.957031"/>
      <use xlink:href="#DejaVuSans-75" x="1023.970703"/>
      <use xlink:href="#DejaVuSans-2e" x="1087.349609"/>
      <use xlink:href="#DejaVuSans-61" x="1119.136719"/>
      <use xlink:href="#DejaVuSans-2e" x="1180.416016"/>
      <use xlink:href="#DejaVuSans-29" x="1212.203125"/>
     </g>
    </g>
   </g>
   <g id="line2d_14">
    <path d="M 71.124034 319.536578 
L 71.450276 319.369161 
L 72.102691 319.556792 
L 72.755107 319.11461 
L 73.40759 319.37383 
L 73.733764 319.21001 
L 74.060006 319.418365 
L 74.386248 319.916591 
L 74.712422 320.060558 
L 75.364905 319.045953 
L 76.017321 319.115667 
L 76.343563 319.005596 
L 77.32222 319.555682 
L 77.648462 319.753347 
L 77.974636 319.779236 
L 78.627119 318.771745 
L 78.953293 318.90496 
L 79.605776 319.532787 
L 80.258192 319.197956 
L 80.584434 319.370488 
L 80.910608 319.707626 
L 81.563091 319.283287 
L 81.889265 319.276881 
L 82.541748 318.491121 
L 82.86799 318.906997 
L 83.194164 319.745151 
L 83.520406 319.967818 
L 83.846647 319.582159 
L 84.172821 318.924559 
L 84.499063 318.746505 
L 84.825305 319.037267 
L 85.47772 319.951692 
L 85.803962 319.573378 
L 86.130136 319.459916 
L 86.456378 319.618463 
L 87.108793 319.495532 
L 87.435035 319.729363 
L 87.761277 319.616126 
L 88.087451 319.277494 
L 88.739934 319.065596 
L 89.39235 318.456714 
L 89.718591 318.590737 
L 90.044833 319.68745 
L 90.371007 320.097162 
L 90.697249 319.472765 
L 92.002148 318.307205 
L 92.654563 318.927325 
L 92.980805 319.015657 
L 93.306979 319.379635 
L 93.633221 319.378711 
L 93.959462 319.091616 
L 94.285704 319.398672 
L 94.611878 320.07086 
L 94.93812 320.231451 
L 95.264361 319.830347 
L 95.590535 319.203923 
L 95.916777 319.17881 
L 96.243019 319.49735 
L 96.895434 318.059215 
L 97.221676 318.456797 
L 97.54785 318.303384 
L 97.874092 317.824421 
L 98.526508 319.282272 
L 98.852749 319.089869 
L 99.178991 319.072909 
L 99.505165 319.990037 
L 99.831407 320.273867 
L 100.157648 319.491396 
L 100.48389 319.245789 
L 100.810064 319.315171 
L 101.136306 318.719019 
L 101.462547 318.423524 
L 102.114963 319.589739 
L 102.767379 319.958107 
L 103.09362 319.741543 
L 103.419862 319.06337 
L 104.072278 318.90585 
L 104.398519 318.732254 
L 104.724693 319.016694 
L 105.377177 319.889683 
L 106.029592 319.245249 
L 107.334491 319.236861 
L 108.313149 319.276326 
L 108.63939 319.427674 
L 108.965564 319.37495 
L 109.291806 319.157512 
L 109.618048 319.283505 
L 109.944222 319.241198 
L 110.270463 319.363389 
L 110.596705 319.263595 
L 110.922879 318.873821 
L 111.249121 319.113743 
L 111.575362 319.736441 
L 111.901604 319.603945 
L 112.227778 319.041898 
L 112.55402 319.25626 
L 112.880261 319.23073 
L 113.206435 318.528729 
L 113.532677 318.377687 
L 113.858919 318.93506 
L 114.837576 319.786925 
L 115.16375 318.930277 
L 115.489992 318.445673 
L 115.816233 319.274267 
L 116.142407 319.644696 
L 116.468649 319.456767 
L 117.121132 319.463497 
L 117.447306 319.014033 
L 117.773548 318.374815 
L 118.425964 318.924749 
L 118.752205 318.79702 
L 119.078447 319.127275 
L 119.404621 318.98511 
L 119.730863 318.624606 
L 120.057104 318.77937 
L 120.70952 319.554029 
L 121.035762 319.519078 
L 121.361936 319.069023 
L 121.688178 319.259537 
L 122.014419 319.611113 
L 122.340593 319.196926 
L 122.666835 319.00108 
L 123.319318 319.912177 
L 123.645492 319.848972 
L 124.297976 319.372186 
L 124.950391 318.430688 
L 125.276633 318.9514 
L 125.602807 319.200303 
L 125.929049 318.747987 
L 126.25529 319.101019 
L 126.581464 320.109118 
L 126.907706 320.365939 
L 127.560122 319.731537 
L 127.886363 319.785037 
L 128.212605 319.992625 
L 128.865021 319.438632 
L 129.843678 319.451791 
L 130.16992 319.238233 
L 130.496161 318.520265 
L 130.822335 318.206823 
L 131.474819 318.843594 
L 131.800993 318.820443 
L 132.453476 319.959033 
L 132.77965 319.224156 
L 133.105892 318.832941 
L 133.432133 319.386575 
L 133.758307 319.203151 
L 134.084549 318.522425 
L 134.410791 318.271228 
L 134.737032 318.825303 
L 135.063206 319.644291 
L 135.389448 319.586645 
L 135.71569 318.73467 
L 136.041864 318.365894 
L 136.694347 319.765015 
L 137.020521 319.475268 
L 137.673004 317.704436 
L 137.999178 317.339853 
L 138.32542 318.224281 
L 138.651662 319.64918 
L 138.977836 320.147365 
L 139.630319 319.039951 
L 139.956561 319.216453 
L 140.282735 319.657896 
L 141.261392 318.950419 
L 141.587634 319.442495 
L 141.913875 320.217412 
L 142.24005 320.051323 
L 142.892533 318.943012 
L 143.218707 319.027808 
L 143.544949 319.66023 
L 144.197364 318.964363 
L 144.523606 319.607821 
L 144.849848 319.793317 
L 145.176089 319.499372 
L 145.828505 319.716865 
L 146.154747 319.924117 
L 146.480921 319.702004 
L 147.133404 318.481376 
L 147.78582 318.5563 
L 148.112061 318.219839 
L 148.438235 318.506054 
L 149.416893 319.93373 
L 150.069376 319.497057 
L 150.39555 319.754651 
L 150.721792 319.797521 
L 151.700449 319.421424 
L 152.026691 319.421244 
L 152.352932 319.778878 
L 152.679106 319.821558 
L 153.005348 319.02324 
L 153.33159 318.944151 
L 153.657764 319.609336 
L 153.984005 319.623169 
L 154.636421 319.478868 
L 155.615078 317.50839 
L 155.94132 315.650216 
L 156.267562 315.953385 
L 156.593803 318.357064 
L 156.919977 319.45809 
L 157.246219 319.342352 
L 157.898635 320.001747 
L 158.551118 319.970289 
L 159.529775 318.834877 
L 160.182191 319.253809 
L 161.48709 319.586413 
L 162.139506 318.433679 
L 162.465747 319.107916 
L 162.791989 320.057642 
L 163.118163 319.915866 
L 163.444405 319.262304 
L 164.096821 319.672678 
L 165.40172 318.581617 
L 165.727961 318.772066 
L 166.054135 319.109146 
L 166.380377 319.073973 
L 166.706619 319.421611 
L 167.032793 319.590234 
L 167.359034 319.153998 
L 167.685276 319.243714 
L 168.663933 319.959641 
L 168.990175 319.845027 
L 169.316349 319.612234 
L 169.642591 319.697837 
L 170.295006 319.045696 
L 170.94749 319.094544 
L 171.273664 319.047244 
L 171.599905 319.490095 
L 171.926147 319.635824 
L 172.252321 318.425189 
L 172.578563 316.566737 
L 172.904804 316.955487 
L 173.230978 318.142144 
L 173.883462 309.736676 
L 174.535877 318.228636 
L 174.862119 319.515103 
L 175.514535 320.116223 
L 175.840776 320.293339 
L 176.493192 320.275512 
L 177.145675 319.524237 
L 177.471849 319.515431 
L 178.124333 319.283124 
L 178.450507 319.395983 
L 178.776748 319.286953 
L 179.10299 319.045487 
L 179.429232 319.19046 
L 179.755406 319.811327 
L 180.081647 319.884624 
L 180.734063 319.390456 
L 181.060305 319.320384 
L 181.386546 319.583017 
L 181.71272 319.663039 
L 182.365204 319.103443 
L 183.017619 319.291219 
L 183.343861 319.259634 
L 184.322518 319.496689 
L 184.974934 319.24945 
L 185.627417 319.030053 
L 186.279833 319.160512 
L 186.606075 319.323823 
L 187.258491 319.39927 
L 187.584732 319.694299 
L 189.215805 319.222681 
L 189.542047 318.170712 
L 189.868221 314.112533 
L 190.194463 312.448123 
L 190.520704 315.596562 
L 190.846946 310.98295 
L 191.17312 298.371116 
L 191.499362 300.248471 
L 191.825603 314.217439 
L 192.151777 320.070183 
L 193.456676 318.935509 
L 193.782918 318.983807 
L 194.109092 318.799612 
L 194.435334 318.948372 
L 195.413991 319.957848 
L 195.740233 319.986002 
L 196.066407 319.595845 
L 196.392648 319.463758 
L 196.71889 319.747233 
L 197.371306 318.995236 
L 198.023789 320.664615 
L 199.32862 319.97834 
L 199.654862 320.106417 
L 199.981104 319.863024 
L 200.633519 319.138528 
L 200.959761 319.312276 
L 201.285935 319.722868 
L 201.612177 319.865722 
L 201.938418 319.823139 
L 202.26466 319.920752 
L 202.590834 320.537875 
L 202.917076 320.765551 
L 203.569491 320.002353 
L 204.221975 319.480906 
L 204.548149 319.435511 
L 204.87439 319.014715 
L 205.200632 318.78387 
L 205.853048 319.467975 
L 206.179289 319.54545 
L 206.505463 318.034154 
L 207.157947 303.141691 
L 207.484121 308.934125 
L 207.810362 309.616354 
L 208.136604 284.568945 
L 208.462846 270.933301 
L 209.115262 316.556074 
L 209.441503 319.198881 
L 209.767677 319.708926 
L 210.093919 319.582087 
L 210.420161 319.126174 
L 210.746335 319.282396 
L 211.072576 319.242065 
L 211.398818 319.44182 
L 211.724992 320.07496 
L 212.051234 320.350691 
L 212.377475 320.140242 
L 212.703649 319.794353 
L 213.029891 319.839106 
L 213.682374 320.764311 
L 214.008548 320.506865 
L 214.33479 319.484324 
L 214.661032 319.428692 
L 214.987206 320.23262 
L 215.313447 320.321562 
L 215.639689 320.124938 
L 215.965863 320.430009 
L 216.292105 320.535369 
L 216.618346 320.172601 
L 217.270762 319.126804 
L 217.597004 319.084237 
L 218.249419 319.809241 
L 218.575661 319.843126 
L 218.901835 320.024072 
L 219.228077 319.987026 
L 219.554318 319.563746 
L 220.206734 319.225858 
L 220.859217 319.120914 
L 221.185391 319.624897 
L 221.511633 320.504551 
L 221.837875 320.772154 
L 222.49029 319.996977 
L 222.816532 319.369135 
L 223.142706 318.025138 
L 223.468948 307.544642 
L 223.795189 290.647229 
L 224.121363 293.627751 
L 224.447605 305.532305 
L 224.773847 275.84293 
L 225.100088 231.781361 
L 225.426262 253.617287 
L 225.752504 304.348901 
L 226.078746 318.707739 
L 226.40492 317.986077 
L 227.383577 320.69945 
L 227.709819 320.402162 
L 228.03606 319.682493 
L 228.362234 319.442311 
L 228.688476 319.628018 
L 229.014718 319.459581 
L 229.340892 319.119585 
L 229.667133 319.173519 
L 229.993375 319.682299 
L 230.645791 320.085812 
L 230.972033 320.503173 
L 231.624448 319.887183 
L 231.95069 320.353355 
L 232.276932 320.26574 
L 232.603106 319.735321 
L 233.255589 320.620571 
L 233.908005 320.60105 
L 234.234246 320.104429 
L 234.56042 320.045454 
L 235.212904 321.201028 
L 235.539078 320.833827 
L 235.865319 320.106153 
L 236.517803 320.796925 
L 237.170218 320.660378 
L 237.822634 320.171588 
L 238.475117 319.605022 
L 238.801291 320.033853 
L 239.127533 319.771824 
L 239.453775 317.673659 
L 239.779949 304.109417 
L 240.10619 276.047944 
L 240.432432 271.997513 
L 240.758606 296.191396 
L 241.084848 271.355034 
L 241.411089 192.084805 
L 241.737263 190.084387 
L 242.063505 273.308875 
L 242.389747 317.06859 
L 242.715988 318.901684 
L 243.042162 319.954109 
L 243.694646 320.132749 
L 244.02082 320.014367 
L 244.999477 320.726941 
L 245.325719 320.348701 
L 245.65196 319.688441 
L 245.978134 319.970127 
L 246.304376 320.796657 
L 246.630618 321.13753 
L 246.956792 321.257649 
L 247.609275 320.531718 
L 248.261691 320.809251 
L 248.587932 320.989318 
L 249.892831 319.220675 
L 250.219005 319.034602 
L 250.871489 320.390464 
L 251.523904 320.483433 
L 251.850146 320.838987 
L 252.17632 320.959136 
L 252.502562 320.582554 
L 252.828804 320.439146 
L 253.154978 320.553833 
L 253.481219 320.944371 
L 253.807461 321.123934 
L 255.11236 319.646465 
L 255.438534 317.501481 
L 255.764776 300.518901 
L 256.091017 260.636106 
L 256.417191 248.166828 
L 256.743433 282.510033 
L 257.069675 265.65362 
L 257.395849 156.702211 
L 257.72209 121.23369 
L 258.374506 309.951866 
L 258.700748 318.655053 
L 259.026989 319.770565 
L 259.353231 320.069202 
L 259.679405 319.966324 
L 260.005647 320.621612 
L 260.331888 320.53949 
L 260.658062 320.28559 
L 260.984304 320.819172 
L 261.310546 320.938061 
L 261.63672 320.649607 
L 262.289203 321.030658 
L 262.615377 320.773628 
L 262.941619 321.104676 
L 263.26786 321.265262 
L 263.594034 320.464618 
L 263.920276 320.091269 
L 264.572759 320.619491 
L 264.898933 320.612199 
L 265.225175 320.338119 
L 265.551417 320.223104 
L 266.203832 320.19471 
L 266.856248 321.42155 
L 267.18249 321.375251 
L 267.508731 320.90457 
L 268.161147 320.95489 
L 268.487389 321.035501 
L 268.813563 321.360447 
L 269.139804 321.453623 
L 269.466046 321.379251 
L 269.79222 320.900934 
L 270.118462 320.744869 
L 270.444703 320.99668 
L 270.770945 320.47876 
L 271.097119 317.630583 
L 271.423361 295.28212 
L 271.749602 243.967893 
L 272.075776 227.531921 
L 272.402018 270.282827 
L 272.72826 255.242319 
L 273.054434 123.107083 
L 273.380675 63.946328 
L 274.033091 301.197781 
L 274.359333 317.523593 
L 274.685575 318.038144 
L 275.011749 319.589391 
L 275.33799 320.030529 
L 275.664232 320.073986 
L 275.990474 320.296202 
L 276.316648 320.089126 
L 276.642889 320.204534 
L 276.969131 321.100756 
L 277.295305 321.106901 
L 277.621547 320.674117 
L 277.947788 320.529074 
L 278.600204 320.856159 
L 279.25262 320.733489 
L 279.578861 320.827782 
L 279.905103 320.752864 
L 280.557519 321.083565 
L 280.88376 320.959769 
L 281.536176 321.19349 
L 281.862418 321.035786 
L 282.514833 321.044458 
L 283.167317 320.489045 
L 283.493491 320.886696 
L 283.819732 321.566296 
L 284.472148 320.886643 
L 284.79839 321.062304 
L 285.124631 320.821571 
L 285.450805 320.808391 
L 285.777047 320.664711 
L 286.103289 319.091311 
L 286.429463 314.488361 
L 286.755704 286.128864 
L 287.081946 231.382381 
L 287.408188 224.578066 
L 287.734362 272.307399 
L 288.060603 242.057841 
L 288.386845 95.331662 
L 288.713019 47.251363 
L 289.365502 301.569351 
L 289.691676 316.856875 
L 290.017918 318.852042 
L 290.34416 319.851067 
L 290.670334 320.316011 
L 290.996575 321.195612 
L 292.627648 322.161853 
L 292.95389 322.198623 
L 293.606373 321.752102 
L 293.932547 321.687865 
L 294.258789 321.876555 
L 294.585031 321.638359 
L 294.911205 322.03259 
L 295.237446 323.213166 
L 295.563688 323.236959 
L 296.216104 322.436997 
L 296.542346 322.32511 
L 297.194761 323.07377 
L 297.847177 322.197129 
L 298.173419 322.461772 
L 298.825902 322.154732 
L 299.478318 322.307432 
L 299.804559 322.258236 
L 300.130733 321.891923 
L 301.109391 318.919309 
L 301.435632 310.550043 
L 302.088048 231.280538 
L 302.41429 247.118553 
L 302.740531 282.033051 
L 303.066705 218.458461 
L 303.392947 86.994123 
L 303.719189 92.849565 
L 304.045363 231.55489 
L 304.371604 305.532885 
L 304.697846 311.190598 
L 305.024088 312.776602 
L 305.350262 311.947643 
L 306.981402 304.701487 
L 307.633818 303.422014 
L 308.286234 304.403951 
L 308.612475 304.334731 
L 309.591133 306.044447 
L 310.243616 307.780206 
L 310.56979 308.118408 
L 310.896032 308.624819 
L 311.548447 310.543279 
L 312.200931 310.805682 
L 312.527105 311.388261 
L 313.179588 313.342085 
L 314.158245 314.209347 
L 314.810661 315.594786 
L 315.136903 315.958172 
L 315.463077 315.961402 
L 315.789318 314.180349 
L 316.11556 301.425504 
L 316.441802 273.885875 
L 316.767976 266.008397 
L 317.094217 290.067551 
L 317.420459 287.357982 
L 318.072875 160.741894 
L 318.399117 217.787188 
L 318.725291 296.897402 
L 319.051532 317.205715 
L 320.356431 319.574225 
L 321.008847 318.919675 
L 321.335089 318.996906 
L 321.66133 319.658205 
L 321.987504 320.732315 
L 322.313746 320.867066 
L 322.639988 319.79099 
L 322.966162 319.444119 
L 323.618645 321.040108 
L 324.271061 319.951075 
L 324.923476 320.750361 
L 325.249718 320.575415 
L 325.57596 320.227904 
L 326.228375 321.23904 
L 326.554617 321.192099 
L 326.880791 321.68624 
L 327.207033 321.823585 
L 328.18569 320.477002 
L 328.838173 320.138027 
L 329.164347 320.534023 
L 329.490589 321.594748 
L 329.816831 321.613437 
L 330.143005 320.948099 
L 330.469246 320.650947 
L 330.795488 320.754296 
L 331.121662 321.072159 
L 331.447904 320.810186 
L 331.774145 320.243981 
L 332.100319 320.042771 
L 332.426561 320.235218 
L 333.079044 320.212341 
L 333.73146 321.270539 
L 334.057702 321.198597 
L 334.710117 320.174549 
L 335.036359 320.091905 
L 335.362533 320.78568 
L 335.688775 321.074884 
L 336.015016 320.51569 
L 336.34119 321.101218 
L 336.667432 322.029754 
L 337.972331 320.396041 
L 338.298505 320.878966 
L 338.624747 321.048751 
L 338.950988 320.711879 
L 339.27723 320.984552 
L 339.603404 321.923715 
L 339.929646 322.219299 
L 340.255888 321.756427 
L 340.582062 321.715606 
L 341.234545 322.372299 
L 341.886961 321.823666 
L 342.539376 321.203173 
L 343.19186 320.699043 
L 343.518034 319.741479 
L 343.844275 310.253837 
L 344.170517 282.179787 
L 344.496759 264.246967 
L 345.149174 298.770828 
L 345.475416 245.105374 
L 345.80159 163.979182 
L 346.127832 182.747522 
L 346.454073 275.601695 
L 346.780247 317.540205 
L 347.432731 320.983616 
L 347.758905 321.318363 
L 348.085146 321.275542 
L 348.411388 320.711652 
L 348.737562 319.769449 
L 349.390045 318.884878 
L 350.042461 316.750651 
L 350.368703 315.710888 
L 351.673602 309.823599 
L 351.999776 309.248997 
L 353.304675 305.904894 
L 353.630916 305.499915 
L 354.283332 304.388253 
L 354.609574 304.464633 
L 354.935748 304.942998 
L 355.261989 305.175346 
L 355.588231 305.562191 
L 355.914473 305.731095 
L 356.566888 305.657387 
L 356.89313 301.145111 
L 357.219304 273.697485 
L 357.545546 221.796999 
L 357.871787 213.259923 
L 358.197961 261.387476 
L 358.524203 261.414966 
L 359.176619 32.487727 
L 359.50286 115.207613 
L 359.829102 261.105462 
L 360.155276 305.251511 
L 360.481518 307.224986 
L 360.807759 310.172576 
L 361.460175 312.200196 
L 361.786417 312.877318 
L 362.438833 316.058715 
L 362.765074 316.47066 
L 363.091316 316.110631 
L 363.41749 316.686137 
L 364.069973 318.885369 
L 365.048631 320.275655 
L 365.701046 321.764141 
L 366.679704 322.960644 
L 367.332187 322.752005 
L 367.658361 322.602405 
L 368.310844 324.107041 
L 368.96326 323.814431 
L 369.289502 323.482832 
L 369.615676 321.034448 
L 369.941917 303.203627 
L 370.594333 203.888135 
L 371.246816 288.939651 
L 371.57299 207.01747 
L 371.899232 38.321384 
L 372.225474 29.028426 
L 372.551648 204.431909 
L 372.877889 310.289542 
L 373.204131 320.632661 
L 373.530373 323.783261 
L 373.856547 324.637372 
L 374.182788 324.72 
L 374.50903 324.274963 
L 374.835204 324.229497 
L 375.161446 324.451526 
L 375.813861 323.705788 
L 376.792519 322.248217 
L 377.445002 321.545579 
L 378.423659 322.256655 
L 378.749901 322.125575 
L 379.728558 319.966023 
L 381.359631 318.554253 
L 381.685873 318.549775 
L 382.012047 316.519138 
L 382.338289 300.148337 
L 382.990704 200.816825 
L 383.643188 285.177082 
L 383.969429 219.148463 
L 384.295604 55.381011 
L 384.621845 22.32 
L 385.274261 301.579029 
L 385.600503 315.365684 
L 385.926744 317.241911 
L 386.905402 319.948123 
L 387.884059 320.029712 
L 388.862716 322.651412 
L 389.18889 323.745781 
L 389.515132 322.9148 
L 389.841374 321.582989 
L 390.493789 322.39186 
L 390.820031 322.199696 
L 391.472447 322.873624 
L 391.798688 323.059901 
L 392.451104 322.300765 
L 392.777346 322.654163 
L 393.103587 322.614496 
L 393.756003 320.703814 
L 394.082245 318.531673 
L 394.408419 296.959942 
L 394.73466 245.571266 
L 395.060902 228.173893 
L 395.387144 275.274445 
L 395.713318 296.726354 
L 396.039559 208.6097 
L 396.365801 75.037058 
L 396.691975 100.806864 
L 397.018217 249.84779 
L 397.344458 316.731798 
L 397.996874 321.283954 
L 398.323116 320.971989 
L 398.64929 321.490113 
L 398.975531 321.757882 
L 399.301773 321.750486 
L 400.28043 320.981031 
L 400.932846 321.868664 
L 401.259088 321.344516 
L 401.585329 321.175926 
L 401.911503 321.985579 
L 402.237745 322.352803 
L 403.216402 321.031969 
L 403.542644 320.791783 
L 403.868818 320.752799 
L 404.19506 321.226177 
L 404.847475 321.401124 
L 405.173717 322.075609 
L 405.499959 321.236138 
L 405.826133 310.78781 
L 406.478616 250.281256 
L 407.131032 306.467931 
L 407.457274 270.365314 
L 407.783515 165.853688 
L 408.109689 132.065596 
L 408.762173 311.020804 
L 409.088347 320.003574 
L 409.414588 320.091721 
L 409.74083 319.959689 
L 410.067004 319.979765 
L 410.393246 320.817666 
L 410.719487 320.895381 
L 411.045661 320.280996 
L 411.371903 320.044565 
L 411.698145 320.672837 
L 412.024319 321.045802 
L 412.35056 320.422757 
L 412.676802 320.546472 
L 413.003044 321.356133 
L 413.981701 321.734959 
L 414.960358 320.892778 
L 415.286532 320.100813 
L 415.612774 319.890332 
L 416.26519 320.286272 
L 416.591431 319.453767 
L 416.917673 311.647763 
L 417.243847 288.701896 
L 417.570089 274.051681 
L 418.222572 312.518933 
L 418.548746 284.847565 
L 418.874988 216.026958 
L 419.201229 199.023295 
L 419.853645 316.14037 
L 420.179887 320.447009 
L 420.506061 320.015952 
L 420.832302 320.111284 
L 421.484718 319.165346 
L 422.137201 320.712395 
L 422.789617 320.21189 
L 423.768274 320.374725 
L 424.094516 320.588323 
L 424.420758 320.183811 
L 424.746932 319.540515 
L 425.073173 319.921654 
L 425.399415 320.497011 
L 426.051831 319.857802 
L 426.704246 320.664505 
L 427.030488 320.120905 
L 427.35673 317.806792 
L 427.682904 309.116567 
L 428.009146 295.979004 
L 428.335387 298.229779 
L 428.661561 313.027526 
L 428.987803 312.431182 
L 429.640286 247.571576 
L 429.96646 266.229717 
L 430.292702 308.446012 
L 430.618944 321.541233 
L 430.945118 320.878067 
L 431.271359 320.727726 
L 431.597601 320.027463 
L 431.923775 320.004765 
L 432.576258 321.040385 
L 432.902432 320.728217 
L 433.228674 319.844869 
L 433.554916 320.222541 
L 433.88109 321.052492 
L 434.533573 320.225854 
L 434.859747 320.118697 
L 435.185989 319.458135 
L 435.51223 319.217473 
L 435.838472 319.253517 
L 436.164646 318.836198 
L 436.817129 319.500502 
L 437.469545 318.508199 
L 437.795787 314.753328 
L 438.121961 308.433469 
L 438.448202 309.976372 
L 438.774444 317.331509 
L 439.100618 316.932694 
L 439.753101 282.01945 
L 440.079275 291.041207 
L 440.405517 313.568914 
L 440.731759 320.541471 
L 441.058 319.43443 
L 441.384174 319.612792 
L 441.710416 320.153318 
L 442.036658 320.172139 
L 442.362832 319.540442 
L 442.689073 319.296007 
L 443.341489 320.240927 
L 443.667731 319.859332 
L 443.993972 319.936597 
L 444.320146 320.440515 
L 444.646388 319.950412 
L 444.97263 318.992317 
L 445.298804 318.915313 
L 445.625045 319.683599 
L 445.951287 319.987424 
L 446.277461 319.912656 
L 446.603703 320.371798 
L 446.929944 319.987102 
L 447.256186 318.543825 
L 447.908602 314.123937 
L 448.561017 318.72417 
L 448.887259 315.637613 
L 449.213501 306.614789 
L 449.539675 303.17492 
L 450.192158 320.090109 
L 450.518332 320.587985 
L 450.844574 319.443783 
L 451.170816 318.826071 
L 451.49699 318.924496 
L 451.823231 319.159326 
L 452.475715 318.592432 
L 453.12813 319.354714 
L 453.454372 319.39466 
L 453.780546 319.252459 
L 454.106788 318.509415 
L 454.433029 318.378635 
L 454.759203 318.74202 
L 455.085445 318.504537 
L 455.411687 318.571544 
L 455.737861 319.773252 
L 456.064102 320.316818 
L 456.716518 317.046207 
L 457.04276 317.089644 
L 457.369001 318.217635 
L 457.695175 318.941508 
L 458.021417 317.915733 
L 458.347659 313.776888 
L 458.6739 311.105468 
L 459.326316 320.012971 
L 459.652558 320.137076 
L 459.978732 319.438364 
L 460.304973 319.069115 
L 460.631215 319.333501 
L 460.957389 320.260146 
L 461.283631 319.726989 
L 461.609872 318.646542 
L 461.936046 318.654176 
L 462.262288 318.425832 
L 462.58853 318.852553 
L 462.914704 320.120412 
L 463.240945 320.07156 
L 463.567187 319.511149 
L 463.893429 319.365998 
L 464.545844 319.6737 
L 465.19826 318.808061 
L 465.524502 318.423666 
L 465.850743 318.737138 
L 466.176917 319.315462 
L 466.503159 318.455251 
L 467.155575 315.94043 
L 467.481816 316.225354 
L 467.808058 317.973875 
L 468.460474 319.670854 
L 468.786715 319.490477 
L 469.112889 318.862752 
L 469.765373 319.457277 
L 470.091614 318.890265 
L 470.74403 318.235621 
L 471.070272 317.65773 
L 471.396446 317.462691 
L 471.722687 317.417903 
L 472.048929 317.870483 
L 472.375103 318.634354 
L 472.701345 319.029604 
L 473.027587 319.145701 
L 473.353761 318.767942 
L 473.680002 318.075261 
L 474.006244 318.456129 
L 474.332418 320.010754 
L 474.65866 320.491838 
L 475.311143 318.380117 
L 475.637317 318.714529 
L 475.963559 318.648154 
L 476.2898 318.388544 
L 476.615974 318.798118 
L 476.942216 318.806899 
L 476.942216 318.806899 
" clip-path="url(#p64feee54b5)" style="fill: none; stroke: #1f77b4; stroke-width: 0.7; stroke-linecap: square"/>
   </g>
   <g id="patch_3">
    <path d="M 50.833125 339.84 
L 50.833125 7.2 
" style="fill: none; stroke: #000000; stroke-width: 0.8; stroke-linejoin: miter; stroke-linecap: square"/>
   </g>
   <g id="patch_4">
    <path d="M 497.233125 339.84 
L 497.233125 7.2 
" style="fill: none; stroke: #000000; stroke-width: 0.8; stroke-linejoin: miter; stroke-linecap: square"/>
   </g>
   <g id="patch_5">
    <path d="M 50.833125 339.84 
L 497.233125 339.84 
" style="fill: none; stroke: #000000; stroke-width: 0.8; stroke-linejoin: miter; stroke-linecap: square"/>
   </g>
   <g id="patch_6">
    <path d="M 50.833125 7.2 
L 497.233125 7.2 
" style="fill: none; stroke: #000000; stroke-width: 0.8; stroke-linejoin: miter; stroke-linecap: square"/>
   </g>
   <g id="legend_1">
    <g id="patch_7">
     <path d="M 59.233125 52.5075 
L 278.85375 52.5075 
Q 281.25375 52.5075 281.25375 50.1075 
L 281.25375 15.6 
Q 281.25375 13.2 278.85375 13.2 
L 59.233125 13.2 
Q 56.833125 13.2 56.833125 15.6 
L 56.833125 50.1075 
Q 56.833125 52.5075 59.233125 52.5075 
z
" style="fill: #ffffff; opacity: 0.8; stroke: #cccccc; stroke-linejoin: miter"/>
    </g>
    <g id="line2d_15">
     <path d="M 61.633125 23.398125 
L 73.633125 23.398125 
L 85.633125 23.398125 
" style="fill: none; stroke: #1f77b4; stroke-width: 0.7; stroke-linecap: square"/>
    </g>
    <g id="text_16">
     <!-- Spectre normalisé et renversé -->
     <g transform="translate(95.233125 27.598125)scale(0.12 -0.12)">
      <defs>
       <path id="DejaVuSans-53" d="M 3425 4513 
L 3425 3897 
Q 3066 4069 2747 4153 
Q 2428 4238 2131 4238 
Q 1616 4238 1336 4038 
Q 1056 3838 1056 3469 
Q 1056 3159 1242 3001 
Q 1428 2844 1947 2747 
L 2328 2669 
Q 3034 2534 3370 2195 
Q 3706 1856 3706 1288 
Q 3706 609 3251 259 
Q 2797 -91 1919 -91 
Q 1588 -91 1214 -16 
Q 841 59 441 206 
L 441 856 
Q 825 641 1194 531 
Q 1563 422 1919 422 
Q 2459 422 2753 634 
Q 3047 847 3047 1241 
Q 3047 1584 2836 1778 
Q 2625 1972 2144 2069 
L 1759 2144 
Q 1053 2284 737 2584 
Q 422 2884 422 3419 
Q 422 4038 858 4394 
Q 1294 4750 2059 4750 
Q 2388 4750 2728 4690 
Q 3069 4631 3425 4513 
z
" transform="scale(0.015625)"/>
       <path id="DejaVuSans-6e" d="M 3513 2113 
L 3513 0 
L 2938 0 
L 2938 2094 
Q 2938 2591 2744 2837 
Q 2550 3084 2163 3084 
Q 1697 3084 1428 2787 
Q 1159 2491 1159 1978 
L 1159 0 
L 581 0 
L 581 3500 
L 1159 3500 
L 1159 2956 
Q 1366 3272 1645 3428 
Q 1925 3584 2291 3584 
Q 2894 3584 3203 3211 
Q 3513 2838 3513 2113 
z
" transform="scale(0.015625)"/>
       <path id="DejaVuSans-6f" d="M 1959 3097 
Q 1497 3097 1228 2736 
Q 959 2375 959 1747 
Q 959 1119 1226 758 
Q 1494 397 1959 397 
Q 2419 397 2687 759 
Q 2956 1122 2956 1747 
Q 2956 2369 2687 2733 
Q 2419 3097 1959 3097 
z
M 1959 3584 
Q 2709 3584 3137 3096 
Q 3566 2609 3566 1747 
Q 3566 888 3137 398 
Q 2709 -91 1959 -91 
Q 1206 -91 779 398 
Q 353 888 353 1747 
Q 353 2609 779 3096 
Q 1206 3584 1959 3584 
z
" transform="scale(0.015625)"/>
       <path id="DejaVuSans-73" d="M 2834 3397 
L 2834 2853 
Q 2591 2978 2328 3040 
Q 2066 3103 1784 3103 
Q 1356 3103 1142 2972 
Q 928 2841 928 2578 
Q 928 2378 1081 2264 
Q 1234 2150 1697 2047 
L 1894 2003 
Q 2506 1872 2764 1633 
Q 3022 1394 3022 966 
Q 3022 478 2636 193 
Q 2250 -91 1575 -91 
Q 1294 -91 989 -36 
Q 684 19 347 128 
L 347 722 
Q 666 556 975 473 
Q 1284 391 1588 391 
Q 1994 391 2212 530 
Q 2431 669 2431 922 
Q 2431 1156 2273 1281 
Q 2116 1406 1581 1522 
L 1381 1569 
Q 847 1681 609 1914 
Q 372 2147 372 2553 
Q 372 3047 722 3315 
Q 1072 3584 1716 3584 
Q 2034 3584 2315 3537 
Q 2597 3491 2834 3397 
z
" transform="scale(0.015625)"/>
       <path id="DejaVuSans-e9" d="M 3597 1894 
L 3597 1613 
L 953 1613 
Q 991 1019 1311 708 
Q 1631 397 2203 397 
Q 2534 397 2845 478 
Q 3156 559 3463 722 
L 3463 178 
Q 3153 47 2828 -22 
Q 2503 -91 2169 -91 
Q 1331 -91 842 396 
Q 353 884 353 1716 
Q 353 2575 817 3079 
Q 1281 3584 2069 3584 
Q 2775 3584 3186 3129 
Q 3597 2675 3597 1894 
z
M 3022 2063 
Q 3016 2534 2758 2815 
Q 2500 3097 2075 3097 
Q 1594 3097 1305 2825 
Q 1016 2553 972 2059 
L 3022 2063 
z
M 2466 5119 
L 3088 5119 
L 2070 3944 
L 1591 3944 
L 2466 5119 
z
" transform="scale(0.015625)"/>
      </defs>
      <use xlink:href="#DejaVuSans-53"/>
      <use xlink:href="#DejaVuSans-70" x="63.476562"/>
      <use xlink:href="#DejaVuSans-65" x="126.953125"/>
      <use xlink:href="#DejaVuSans-63" x="188.476562"/>
      <use xlink:href="#DejaVuSans-74" x="243.457031"/>
      <use xlink:href="#DejaVuSans-72" x="282.666016"/>
      <use xlink:href="#DejaVuSans-65" x="321.529297"/>
      <use xlink:href="#DejaVuSans-20" x="383.052734"/>
      <use xlink:href="#DejaVuSans-6e" x="414.839844"/>
      <use xlink:href="#DejaVuSans-6f" x="478.21875"/>
      <use xlink:href="#DejaVuSans-72" x="539.400391"/>
      <use xlink:href="#DejaVuSans-6d" x="578.763672"/>
      <use xlink:href="#DejaVuSans-61" x="676.175781"/>
      <use xlink:href="#DejaVuSans-6c" x="737.455078"/>
      <use xlink:href="#DejaVuSans-69" x="765.238281"/>
      <use xlink:href="#DejaVuSans-73" x="793.021484"/>
      <use xlink:href="#DejaVuSans-e9" x="845.121094"/>
      <use xlink:href="#DejaVuSans-20" x="906.644531"/>
      <use xlink:href="#DejaVuSans-65" x="938.431641"/>
      <use xlink:href="#DejaVuSans-74" x="999.955078"/>
      <use xlink:href="#DejaVuSans-20" x="1039.164062"/>
      <use xlink:href="#DejaVuSans-72" x="1070.951172"/>
      <use xlink:href="#DejaVuSans-65" x="1109.814453"/>
      <use xlink:href="#DejaVuSans-6e" x="1171.337891"/>
      <use xlink:href="#DejaVuSans-76" x="1234.716797"/>
      <use xlink:href="#DejaVuSans-65" x="1293.896484"/>
      <use xlink:href="#DejaVuSans-72" x="1355.419922"/>
      <use xlink:href="#DejaVuSans-73" x="1396.533203"/>
      <use xlink:href="#DejaVuSans-e9" x="1448.632812"/>
     </g>
    </g>
    <g id="PathCollection_2">
     <g>
      <use xlink:href="#m703c67298f" x="73.633125" y="42.061875" style="fill: #ff0000; stroke: #ff0000"/>
     </g>
    </g>
    <g id="text_17">
     <!-- Pics étudiés -->
     <g transform="translate(95.233125 45.211875)scale(0.12 -0.12)">
      <defs>
       <path id="DejaVuSans-50" d="M 1259 4147 
L 1259 2394 
L 2053 2394 
Q 2494 2394 2734 2622 
Q 2975 2850 2975 3272 
Q 2975 3691 2734 3919 
Q 2494 4147 2053 4147 
L 1259 4147 
z
M 628 4666 
L 2053 4666 
Q 2838 4666 3239 4311 
Q 3641 3956 3641 3272 
Q 3641 2581 3239 2228 
Q 2838 1875 2053 1875 
L 1259 1875 
L 1259 0 
L 628 0 
L 628 4666 
z
" transform="scale(0.015625)"/>
      </defs>
      <use xlink:href="#DejaVuSans-50"/>
      <use xlink:href="#DejaVuSans-69" x="58.052734"/>
      <use xlink:href="#DejaVuSans-63" x="85.835938"/>
      <use xlink:href="#DejaVuSans-73" x="140.816406"/>
      <use xlink:href="#DejaVuSans-20" x="192.916016"/>
      <use xlink:href="#DejaVuSans-e9" x="224.703125"/>
      <use xlink:href="#DejaVuSans-74" x="286.226562"/>
      <use xlink:href="#DejaVuSans-75" x="325.435547"/>
      <use xlink:href="#DejaVuSans-64" x="388.814453"/>
      <use xlink:href="#DejaVuSans-69" x="452.291016"/>
      <use xlink:href="#DejaVuSans-e9" x="480.074219"/>
      <use xlink:href="#DejaVuSans-73" x="541.597656"/>
     </g>
    </g>
   </g>
  </g>
 </g>
 <defs>
  <clipPath id="p64feee54b5">
   <rect x="50.833125" y="7.2" width="446.4" height="332.64"/>
  </clipPath>
 </defs>
</svg>
