<?xml version="1.0" encoding="utf-8" standalone="no"?>
<!DOCTYPE svg PUBLIC "-//W3C//DTD SVG 1.1//EN"
  "http://www.w3.org/Graphics/SVG/1.1/DTD/svg11.dtd">
<svg xmlns:xlink="http://www.w3.org/1999/xlink" width="500.619375pt" height="384.21375pt" viewBox="0 0 500.619375 384.21375" xmlns="http://www.w3.org/2000/svg" version="1.1">
 <metadata>
  <rdf:RDF xmlns:dc="http://purl.org/dc/elements/1.1/" xmlns:cc="http://creativecommons.org/ns#" xmlns:rdf="http://www.w3.org/1999/02/22-rdf-syntax-ns#">
   <cc:Work>
    <dc:type rdf:resource="http://purl.org/dc/dcmitype/StillImage"/>
    <dc:date>2024-04-27T13:39:54.771228</dc:date>
    <dc:format>image/svg+xml</dc:format>
    <dc:creator>
     <cc:Agent>
      <dc:title>Matplotlib v3.5.0, https://matplotlib.org/</dc:title>
     </cc:Agent>
    </dc:creator>
   </cc:Work>
  </rdf:RDF>
 </metadata>
 <defs>
  <style type="text/css">*{stroke-linejoin: round; stroke-linecap: butt}</style>
 </defs>
 <g id="figure_1">
  <g id="patch_1">
   <path d="M 0 384.21375 
L 500.619375 384.21375 
L 500.619375 0 
L 0 0 
z
" style="fill: #ffffff"/>
  </g>
  <g id="axes_1">
   <g id="patch_2">
    <path d="M 47.019375 339.84 
L 493.419375 339.84 
L 493.419375 7.2 
L 47.019375 7.2 
z
" style="fill: #ffffff"/>
   </g>
   <g id="matplotlib.axis_1">
    <g id="xtick_1">
     <g id="line2d_1">
      <defs>
       <path id="mca72b2f573" d="M 0 0 
L 0 3.5 
" style="stroke: #000000; stroke-width: 0.8"/>
      </defs>
      <g>
       <use xlink:href="#mca72b2f573" x="67.280447" y="339.84" style="stroke: #000000; stroke-width: 0.8"/>
      </g>
     </g>
     <g id="text_1">
      <!-- 2500 -->
      <g transform="translate(52.010447 355.958125)scale(0.12 -0.12)">
       <defs>
        <path id="DejaVuSans-32" d="M 1228 531 
L 3431 531 
L 3431 0 
L 469 0 
L 469 531 
Q 828 903 1448 1529 
Q 2069 2156 2228 2338 
Q 2531 2678 2651 2914 
Q 2772 3150 2772 3378 
Q 2772 3750 2511 3984 
Q 2250 4219 1831 4219 
Q 1534 4219 1204 4116 
Q 875 4013 500 3803 
L 500 4441 
Q 881 4594 1212 4672 
Q 1544 4750 1819 4750 
Q 2544 4750 2975 4387 
Q 3406 4025 3406 3419 
Q 3406 3131 3298 2873 
Q 3191 2616 2906 2266 
Q 2828 2175 2409 1742 
Q 1991 1309 1228 531 
z
" transform="scale(0.015625)"/>
        <path id="DejaVuSans-35" d="M 691 4666 
L 3169 4666 
L 3169 4134 
L 1269 4134 
L 1269 2991 
Q 1406 3038 1543 3061 
Q 1681 3084 1819 3084 
Q 2600 3084 3056 2656 
Q 3513 2228 3513 1497 
Q 3513 744 3044 326 
Q 2575 -91 1722 -91 
Q 1428 -91 1123 -41 
Q 819 9 494 109 
L 494 744 
Q 775 591 1075 516 
Q 1375 441 1709 441 
Q 2250 441 2565 725 
Q 2881 1009 2881 1497 
Q 2881 1984 2565 2268 
Q 2250 2553 1709 2553 
Q 1456 2553 1204 2497 
Q 953 2441 691 2322 
L 691 4666 
z
" transform="scale(0.015625)"/>
        <path id="DejaVuSans-30" d="M 2034 4250 
Q 1547 4250 1301 3770 
Q 1056 3291 1056 2328 
Q 1056 1369 1301 889 
Q 1547 409 2034 409 
Q 2525 409 2770 889 
Q 3016 1369 3016 2328 
Q 3016 3291 2770 3770 
Q 2525 4250 2034 4250 
z
M 2034 4750 
Q 2819 4750 3233 4129 
Q 3647 3509 3647 2328 
Q 3647 1150 3233 529 
Q 2819 -91 2034 -91 
Q 1250 -91 836 529 
Q 422 1150 422 2328 
Q 422 3509 836 4129 
Q 1250 4750 2034 4750 
z
" transform="scale(0.015625)"/>
       </defs>
       <use xlink:href="#DejaVuSans-32"/>
       <use xlink:href="#DejaVuSans-35" x="63.623047"/>
       <use xlink:href="#DejaVuSans-30" x="127.246094"/>
       <use xlink:href="#DejaVuSans-30" x="190.869141"/>
      </g>
     </g>
    </g>
    <g id="xtick_2">
     <g id="line2d_2">
      <g>
       <use xlink:href="#mca72b2f573" x="134.937367" y="339.84" style="stroke: #000000; stroke-width: 0.8"/>
      </g>
     </g>
     <g id="text_2">
      <!-- 2600 -->
      <g transform="translate(119.667367 355.958125)scale(0.12 -0.12)">
       <defs>
        <path id="DejaVuSans-36" d="M 2113 2584 
Q 1688 2584 1439 2293 
Q 1191 2003 1191 1497 
Q 1191 994 1439 701 
Q 1688 409 2113 409 
Q 2538 409 2786 701 
Q 3034 994 3034 1497 
Q 3034 2003 2786 2293 
Q 2538 2584 2113 2584 
z
M 3366 4563 
L 3366 3988 
Q 3128 4100 2886 4159 
Q 2644 4219 2406 4219 
Q 1781 4219 1451 3797 
Q 1122 3375 1075 2522 
Q 1259 2794 1537 2939 
Q 1816 3084 2150 3084 
Q 2853 3084 3261 2657 
Q 3669 2231 3669 1497 
Q 3669 778 3244 343 
Q 2819 -91 2113 -91 
Q 1303 -91 875 529 
Q 447 1150 447 2328 
Q 447 3434 972 4092 
Q 1497 4750 2381 4750 
Q 2619 4750 2861 4703 
Q 3103 4656 3366 4563 
z
" transform="scale(0.015625)"/>
       </defs>
       <use xlink:href="#DejaVuSans-32"/>
       <use xlink:href="#DejaVuSans-36" x="63.623047"/>
       <use xlink:href="#DejaVuSans-30" x="127.246094"/>
       <use xlink:href="#DejaVuSans-30" x="190.869141"/>
      </g>
     </g>
    </g>
    <g id="xtick_3">
     <g id="line2d_3">
      <g>
       <use xlink:href="#mca72b2f573" x="202.594288" y="339.84" style="stroke: #000000; stroke-width: 0.8"/>
      </g>
     </g>
     <g id="text_3">
      <!-- 2700 -->
      <g transform="translate(187.324288 355.958125)scale(0.12 -0.12)">
       <defs>
        <path id="DejaVuSans-37" d="M 525 4666 
L 3525 4666 
L 3525 4397 
L 1831 0 
L 1172 0 
L 2766 4134 
L 525 4134 
L 525 4666 
z
" transform="scale(0.015625)"/>
       </defs>
       <use xlink:href="#DejaVuSans-32"/>
       <use xlink:href="#DejaVuSans-37" x="63.623047"/>
       <use xlink:href="#DejaVuSans-30" x="127.246094"/>
       <use xlink:href="#DejaVuSans-30" x="190.869141"/>
      </g>
     </g>
    </g>
    <g id="xtick_4">
     <g id="line2d_4">
      <g>
       <use xlink:href="#mca72b2f573" x="270.251208" y="339.84" style="stroke: #000000; stroke-width: 0.8"/>
      </g>
     </g>
     <g id="text_4">
      <!-- 2800 -->
      <g transform="translate(254.981208 355.958125)scale(0.12 -0.12)">
       <defs>
        <path id="DejaVuSans-38" d="M 2034 2216 
Q 1584 2216 1326 1975 
Q 1069 1734 1069 1313 
Q 1069 891 1326 650 
Q 1584 409 2034 409 
Q 2484 409 2743 651 
Q 3003 894 3003 1313 
Q 3003 1734 2745 1975 
Q 2488 2216 2034 2216 
z
M 1403 2484 
Q 997 2584 770 2862 
Q 544 3141 544 3541 
Q 544 4100 942 4425 
Q 1341 4750 2034 4750 
Q 2731 4750 3128 4425 
Q 3525 4100 3525 3541 
Q 3525 3141 3298 2862 
Q 3072 2584 2669 2484 
Q 3125 2378 3379 2068 
Q 3634 1759 3634 1313 
Q 3634 634 3220 271 
Q 2806 -91 2034 -91 
Q 1263 -91 848 271 
Q 434 634 434 1313 
Q 434 1759 690 2068 
Q 947 2378 1403 2484 
z
M 1172 3481 
Q 1172 3119 1398 2916 
Q 1625 2713 2034 2713 
Q 2441 2713 2670 2916 
Q 2900 3119 2900 3481 
Q 2900 3844 2670 4047 
Q 2441 4250 2034 4250 
Q 1625 4250 1398 4047 
Q 1172 3844 1172 3481 
z
" transform="scale(0.015625)"/>
       </defs>
       <use xlink:href="#DejaVuSans-32"/>
       <use xlink:href="#DejaVuSans-38" x="63.623047"/>
       <use xlink:href="#DejaVuSans-30" x="127.246094"/>
       <use xlink:href="#DejaVuSans-30" x="190.869141"/>
      </g>
     </g>
    </g>
    <g id="xtick_5">
     <g id="line2d_5">
      <g>
       <use xlink:href="#mca72b2f573" x="337.908128" y="339.84" style="stroke: #000000; stroke-width: 0.8"/>
      </g>
     </g>
     <g id="text_5">
      <!-- 2900 -->
      <g transform="translate(322.638128 355.958125)scale(0.12 -0.12)">
       <defs>
        <path id="DejaVuSans-39" d="M 703 97 
L 703 672 
Q 941 559 1184 500 
Q 1428 441 1663 441 
Q 2288 441 2617 861 
Q 2947 1281 2994 2138 
Q 2813 1869 2534 1725 
Q 2256 1581 1919 1581 
Q 1219 1581 811 2004 
Q 403 2428 403 3163 
Q 403 3881 828 4315 
Q 1253 4750 1959 4750 
Q 2769 4750 3195 4129 
Q 3622 3509 3622 2328 
Q 3622 1225 3098 567 
Q 2575 -91 1691 -91 
Q 1453 -91 1209 -44 
Q 966 3 703 97 
z
M 1959 2075 
Q 2384 2075 2632 2365 
Q 2881 2656 2881 3163 
Q 2881 3666 2632 3958 
Q 2384 4250 1959 4250 
Q 1534 4250 1286 3958 
Q 1038 3666 1038 3163 
Q 1038 2656 1286 2365 
Q 1534 2075 1959 2075 
z
" transform="scale(0.015625)"/>
       </defs>
       <use xlink:href="#DejaVuSans-32"/>
       <use xlink:href="#DejaVuSans-39" x="63.623047"/>
       <use xlink:href="#DejaVuSans-30" x="127.246094"/>
       <use xlink:href="#DejaVuSans-30" x="190.869141"/>
      </g>
     </g>
    </g>
    <g id="xtick_6">
     <g id="line2d_6">
      <g>
       <use xlink:href="#mca72b2f573" x="405.565048" y="339.84" style="stroke: #000000; stroke-width: 0.8"/>
      </g>
     </g>
     <g id="text_6">
      <!-- 3000 -->
      <g transform="translate(390.295048 355.958125)scale(0.12 -0.12)">
       <defs>
        <path id="DejaVuSans-33" d="M 2597 2516 
Q 3050 2419 3304 2112 
Q 3559 1806 3559 1356 
Q 3559 666 3084 287 
Q 2609 -91 1734 -91 
Q 1441 -91 1130 -33 
Q 819 25 488 141 
L 488 750 
Q 750 597 1062 519 
Q 1375 441 1716 441 
Q 2309 441 2620 675 
Q 2931 909 2931 1356 
Q 2931 1769 2642 2001 
Q 2353 2234 1838 2234 
L 1294 2234 
L 1294 2753 
L 1863 2753 
Q 2328 2753 2575 2939 
Q 2822 3125 2822 3475 
Q 2822 3834 2567 4026 
Q 2313 4219 1838 4219 
Q 1578 4219 1281 4162 
Q 984 4106 628 3988 
L 628 4550 
Q 988 4650 1302 4700 
Q 1616 4750 1894 4750 
Q 2613 4750 3031 4423 
Q 3450 4097 3450 3541 
Q 3450 3153 3228 2886 
Q 3006 2619 2597 2516 
z
" transform="scale(0.015625)"/>
       </defs>
       <use xlink:href="#DejaVuSans-33"/>
       <use xlink:href="#DejaVuSans-30" x="63.623047"/>
       <use xlink:href="#DejaVuSans-30" x="127.246094"/>
       <use xlink:href="#DejaVuSans-30" x="190.869141"/>
      </g>
     </g>
    </g>
    <g id="xtick_7">
     <g id="line2d_7">
      <g>
       <use xlink:href="#mca72b2f573" x="473.221968" y="339.84" style="stroke: #000000; stroke-width: 0.8"/>
      </g>
     </g>
     <g id="text_7">
      <!-- 3100 -->
      <g transform="translate(457.951968 355.958125)scale(0.12 -0.12)">
       <defs>
        <path id="DejaVuSans-31" d="M 794 531 
L 1825 531 
L 1825 4091 
L 703 3866 
L 703 4441 
L 1819 4666 
L 2450 4666 
L 2450 531 
L 3481 531 
L 3481 0 
L 794 0 
L 794 531 
z
" transform="scale(0.015625)"/>
       </defs>
       <use xlink:href="#DejaVuSans-33"/>
       <use xlink:href="#DejaVuSans-31" x="63.623047"/>
       <use xlink:href="#DejaVuSans-30" x="127.246094"/>
       <use xlink:href="#DejaVuSans-30" x="190.869141"/>
      </g>
     </g>
    </g>
    <g id="text_8">
     <!-- $\sigma$ (cm$^{-1}$) -->
     <g transform="translate(239.909375 374.102188)scale(0.14 -0.14)">
      <defs>
       <path id="DejaVuSans-Oblique-3c3" d="M 2219 3044 
Q 1744 3044 1422 2700 
Q 1081 2341 969 1747 
Q 844 1119 1044 756 
Q 1241 397 1706 397 
Q 2166 397 2503 759 
Q 2844 1122 2966 1747 
Q 3075 2319 2881 2700 
Q 2700 3044 2219 3044 
z
M 2309 3503 
L 4219 3500 
L 4106 2925 
L 3463 2925 
Q 3706 2438 3575 1747 
Q 3406 888 2884 400 
Q 2359 -91 1609 -91 
Q 856 -91 525 400 
Q 194 888 363 1747 
Q 528 2609 1050 3097 
Q 1484 3503 2309 3503 
z
" transform="scale(0.015625)"/>
       <path id="DejaVuSans-20" transform="scale(0.015625)"/>
       <path id="DejaVuSans-28" d="M 1984 4856 
Q 1566 4138 1362 3434 
Q 1159 2731 1159 2009 
Q 1159 1288 1364 580 
Q 1569 -128 1984 -844 
L 1484 -844 
Q 1016 -109 783 600 
Q 550 1309 550 2009 
Q 550 2706 781 3412 
Q 1013 4119 1484 4856 
L 1984 4856 
z
" transform="scale(0.015625)"/>
       <path id="DejaVuSans-63" d="M 3122 3366 
L 3122 2828 
Q 2878 2963 2633 3030 
Q 2388 3097 2138 3097 
Q 1578 3097 1268 2742 
Q 959 2388 959 1747 
Q 959 1106 1268 751 
Q 1578 397 2138 397 
Q 2388 397 2633 464 
Q 2878 531 3122 666 
L 3122 134 
Q 2881 22 2623 -34 
Q 2366 -91 2075 -91 
Q 1284 -91 818 406 
Q 353 903 353 1747 
Q 353 2603 823 3093 
Q 1294 3584 2113 3584 
Q 2378 3584 2631 3529 
Q 2884 3475 3122 3366 
z
" transform="scale(0.015625)"/>
       <path id="DejaVuSans-6d" d="M 3328 2828 
Q 3544 3216 3844 3400 
Q 4144 3584 4550 3584 
Q 5097 3584 5394 3201 
Q 5691 2819 5691 2113 
L 5691 0 
L 5113 0 
L 5113 2094 
Q 5113 2597 4934 2840 
Q 4756 3084 4391 3084 
Q 3944 3084 3684 2787 
Q 3425 2491 3425 1978 
L 3425 0 
L 2847 0 
L 2847 2094 
Q 2847 2600 2669 2842 
Q 2491 3084 2119 3084 
Q 1678 3084 1418 2786 
Q 1159 2488 1159 1978 
L 1159 0 
L 581 0 
L 581 3500 
L 1159 3500 
L 1159 2956 
Q 1356 3278 1631 3431 
Q 1906 3584 2284 3584 
Q 2666 3584 2933 3390 
Q 3200 3197 3328 2828 
z
" transform="scale(0.015625)"/>
       <path id="DejaVuSans-2212" d="M 678 2272 
L 4684 2272 
L 4684 1741 
L 678 1741 
L 678 2272 
z
" transform="scale(0.015625)"/>
       <path id="DejaVuSans-29" d="M 513 4856 
L 1013 4856 
Q 1481 4119 1714 3412 
Q 1947 2706 1947 2009 
Q 1947 1309 1714 600 
Q 1481 -109 1013 -844 
L 513 -844 
Q 928 -128 1133 580 
Q 1338 1288 1338 2009 
Q 1338 2731 1133 3434 
Q 928 4138 513 4856 
z
" transform="scale(0.015625)"/>
      </defs>
      <use xlink:href="#DejaVuSans-Oblique-3c3" transform="translate(0 0.684375)"/>
      <use xlink:href="#DejaVuSans-20" transform="translate(63.378906 0.684375)"/>
      <use xlink:href="#DejaVuSans-28" transform="translate(95.166016 0.684375)"/>
      <use xlink:href="#DejaVuSans-63" transform="translate(134.179688 0.684375)"/>
      <use xlink:href="#DejaVuSans-6d" transform="translate(189.160156 0.684375)"/>
      <use xlink:href="#DejaVuSans-2212" transform="translate(287.529297 38.965625)scale(0.7)"/>
      <use xlink:href="#DejaVuSans-31" transform="translate(346.181641 38.965625)scale(0.7)"/>
      <use xlink:href="#DejaVuSans-29" transform="translate(393.452148 0.684375)"/>
     </g>
    </g>
   </g>
   <g id="matplotlib.axis_2">
    <g id="ytick_1">
     <g id="line2d_8">
      <defs>
       <path id="mc73808878d" d="M 0 0 
L -3.5 0 
" style="stroke: #000000; stroke-width: 0.8"/>
      </defs>
      <g>
       <use xlink:href="#mc73808878d" x="47.019375" y="324.845913" style="stroke: #000000; stroke-width: 0.8"/>
      </g>
     </g>
     <g id="text_9">
      <!-- 80 -->
      <g transform="translate(24.749375 329.404975)scale(0.12 -0.12)">
       <use xlink:href="#DejaVuSans-38"/>
       <use xlink:href="#DejaVuSans-30" x="63.623047"/>
      </g>
     </g>
    </g>
    <g id="ytick_2">
     <g id="line2d_9">
      <g>
       <use xlink:href="#mc73808878d" x="47.019375" y="253.275589" style="stroke: #000000; stroke-width: 0.8"/>
      </g>
     </g>
     <g id="text_10">
      <!-- 82 -->
      <g transform="translate(24.749375 257.834651)scale(0.12 -0.12)">
       <use xlink:href="#DejaVuSans-38"/>
       <use xlink:href="#DejaVuSans-32" x="63.623047"/>
      </g>
     </g>
    </g>
    <g id="ytick_3">
     <g id="line2d_10">
      <g>
       <use xlink:href="#mc73808878d" x="47.019375" y="181.705264" style="stroke: #000000; stroke-width: 0.8"/>
      </g>
     </g>
     <g id="text_11">
      <!-- 84 -->
      <g transform="translate(24.749375 186.264327)scale(0.12 -0.12)">
       <defs>
        <path id="DejaVuSans-34" d="M 2419 4116 
L 825 1625 
L 2419 1625 
L 2419 4116 
z
M 2253 4666 
L 3047 4666 
L 3047 1625 
L 3713 1625 
L 3713 1100 
L 3047 1100 
L 3047 0 
L 2419 0 
L 2419 1100 
L 313 1100 
L 313 1709 
L 2253 4666 
z
" transform="scale(0.015625)"/>
       </defs>
       <use xlink:href="#DejaVuSans-38"/>
       <use xlink:href="#DejaVuSans-34" x="63.623047"/>
      </g>
     </g>
    </g>
    <g id="ytick_4">
     <g id="line2d_11">
      <g>
       <use xlink:href="#mc73808878d" x="47.019375" y="110.13494" style="stroke: #000000; stroke-width: 0.8"/>
      </g>
     </g>
     <g id="text_12">
      <!-- 86 -->
      <g transform="translate(24.749375 114.694003)scale(0.12 -0.12)">
       <use xlink:href="#DejaVuSans-38"/>
       <use xlink:href="#DejaVuSans-36" x="63.623047"/>
      </g>
     </g>
    </g>
    <g id="ytick_5">
     <g id="line2d_12">
      <g>
       <use xlink:href="#mc73808878d" x="47.019375" y="38.564616" style="stroke: #000000; stroke-width: 0.8"/>
      </g>
     </g>
     <g id="text_13">
      <!-- 88 -->
      <g transform="translate(24.749375 43.123679)scale(0.12 -0.12)">
       <use xlink:href="#DejaVuSans-38"/>
       <use xlink:href="#DejaVuSans-38" x="63.623047"/>
      </g>
     </g>
    </g>
    <g id="text_14">
     <!-- Transmittance (%) -->
     <g transform="translate(17.837812 237.484688)rotate(-90)scale(0.14 -0.14)">
      <defs>
       <path id="DejaVuSans-54" d="M -19 4666 
L 3928 4666 
L 3928 4134 
L 2272 4134 
L 2272 0 
L 1638 0 
L 1638 4134 
L -19 4134 
L -19 4666 
z
" transform="scale(0.015625)"/>
       <path id="DejaVuSans-72" d="M 2631 2963 
Q 2534 3019 2420 3045 
Q 2306 3072 2169 3072 
Q 1681 3072 1420 2755 
Q 1159 2438 1159 1844 
L 1159 0 
L 581 0 
L 581 3500 
L 1159 3500 
L 1159 2956 
Q 1341 3275 1631 3429 
Q 1922 3584 2338 3584 
Q 2397 3584 2469 3576 
Q 2541 3569 2628 3553 
L 2631 2963 
z
" transform="scale(0.015625)"/>
       <path id="DejaVuSans-61" d="M 2194 1759 
Q 1497 1759 1228 1600 
Q 959 1441 959 1056 
Q 959 750 1161 570 
Q 1363 391 1709 391 
Q 2188 391 2477 730 
Q 2766 1069 2766 1631 
L 2766 1759 
L 2194 1759 
z
M 3341 1997 
L 3341 0 
L 2766 0 
L 2766 531 
Q 2569 213 2275 61 
Q 1981 -91 1556 -91 
Q 1019 -91 701 211 
Q 384 513 384 1019 
Q 384 1609 779 1909 
Q 1175 2209 1959 2209 
L 2766 2209 
L 2766 2266 
Q 2766 2663 2505 2880 
Q 2244 3097 1772 3097 
Q 1472 3097 1187 3025 
Q 903 2953 641 2809 
L 641 3341 
Q 956 3463 1253 3523 
Q 1550 3584 1831 3584 
Q 2591 3584 2966 3190 
Q 3341 2797 3341 1997 
z
" transform="scale(0.015625)"/>
       <path id="DejaVuSans-6e" d="M 3513 2113 
L 3513 0 
L 2938 0 
L 2938 2094 
Q 2938 2591 2744 2837 
Q 2550 3084 2163 3084 
Q 1697 3084 1428 2787 
Q 1159 2491 1159 1978 
L 1159 0 
L 581 0 
L 581 3500 
L 1159 3500 
L 1159 2956 
Q 1366 3272 1645 3428 
Q 1925 3584 2291 3584 
Q 2894 3584 3203 3211 
Q 3513 2838 3513 2113 
z
" transform="scale(0.015625)"/>
       <path id="DejaVuSans-73" d="M 2834 3397 
L 2834 2853 
Q 2591 2978 2328 3040 
Q 2066 3103 1784 3103 
Q 1356 3103 1142 2972 
Q 928 2841 928 2578 
Q 928 2378 1081 2264 
Q 1234 2150 1697 2047 
L 1894 2003 
Q 2506 1872 2764 1633 
Q 3022 1394 3022 966 
Q 3022 478 2636 193 
Q 2250 -91 1575 -91 
Q 1294 -91 989 -36 
Q 684 19 347 128 
L 347 722 
Q 666 556 975 473 
Q 1284 391 1588 391 
Q 1994 391 2212 530 
Q 2431 669 2431 922 
Q 2431 1156 2273 1281 
Q 2116 1406 1581 1522 
L 1381 1569 
Q 847 1681 609 1914 
Q 372 2147 372 2553 
Q 372 3047 722 3315 
Q 1072 3584 1716 3584 
Q 2034 3584 2315 3537 
Q 2597 3491 2834 3397 
z
" transform="scale(0.015625)"/>
       <path id="DejaVuSans-69" d="M 603 3500 
L 1178 3500 
L 1178 0 
L 603 0 
L 603 3500 
z
M 603 4863 
L 1178 4863 
L 1178 4134 
L 603 4134 
L 603 4863 
z
" transform="scale(0.015625)"/>
       <path id="DejaVuSans-74" d="M 1172 4494 
L 1172 3500 
L 2356 3500 
L 2356 3053 
L 1172 3053 
L 1172 1153 
Q 1172 725 1289 603 
Q 1406 481 1766 481 
L 2356 481 
L 2356 0 
L 1766 0 
Q 1100 0 847 248 
Q 594 497 594 1153 
L 594 3053 
L 172 3053 
L 172 3500 
L 594 3500 
L 594 4494 
L 1172 4494 
z
" transform="scale(0.015625)"/>
       <path id="DejaVuSans-65" d="M 3597 1894 
L 3597 1613 
L 953 1613 
Q 991 1019 1311 708 
Q 1631 397 2203 397 
Q 2534 397 2845 478 
Q 3156 559 3463 722 
L 3463 178 
Q 3153 47 2828 -22 
Q 2503 -91 2169 -91 
Q 1331 -91 842 396 
Q 353 884 353 1716 
Q 353 2575 817 3079 
Q 1281 3584 2069 3584 
Q 2775 3584 3186 3129 
Q 3597 2675 3597 1894 
z
M 3022 2063 
Q 3016 2534 2758 2815 
Q 2500 3097 2075 3097 
Q 1594 3097 1305 2825 
Q 1016 2553 972 2059 
L 3022 2063 
z
" transform="scale(0.015625)"/>
       <path id="DejaVuSans-25" d="M 4653 2053 
Q 4381 2053 4226 1822 
Q 4072 1591 4072 1178 
Q 4072 772 4226 539 
Q 4381 306 4653 306 
Q 4919 306 5073 539 
Q 5228 772 5228 1178 
Q 5228 1588 5073 1820 
Q 4919 2053 4653 2053 
z
M 4653 2450 
Q 5147 2450 5437 2106 
Q 5728 1763 5728 1178 
Q 5728 594 5436 251 
Q 5144 -91 4653 -91 
Q 4153 -91 3862 251 
Q 3572 594 3572 1178 
Q 3572 1766 3864 2108 
Q 4156 2450 4653 2450 
z
M 1428 4353 
Q 1159 4353 1004 4120 
Q 850 3888 850 3481 
Q 850 3069 1003 2837 
Q 1156 2606 1428 2606 
Q 1700 2606 1854 2837 
Q 2009 3069 2009 3481 
Q 2009 3884 1853 4118 
Q 1697 4353 1428 4353 
z
M 4250 4750 
L 4750 4750 
L 1831 -91 
L 1331 -91 
L 4250 4750 
z
M 1428 4750 
Q 1922 4750 2215 4408 
Q 2509 4066 2509 3481 
Q 2509 2891 2217 2550 
Q 1925 2209 1428 2209 
Q 931 2209 642 2551 
Q 353 2894 353 3481 
Q 353 4063 643 4406 
Q 934 4750 1428 4750 
z
" transform="scale(0.015625)"/>
      </defs>
      <use xlink:href="#DejaVuSans-54"/>
      <use xlink:href="#DejaVuSans-72" x="46.333984"/>
      <use xlink:href="#DejaVuSans-61" x="87.447266"/>
      <use xlink:href="#DejaVuSans-6e" x="148.726562"/>
      <use xlink:href="#DejaVuSans-73" x="212.105469"/>
      <use xlink:href="#DejaVuSans-6d" x="264.205078"/>
      <use xlink:href="#DejaVuSans-69" x="361.617188"/>
      <use xlink:href="#DejaVuSans-74" x="389.400391"/>
      <use xlink:href="#DejaVuSans-74" x="428.609375"/>
      <use xlink:href="#DejaVuSans-61" x="467.818359"/>
      <use xlink:href="#DejaVuSans-6e" x="529.097656"/>
      <use xlink:href="#DejaVuSans-63" x="592.476562"/>
      <use xlink:href="#DejaVuSans-65" x="647.457031"/>
      <use xlink:href="#DejaVuSans-20" x="708.980469"/>
      <use xlink:href="#DejaVuSans-28" x="740.767578"/>
      <use xlink:href="#DejaVuSans-25" x="779.78125"/>
      <use xlink:href="#DejaVuSans-29" x="874.800781"/>
     </g>
    </g>
   </g>
   <g id="line2d_13">
    <path d="M 67.310284 27.503422 
L 67.636526 27.670839 
L 68.288941 27.483208 
L 68.941357 27.92539 
L 69.59384 27.66617 
L 69.920014 27.82999 
L 70.246256 27.621635 
L 70.572498 27.123409 
L 70.898672 26.979442 
L 71.551155 27.994047 
L 72.203571 27.924333 
L 72.529813 28.034404 
L 73.50847 27.484318 
L 73.834712 27.286653 
L 74.160886 27.260764 
L 74.813369 28.268255 
L 75.139543 28.13504 
L 75.792026 27.507213 
L 76.444442 27.842044 
L 76.770684 27.669512 
L 77.096858 27.332374 
L 77.749341 27.756713 
L 78.075515 27.763119 
L 78.727998 28.548879 
L 79.05424 28.133003 
L 79.380414 27.294849 
L 79.706656 27.072182 
L 80.032897 27.457841 
L 80.359071 28.115441 
L 80.685313 28.293495 
L 81.011555 28.002733 
L 81.66397 27.088308 
L 81.990212 27.466622 
L 82.316386 27.580084 
L 82.642628 27.421537 
L 83.295043 27.544468 
L 83.621285 27.310637 
L 83.947527 27.423874 
L 84.273701 27.762506 
L 84.926184 27.974404 
L 85.5786 28.583286 
L 85.904841 28.449263 
L 86.231083 27.35255 
L 86.557257 26.942838 
L 86.883499 27.567235 
L 88.188398 28.732795 
L 88.840813 28.112675 
L 89.167055 28.024343 
L 89.493229 27.660365 
L 89.819471 27.661289 
L 90.145712 27.948384 
L 90.471954 27.641328 
L 90.798128 26.96914 
L 91.12437 26.808549 
L 91.450611 27.209653 
L 91.776785 27.836077 
L 92.103027 27.86119 
L 92.429269 27.54265 
L 93.081684 28.980785 
L 93.407926 28.583203 
L 93.7341 28.736616 
L 94.060342 29.215579 
L 94.712758 27.757728 
L 95.038999 27.950131 
L 95.365241 27.967091 
L 95.691415 27.049963 
L 96.017657 26.766133 
L 96.343898 27.548604 
L 96.67014 27.794211 
L 96.996314 27.724829 
L 97.322556 28.320981 
L 97.648797 28.616476 
L 98.301213 27.450261 
L 98.953629 27.081893 
L 99.27987 27.298457 
L 99.606112 27.97663 
L 100.258528 28.13415 
L 100.584769 28.307746 
L 100.910943 28.023306 
L 101.563427 27.150317 
L 102.215842 27.794751 
L 103.520741 27.803139 
L 104.499399 27.763674 
L 104.82564 27.612326 
L 105.151814 27.66505 
L 105.478056 27.882488 
L 105.804298 27.756495 
L 106.130472 27.798802 
L 106.456713 27.676611 
L 106.782955 27.776405 
L 107.109129 28.166179 
L 107.435371 27.926257 
L 107.761612 27.303559 
L 108.087854 27.436055 
L 108.414028 27.998102 
L 108.74027 27.78374 
L 109.066511 27.80927 
L 109.392685 28.511271 
L 109.718927 28.662313 
L 110.045169 28.10494 
L 111.023826 27.253075 
L 111.35 28.109723 
L 111.676242 28.594327 
L 112.002483 27.765733 
L 112.328657 27.395304 
L 112.654899 27.583233 
L 113.307382 27.576503 
L 113.633556 28.025967 
L 113.959798 28.665185 
L 114.612214 28.115251 
L 114.938455 28.24298 
L 115.264697 27.912725 
L 115.590871 28.05489 
L 115.917113 28.415394 
L 116.243354 28.26063 
L 116.89577 27.485971 
L 117.222012 27.520922 
L 117.548186 27.970977 
L 117.874428 27.780463 
L 118.200669 27.428887 
L 118.526843 27.843074 
L 118.853085 28.03892 
L 119.505568 27.127823 
L 119.831742 27.191028 
L 120.484226 27.667814 
L 121.136641 28.609312 
L 121.462883 28.0886 
L 121.789057 27.839697 
L 122.115299 28.292013 
L 122.44154 27.938981 
L 122.767714 26.930882 
L 123.093956 26.674061 
L 123.746372 27.308463 
L 124.072613 27.254963 
L 124.398855 27.047375 
L 125.051271 27.601368 
L 126.029928 27.588209 
L 126.35617 27.801767 
L 126.682411 28.519735 
L 127.008585 28.833177 
L 127.661069 28.196406 
L 127.987243 28.219557 
L 128.639726 27.080967 
L 128.9659 27.815844 
L 129.292142 28.207059 
L 129.618383 27.653425 
L 129.944557 27.836849 
L 130.270799 28.517575 
L 130.597041 28.768772 
L 130.923282 28.214697 
L 131.249456 27.395709 
L 131.575698 27.453355 
L 131.90194 28.30533 
L 132.228114 28.674106 
L 132.880597 27.274985 
L 133.206771 27.564732 
L 133.859254 29.335564 
L 134.185428 29.700147 
L 134.51167 28.815719 
L 134.837912 27.39082 
L 135.164086 26.892635 
L 135.816569 28.000049 
L 136.142811 27.823547 
L 136.468985 27.382104 
L 137.447642 28.089581 
L 137.773884 27.597505 
L 138.100125 26.822588 
L 138.4263 26.988677 
L 139.078783 28.096988 
L 139.404957 28.012192 
L 139.731199 27.37977 
L 140.383614 28.075637 
L 140.709856 27.432179 
L 141.036098 27.246683 
L 141.362339 27.540628 
L 142.014755 27.323135 
L 142.340997 27.115883 
L 142.667171 27.337996 
L 143.319654 28.558624 
L 143.97207 28.4837 
L 144.298311 28.820161 
L 144.624485 28.533946 
L 145.603143 27.10627 
L 146.255626 27.542943 
L 146.5818 27.285349 
L 146.908042 27.242479 
L 147.886699 27.618576 
L 148.212941 27.618756 
L 148.539182 27.261122 
L 148.865356 27.218442 
L 149.191598 28.01676 
L 149.51784 28.095849 
L 149.844014 27.430664 
L 150.170255 27.416831 
L 150.822671 27.561132 
L 151.801328 29.53161 
L 152.12757 31.389784 
L 152.453812 31.086615 
L 152.780053 28.682936 
L 153.106227 27.58191 
L 153.432469 27.697648 
L 154.084885 27.038253 
L 154.737368 27.069711 
L 155.716025 28.205123 
L 156.368441 27.786191 
L 157.67334 27.453587 
L 158.325756 28.606321 
L 158.651997 27.932084 
L 158.978239 26.982358 
L 159.304413 27.124134 
L 159.630655 27.777696 
L 160.283071 27.367322 
L 161.58797 28.458383 
L 161.914211 28.267934 
L 162.240385 27.930854 
L 162.566627 27.966027 
L 162.892869 27.618389 
L 163.219043 27.449766 
L 163.545284 27.886002 
L 163.871526 27.796286 
L 164.850183 27.080359 
L 165.176425 27.194973 
L 165.502599 27.427766 
L 165.828841 27.342163 
L 166.481256 27.994304 
L 167.13374 27.945456 
L 167.459914 27.992756 
L 167.786155 27.549905 
L 168.112397 27.404176 
L 168.438571 28.614811 
L 168.764813 30.473263 
L 169.091054 30.084513 
L 169.417228 28.897856 
L 170.069712 37.303324 
L 170.722127 28.811364 
L 171.048369 27.524897 
L 171.700785 26.923777 
L 172.027026 26.746661 
L 172.679442 26.764488 
L 173.331925 27.515763 
L 173.658099 27.524569 
L 174.310583 27.756876 
L 174.636757 27.644017 
L 174.962998 27.753047 
L 175.28924 27.994513 
L 175.615482 27.84954 
L 175.941656 27.228673 
L 176.267897 27.155376 
L 176.920313 27.649544 
L 177.246555 27.719616 
L 177.572796 27.456983 
L 177.89897 27.376961 
L 178.551454 27.936557 
L 179.203869 27.748781 
L 179.530111 27.780366 
L 180.508768 27.543311 
L 181.161184 27.79055 
L 181.813667 28.009947 
L 182.466083 27.879488 
L 182.792325 27.716177 
L 183.444741 27.64073 
L 183.770982 27.345701 
L 185.402055 27.817319 
L 185.728297 28.869288 
L 186.054471 32.927467 
L 186.380713 34.591877 
L 186.706954 31.443438 
L 187.033196 36.05705 
L 187.35937 48.668884 
L 187.685612 46.791529 
L 188.011853 32.822561 
L 188.338027 26.969817 
L 189.642926 28.104491 
L 189.969168 28.056193 
L 190.295342 28.240388 
L 190.621584 28.091628 
L 191.600241 27.082152 
L 191.926483 27.053998 
L 192.252657 27.444155 
L 192.578898 27.576242 
L 192.90514 27.292767 
L 193.557556 28.044764 
L 194.210039 26.375385 
L 195.51487 27.06166 
L 195.841112 26.933583 
L 196.167354 27.176976 
L 196.819769 27.901472 
L 197.146011 27.727724 
L 197.472185 27.317132 
L 197.798427 27.174278 
L 198.124668 27.216861 
L 198.45091 27.119248 
L 198.777084 26.502125 
L 199.103326 26.274449 
L 199.755741 27.037647 
L 200.408225 27.559094 
L 200.734399 27.604489 
L 201.06064 28.025285 
L 201.386882 28.25613 
L 202.039298 27.572025 
L 202.365539 27.49455 
L 202.691713 29.005846 
L 203.344197 43.898309 
L 203.670371 38.105875 
L 203.996612 37.423646 
L 204.322854 62.471055 
L 204.649096 76.106699 
L 205.301512 30.483926 
L 205.627753 27.841119 
L 205.953927 27.331074 
L 206.280169 27.457913 
L 206.606411 27.913826 
L 206.932585 27.757604 
L 207.258826 27.797935 
L 207.585068 27.59818 
L 207.911242 26.96504 
L 208.237484 26.689309 
L 208.563725 26.899758 
L 208.889899 27.245647 
L 209.216141 27.200894 
L 209.868624 26.275689 
L 210.194798 26.533135 
L 210.52104 27.555676 
L 210.847282 27.611308 
L 211.173456 26.80738 
L 211.499697 26.718438 
L 211.825939 26.915062 
L 212.152113 26.609991 
L 212.478355 26.504631 
L 212.804596 26.867399 
L 213.457012 27.913196 
L 213.783254 27.955763 
L 214.435669 27.230759 
L 214.761911 27.196874 
L 215.088085 27.015928 
L 215.414327 27.052974 
L 215.740568 27.476254 
L 216.392984 27.814142 
L 217.045467 27.919086 
L 217.371641 27.415103 
L 217.697883 26.535449 
L 218.024125 26.267846 
L 218.67654 27.043023 
L 219.002782 27.670865 
L 219.328956 29.014862 
L 219.655198 39.495358 
L 219.981439 56.392771 
L 220.307613 53.412249 
L 220.633855 41.507695 
L 220.960097 71.19707 
L 221.286338 115.258639 
L 221.612512 93.422713 
L 221.938754 42.691099 
L 222.264996 28.332261 
L 222.59117 29.053923 
L 223.569827 26.34055 
L 223.896069 26.637838 
L 224.22231 27.357507 
L 224.548484 27.597689 
L 224.874726 27.411982 
L 225.200968 27.580419 
L 225.527142 27.920415 
L 225.853383 27.866481 
L 226.179625 27.357701 
L 226.832041 26.954188 
L 227.158283 26.536827 
L 227.810698 27.152817 
L 228.13694 26.686645 
L 228.463182 26.77426 
L 228.789356 27.304679 
L 229.441839 26.419429 
L 230.094255 26.43895 
L 230.420496 26.935571 
L 230.74667 26.994546 
L 231.399154 25.838972 
L 231.725328 26.206173 
L 232.051569 26.933847 
L 232.704053 26.243075 
L 233.356468 26.379622 
L 234.008884 26.868412 
L 234.661367 27.434978 
L 234.987541 27.006147 
L 235.313783 27.268176 
L 235.640025 29.366341 
L 235.966199 42.930583 
L 236.29244 70.992056 
L 236.618682 75.042487 
L 236.944856 50.848604 
L 237.271098 75.684966 
L 237.597339 154.955195 
L 237.923513 156.955613 
L 238.249755 73.731125 
L 238.575997 29.97141 
L 238.902238 28.138316 
L 239.228412 27.085891 
L 239.880896 26.907251 
L 240.20707 27.025633 
L 241.185727 26.313059 
L 241.511969 26.691299 
L 241.83821 27.351559 
L 242.164384 27.069873 
L 242.490626 26.243343 
L 242.816868 25.90247 
L 243.143042 25.782351 
L 243.795525 26.508282 
L 244.447941 26.230749 
L 244.774182 26.050682 
L 246.079081 27.819325 
L 246.405255 28.005398 
L 247.057739 26.649536 
L 247.710154 26.556567 
L 248.036396 26.201013 
L 248.36257 26.080864 
L 248.688812 26.457446 
L 249.015054 26.600854 
L 249.341228 26.486167 
L 249.667469 26.095629 
L 249.993711 25.916066 
L 251.29861 27.393535 
L 251.624784 29.538519 
L 251.951026 46.521099 
L 252.277267 86.403894 
L 252.603441 98.873172 
L 252.929683 64.529967 
L 253.255925 81.38638 
L 253.582099 190.337789 
L 253.90834 225.80631 
L 254.560756 37.088134 
L 254.886998 28.384947 
L 255.213239 27.269435 
L 255.539481 26.970798 
L 255.865655 27.073676 
L 256.191897 26.418388 
L 256.518138 26.50051 
L 256.844312 26.75441 
L 257.170554 26.220828 
L 257.496796 26.101939 
L 257.82297 26.390393 
L 258.475453 26.009342 
L 258.801627 26.266372 
L 259.127869 25.935324 
L 259.45411 25.774738 
L 259.780284 26.575382 
L 260.106526 26.948731 
L 260.759009 26.420509 
L 261.085183 26.427801 
L 261.411425 26.701881 
L 261.737667 26.816896 
L 262.390082 26.84529 
L 263.042498 25.61845 
L 263.36874 25.664749 
L 263.694981 26.13543 
L 264.347397 26.08511 
L 264.673639 26.004499 
L 264.999813 25.679553 
L 265.326054 25.586377 
L 265.652296 25.660749 
L 265.97847 26.139066 
L 266.304712 26.295131 
L 266.630953 26.04332 
L 266.957195 26.56124 
L 267.283369 29.409417 
L 267.609611 51.75788 
L 267.935852 103.072107 
L 268.262026 119.508079 
L 268.588268 76.757173 
L 268.91451 91.797681 
L 269.240684 223.932917 
L 269.566925 283.093672 
L 270.219341 45.842219 
L 270.545583 29.516407 
L 270.871825 29.001856 
L 271.197999 27.450609 
L 271.52424 27.009471 
L 271.850482 26.966014 
L 272.176724 26.743798 
L 272.502898 26.950874 
L 272.829139 26.835466 
L 273.155381 25.939244 
L 273.481555 25.933099 
L 273.807797 26.365883 
L 274.134038 26.510926 
L 274.786454 26.183841 
L 275.43887 26.306511 
L 275.765111 26.212218 
L 276.091353 26.287136 
L 276.743769 25.956435 
L 277.07001 26.080231 
L 277.722426 25.84651 
L 278.048668 26.004214 
L 278.701083 25.995542 
L 279.353567 26.550955 
L 279.679741 26.153304 
L 280.005982 25.473704 
L 280.658398 26.153357 
L 280.98464 25.977696 
L 281.310881 26.218429 
L 281.637055 26.231609 
L 281.963297 26.375289 
L 282.289539 27.948689 
L 282.615713 32.551639 
L 282.941954 60.911136 
L 283.268196 115.657619 
L 283.594438 122.461934 
L 283.920612 74.732601 
L 284.246853 104.982159 
L 284.573095 251.708338 
L 284.899269 299.788637 
L 285.551752 45.470649 
L 285.877926 30.183125 
L 286.204168 28.187958 
L 286.53041 27.188933 
L 286.856584 26.723989 
L 287.182825 25.844388 
L 288.813898 24.878147 
L 289.14014 24.841377 
L 289.792623 25.287898 
L 290.118797 25.352135 
L 290.445039 25.163445 
L 290.771281 25.401641 
L 291.097455 25.00741 
L 291.423696 23.826834 
L 291.749938 23.803041 
L 292.402354 24.603003 
L 292.728596 24.71489 
L 293.381011 23.96623 
L 294.033427 24.842871 
L 294.359669 24.578228 
L 295.012152 24.885268 
L 295.664568 24.732568 
L 295.990809 24.781764 
L 296.316983 25.148077 
L 297.295641 28.120691 
L 297.621882 36.489957 
L 298.274298 115.759462 
L 298.60054 99.921447 
L 298.926781 65.006949 
L 299.252955 128.581539 
L 299.579197 260.045877 
L 299.905439 254.190435 
L 300.231613 115.48511 
L 300.557854 41.507115 
L 300.884096 35.849402 
L 301.210338 34.263398 
L 301.536512 35.092357 
L 303.167652 42.338513 
L 303.820068 43.617986 
L 304.472484 42.636049 
L 304.798725 42.705269 
L 305.777383 40.995553 
L 306.429866 39.259794 
L 306.75604 38.921592 
L 307.082282 38.415181 
L 307.734697 36.496721 
L 308.387181 36.234318 
L 308.713355 35.651739 
L 309.365838 33.697915 
L 310.344495 32.830653 
L 310.996911 31.445214 
L 311.323153 31.081828 
L 311.649327 31.078598 
L 311.975568 32.859651 
L 312.30181 45.614496 
L 312.628052 73.154125 
L 312.954226 81.031603 
L 313.280467 56.972449 
L 313.606709 59.682018 
L 314.259125 186.298106 
L 314.585367 129.252812 
L 314.911541 50.142598 
L 315.237782 29.834285 
L 316.542681 27.465775 
L 317.195097 28.120325 
L 317.521339 28.043094 
L 317.84758 27.381795 
L 318.173754 26.307685 
L 318.499996 26.172934 
L 318.826238 27.24901 
L 319.152412 27.595881 
L 319.804895 25.999892 
L 320.457311 27.088925 
L 321.109726 26.289639 
L 321.435968 26.464585 
L 321.76221 26.812096 
L 322.414625 25.80096 
L 322.740867 25.847901 
L 323.067041 25.35376 
L 323.393283 25.216415 
L 324.37194 26.562998 
L 325.024423 26.901973 
L 325.350597 26.505977 
L 325.676839 25.445252 
L 326.003081 25.426563 
L 326.329255 26.091901 
L 326.655496 26.389053 
L 326.981738 26.285704 
L 327.307912 25.967841 
L 327.634154 26.229814 
L 327.960395 26.796019 
L 328.286569 26.997229 
L 328.612811 26.804782 
L 329.265294 26.827659 
L 329.91771 25.769461 
L 330.243952 25.841403 
L 330.896367 26.865451 
L 331.222609 26.948095 
L 331.548783 26.25432 
L 331.875025 25.965116 
L 332.201266 26.52431 
L 332.52744 25.938782 
L 332.853682 25.010246 
L 334.158581 26.643959 
L 334.484755 26.161034 
L 334.810997 25.991249 
L 335.137238 26.328121 
L 335.46348 26.055448 
L 335.789654 25.116285 
L 336.115896 24.820701 
L 336.442138 25.283573 
L 336.768312 25.324394 
L 337.420795 24.667701 
L 338.073211 25.216334 
L 338.725626 25.836827 
L 339.37811 26.340957 
L 339.704284 27.298521 
L 340.030525 36.786163 
L 340.356767 64.860213 
L 340.683009 82.793033 
L 341.335424 48.269172 
L 341.661666 101.934626 
L 341.98784 183.060818 
L 342.314082 164.292478 
L 342.640323 71.438305 
L 342.966497 29.499795 
L 343.618981 26.056384 
L 343.945155 25.721637 
L 344.271396 25.764458 
L 344.597638 26.328348 
L 344.923812 27.270551 
L 345.576295 28.155122 
L 346.228711 30.289349 
L 346.554953 31.329112 
L 347.859852 37.216401 
L 348.186026 37.791003 
L 349.490925 41.135106 
L 349.817166 41.540085 
L 350.469582 42.651747 
L 350.795824 42.575367 
L 351.121998 42.097002 
L 351.448239 41.864654 
L 351.774481 41.477809 
L 352.100723 41.308905 
L 352.753138 41.382613 
L 353.07938 45.894889 
L 353.405554 73.342515 
L 353.731796 125.243001 
L 354.058037 133.780077 
L 354.384211 85.652524 
L 354.710453 85.625034 
L 355.362869 314.552273 
L 355.68911 231.832387 
L 356.015352 85.934538 
L 356.341526 41.788489 
L 356.667768 39.815014 
L 356.994009 36.867424 
L 357.646425 34.839804 
L 357.972667 34.162682 
L 358.625083 30.981285 
L 358.951324 30.56934 
L 359.277566 30.929369 
L 359.60374 30.353863 
L 360.256223 28.154631 
L 361.234881 26.764345 
L 361.887296 25.275859 
L 362.865954 24.079356 
L 363.518437 24.287995 
L 363.844611 24.437595 
L 364.497094 22.932959 
L 365.14951 23.225569 
L 365.475752 23.557168 
L 365.801926 26.005552 
L 366.128167 43.836373 
L 366.780583 143.151865 
L 367.433066 58.100349 
L 367.75924 140.02253 
L 368.085482 308.718616 
L 368.411724 318.011574 
L 368.737898 142.608091 
L 369.064139 36.750458 
L 369.390381 26.407339 
L 369.716623 23.256739 
L 370.042797 22.402628 
L 370.369038 22.32 
L 370.69528 22.765037 
L 371.021454 22.810503 
L 371.347696 22.588474 
L 372.000111 23.334212 
L 372.978769 24.791783 
L 373.631252 25.494421 
L 374.609909 24.783345 
L 374.936151 24.914425 
L 375.914808 27.073977 
L 377.545881 28.485747 
L 377.872123 28.490225 
L 378.198297 30.520862 
L 378.524539 46.891663 
L 379.176954 146.223175 
L 379.829438 61.862918 
L 380.155679 127.891537 
L 380.481854 291.658989 
L 380.808095 324.72 
L 381.460511 45.460971 
L 381.786753 31.674316 
L 382.112994 29.798089 
L 383.091652 27.091877 
L 384.070309 27.010288 
L 385.048966 24.388588 
L 385.37514 23.294219 
L 385.701382 24.1252 
L 386.027624 25.457011 
L 386.680039 24.64814 
L 387.006281 24.840304 
L 387.658697 24.166376 
L 387.984938 23.980099 
L 388.637354 24.739235 
L 388.963596 24.385837 
L 389.289837 24.425504 
L 389.942253 26.336186 
L 390.268495 28.508327 
L 390.594669 50.080058 
L 390.92091 101.468734 
L 391.247152 118.866107 
L 391.573394 71.765555 
L 391.899568 50.313646 
L 392.225809 138.4303 
L 392.552051 272.002942 
L 392.878225 246.233136 
L 393.204467 97.19221 
L 393.530708 30.308202 
L 394.183124 25.756046 
L 394.509366 26.068011 
L 394.83554 25.549887 
L 395.161781 25.282118 
L 395.488023 25.289514 
L 396.46668 26.058969 
L 397.119096 25.171336 
L 397.445338 25.695484 
L 397.771579 25.864074 
L 398.097753 25.054421 
L 398.423995 24.687197 
L 399.402652 26.008031 
L 399.728894 26.248217 
L 400.055068 26.287201 
L 400.38131 25.813823 
L 401.033725 25.638876 
L 401.359967 24.964391 
L 401.686209 25.803862 
L 402.012383 36.25219 
L 402.664866 96.758744 
L 403.317282 40.572069 
L 403.643524 76.674686 
L 403.969765 181.186312 
L 404.295939 214.974404 
L 404.948423 36.019196 
L 405.274597 27.036426 
L 405.600838 26.948279 
L 405.92708 27.080311 
L 406.253254 27.060235 
L 406.579496 26.222334 
L 406.905737 26.144619 
L 407.231911 26.759004 
L 407.558153 26.995435 
L 407.884395 26.367163 
L 408.210569 25.994198 
L 408.53681 26.617243 
L 408.863052 26.493528 
L 409.189294 25.683867 
L 410.167951 25.305041 
L 411.146608 26.147222 
L 411.472782 26.939187 
L 411.799024 27.149668 
L 412.45144 26.753728 
L 412.777681 27.586233 
L 413.103923 35.392237 
L 413.430097 58.338104 
L 413.756339 72.988319 
L 414.408822 34.521067 
L 414.734996 62.192435 
L 415.061238 131.013042 
L 415.387479 148.016705 
L 416.039895 30.89963 
L 416.366137 26.592991 
L 416.692311 27.024048 
L 417.018552 26.928716 
L 417.670968 27.874654 
L 418.323451 26.327605 
L 418.975867 26.82811 
L 419.954524 26.665275 
L 420.280766 26.451677 
L 420.607008 26.856189 
L 420.933182 27.499485 
L 421.259423 27.118346 
L 421.585665 26.542989 
L 422.238081 27.182198 
L 422.890496 26.375495 
L 423.216738 26.919095 
L 423.54298 29.233208 
L 423.869154 37.923433 
L 424.195396 51.060996 
L 424.521637 48.810221 
L 424.847811 34.012474 
L 425.174053 34.608818 
L 425.826536 99.468424 
L 426.15271 80.810283 
L 426.478952 38.593988 
L 426.805194 25.498767 
L 427.131368 26.161933 
L 427.457609 26.312274 
L 427.783851 27.012537 
L 428.110025 27.035235 
L 428.762508 25.999615 
L 429.088682 26.311783 
L 429.414924 27.195131 
L 429.741166 26.817459 
L 430.06734 25.987508 
L 430.719823 26.814146 
L 431.045997 26.921303 
L 431.372239 27.581865 
L 431.69848 27.822527 
L 432.024722 27.786483 
L 432.350896 28.203802 
L 433.003379 27.539498 
L 433.655795 28.531801 
L 433.982037 32.286672 
L 434.308211 38.606531 
L 434.634452 37.063628 
L 434.960694 29.708491 
L 435.286868 30.107306 
L 435.939351 65.02055 
L 436.265525 55.998793 
L 436.591767 33.471086 
L 436.918009 26.498529 
L 437.24425 27.60557 
L 437.570424 27.427208 
L 437.896666 26.886682 
L 438.222908 26.867861 
L 438.549082 27.499558 
L 438.875323 27.743993 
L 439.527739 26.799073 
L 439.853981 27.180668 
L 440.180222 27.103403 
L 440.506396 26.599485 
L 440.832638 27.089588 
L 441.15888 28.047683 
L 441.485054 28.124687 
L 441.811295 27.356401 
L 442.137537 27.052576 
L 442.463711 27.127344 
L 442.789953 26.668202 
L 443.116194 27.052898 
L 443.442436 28.496175 
L 444.094852 32.916063 
L 444.747267 28.31583 
L 445.073509 31.402387 
L 445.399751 40.425211 
L 445.725925 43.86508 
L 446.378408 26.949891 
L 446.704582 26.452015 
L 447.030824 27.596217 
L 447.357066 28.213929 
L 447.68324 28.115504 
L 448.009481 27.880674 
L 448.661965 28.447568 
L 449.31438 27.685286 
L 449.640622 27.64534 
L 449.966796 27.787541 
L 450.293038 28.530585 
L 450.619279 28.661365 
L 450.945453 28.29798 
L 451.271695 28.535463 
L 451.597937 28.468456 
L 451.924111 27.266748 
L 452.250352 26.723182 
L 452.902768 29.993793 
L 453.22901 29.950356 
L 453.555251 28.822365 
L 453.881425 28.098492 
L 454.207667 29.124267 
L 454.533909 33.263112 
L 454.86015 35.934532 
L 455.512566 27.027029 
L 455.838808 26.902924 
L 456.164982 27.601636 
L 456.491223 27.970885 
L 456.817465 27.706499 
L 457.143639 26.779854 
L 457.469881 27.313011 
L 457.796122 28.393458 
L 458.122296 28.385824 
L 458.448538 28.614168 
L 458.77478 28.187447 
L 459.100954 26.919588 
L 459.427195 26.96844 
L 459.753437 27.528851 
L 460.079679 27.674002 
L 460.732094 27.3663 
L 461.38451 28.231939 
L 461.710752 28.616334 
L 462.036993 28.302862 
L 462.363167 27.724538 
L 462.689409 28.584749 
L 463.341825 31.09957 
L 463.668066 30.814646 
L 463.994308 29.066125 
L 464.646724 27.369146 
L 464.972965 27.549523 
L 465.299139 28.177248 
L 465.951623 27.582723 
L 466.277864 28.149735 
L 466.93028 28.804379 
L 467.256522 29.38227 
L 467.582696 29.577309 
L 467.908937 29.622097 
L 468.235179 29.169517 
L 468.561353 28.405646 
L 468.887595 28.010396 
L 469.213837 27.894299 
L 469.540011 28.272058 
L 469.866252 28.964739 
L 470.192494 28.583871 
L 470.518668 27.029246 
L 470.84491 26.548162 
L 471.497393 28.659883 
L 471.823567 28.325471 
L 472.149809 28.391846 
L 472.47605 28.651456 
L 472.802224 28.241882 
L 473.128466 28.233101 
L 473.128466 28.233101 
" clip-path="url(#pa76694c3b5)" style="fill: none; stroke: #1f77b4; stroke-width: 0.7; stroke-linecap: square"/>
   </g>
   <g id="patch_3">
    <path d="M 47.019375 339.84 
L 47.019375 7.2 
" style="fill: none; stroke: #000000; stroke-width: 0.8; stroke-linejoin: miter; stroke-linecap: square"/>
   </g>
   <g id="patch_4">
    <path d="M 493.419375 339.84 
L 493.419375 7.2 
" style="fill: none; stroke: #000000; stroke-width: 0.8; stroke-linejoin: miter; stroke-linecap: square"/>
   </g>
   <g id="patch_5">
    <path d="M 47.019375 339.84 
L 493.419375 339.84 
" style="fill: none; stroke: #000000; stroke-width: 0.8; stroke-linejoin: miter; stroke-linecap: square"/>
   </g>
   <g id="patch_6">
    <path d="M 47.019375 7.2 
L 493.419375 7.2 
" style="fill: none; stroke: #000000; stroke-width: 0.8; stroke-linejoin: miter; stroke-linecap: square"/>
   </g>
  </g>
 </g>
 <defs>
  <clipPath id="pa76694c3b5">
   <rect x="47.019375" y="7.2" width="446.4" height="332.64"/>
  </clipPath>
 </defs>
</svg>
