<?xml version="1.0" encoding="utf-8" standalone="no"?>
<!DOCTYPE svg PUBLIC "-//W3C//DTD SVG 1.1//EN"
  "http://www.w3.org/Graphics/SVG/1.1/DTD/svg11.dtd">
<svg xmlns:xlink="http://www.w3.org/1999/xlink" width="500.619375pt" height="384.21375pt" viewBox="0 0 500.619375 384.21375" xmlns="http://www.w3.org/2000/svg" version="1.1">
 <metadata>
  <rdf:RDF xmlns:dc="http://purl.org/dc/elements/1.1/" xmlns:cc="http://creativecommons.org/ns#" xmlns:rdf="http://www.w3.org/1999/02/22-rdf-syntax-ns#">
   <cc:Work>
    <dc:type rdf:resource="http://purl.org/dc/dcmitype/StillImage"/>
    <dc:date>2024-04-27T13:39:54.454509</dc:date>
    <dc:format>image/svg+xml</dc:format>
    <dc:creator>
     <cc:Agent>
      <dc:title>Matplotlib v3.5.0, https://matplotlib.org/</dc:title>
     </cc:Agent>
    </dc:creator>
   </cc:Work>
  </rdf:RDF>
 </metadata>
 <defs>
  <style type="text/css">*{stroke-linejoin: round; stroke-linecap: butt}</style>
 </defs>
 <g id="figure_1">
  <g id="patch_1">
   <path d="M 0 384.21375 
L 500.619375 384.21375 
L 500.619375 0 
L 0 0 
z
" style="fill: #ffffff"/>
  </g>
  <g id="axes_1">
   <g id="patch_2">
    <path d="M 47.019375 339.84 
L 493.419375 339.84 
L 493.419375 7.2 
L 47.019375 7.2 
z
" style="fill: #ffffff"/>
   </g>
   <g id="matplotlib.axis_1">
    <g id="xtick_1">
     <g id="line2d_1">
      <defs>
       <path id="me857c1d495" d="M 0 0 
L 0 3.5 
" style="stroke: #000000; stroke-width: 0.8"/>
      </defs>
      <g>
       <use xlink:href="#me857c1d495" x="67.280447" y="339.84" style="stroke: #000000; stroke-width: 0.8"/>
      </g>
     </g>
     <g id="text_1">
      <!-- 2500 -->
      <g transform="translate(52.010447 355.958125)scale(0.12 -0.12)">
       <defs>
        <path id="DejaVuSans-32" d="M 1228 531 
L 3431 531 
L 3431 0 
L 469 0 
L 469 531 
Q 828 903 1448 1529 
Q 2069 2156 2228 2338 
Q 2531 2678 2651 2914 
Q 2772 3150 2772 3378 
Q 2772 3750 2511 3984 
Q 2250 4219 1831 4219 
Q 1534 4219 1204 4116 
Q 875 4013 500 3803 
L 500 4441 
Q 881 4594 1212 4672 
Q 1544 4750 1819 4750 
Q 2544 4750 2975 4387 
Q 3406 4025 3406 3419 
Q 3406 3131 3298 2873 
Q 3191 2616 2906 2266 
Q 2828 2175 2409 1742 
Q 1991 1309 1228 531 
z
" transform="scale(0.015625)"/>
        <path id="DejaVuSans-35" d="M 691 4666 
L 3169 4666 
L 3169 4134 
L 1269 4134 
L 1269 2991 
Q 1406 3038 1543 3061 
Q 1681 3084 1819 3084 
Q 2600 3084 3056 2656 
Q 3513 2228 3513 1497 
Q 3513 744 3044 326 
Q 2575 -91 1722 -91 
Q 1428 -91 1123 -41 
Q 819 9 494 109 
L 494 744 
Q 775 591 1075 516 
Q 1375 441 1709 441 
Q 2250 441 2565 725 
Q 2881 1009 2881 1497 
Q 2881 1984 2565 2268 
Q 2250 2553 1709 2553 
Q 1456 2553 1204 2497 
Q 953 2441 691 2322 
L 691 4666 
z
" transform="scale(0.015625)"/>
        <path id="DejaVuSans-30" d="M 2034 4250 
Q 1547 4250 1301 3770 
Q 1056 3291 1056 2328 
Q 1056 1369 1301 889 
Q 1547 409 2034 409 
Q 2525 409 2770 889 
Q 3016 1369 3016 2328 
Q 3016 3291 2770 3770 
Q 2525 4250 2034 4250 
z
M 2034 4750 
Q 2819 4750 3233 4129 
Q 3647 3509 3647 2328 
Q 3647 1150 3233 529 
Q 2819 -91 2034 -91 
Q 1250 -91 836 529 
Q 422 1150 422 2328 
Q 422 3509 836 4129 
Q 1250 4750 2034 4750 
z
" transform="scale(0.015625)"/>
       </defs>
       <use xlink:href="#DejaVuSans-32"/>
       <use xlink:href="#DejaVuSans-35" x="63.623047"/>
       <use xlink:href="#DejaVuSans-30" x="127.246094"/>
       <use xlink:href="#DejaVuSans-30" x="190.869141"/>
      </g>
     </g>
    </g>
    <g id="xtick_2">
     <g id="line2d_2">
      <g>
       <use xlink:href="#me857c1d495" x="134.937367" y="339.84" style="stroke: #000000; stroke-width: 0.8"/>
      </g>
     </g>
     <g id="text_2">
      <!-- 2600 -->
      <g transform="translate(119.667367 355.958125)scale(0.12 -0.12)">
       <defs>
        <path id="DejaVuSans-36" d="M 2113 2584 
Q 1688 2584 1439 2293 
Q 1191 2003 1191 1497 
Q 1191 994 1439 701 
Q 1688 409 2113 409 
Q 2538 409 2786 701 
Q 3034 994 3034 1497 
Q 3034 2003 2786 2293 
Q 2538 2584 2113 2584 
z
M 3366 4563 
L 3366 3988 
Q 3128 4100 2886 4159 
Q 2644 4219 2406 4219 
Q 1781 4219 1451 3797 
Q 1122 3375 1075 2522 
Q 1259 2794 1537 2939 
Q 1816 3084 2150 3084 
Q 2853 3084 3261 2657 
Q 3669 2231 3669 1497 
Q 3669 778 3244 343 
Q 2819 -91 2113 -91 
Q 1303 -91 875 529 
Q 447 1150 447 2328 
Q 447 3434 972 4092 
Q 1497 4750 2381 4750 
Q 2619 4750 2861 4703 
Q 3103 4656 3366 4563 
z
" transform="scale(0.015625)"/>
       </defs>
       <use xlink:href="#DejaVuSans-32"/>
       <use xlink:href="#DejaVuSans-36" x="63.623047"/>
       <use xlink:href="#DejaVuSans-30" x="127.246094"/>
       <use xlink:href="#DejaVuSans-30" x="190.869141"/>
      </g>
     </g>
    </g>
    <g id="xtick_3">
     <g id="line2d_3">
      <g>
       <use xlink:href="#me857c1d495" x="202.594288" y="339.84" style="stroke: #000000; stroke-width: 0.8"/>
      </g>
     </g>
     <g id="text_3">
      <!-- 2700 -->
      <g transform="translate(187.324288 355.958125)scale(0.12 -0.12)">
       <defs>
        <path id="DejaVuSans-37" d="M 525 4666 
L 3525 4666 
L 3525 4397 
L 1831 0 
L 1172 0 
L 2766 4134 
L 525 4134 
L 525 4666 
z
" transform="scale(0.015625)"/>
       </defs>
       <use xlink:href="#DejaVuSans-32"/>
       <use xlink:href="#DejaVuSans-37" x="63.623047"/>
       <use xlink:href="#DejaVuSans-30" x="127.246094"/>
       <use xlink:href="#DejaVuSans-30" x="190.869141"/>
      </g>
     </g>
    </g>
    <g id="xtick_4">
     <g id="line2d_4">
      <g>
       <use xlink:href="#me857c1d495" x="270.251208" y="339.84" style="stroke: #000000; stroke-width: 0.8"/>
      </g>
     </g>
     <g id="text_4">
      <!-- 2800 -->
      <g transform="translate(254.981208 355.958125)scale(0.12 -0.12)">
       <defs>
        <path id="DejaVuSans-38" d="M 2034 2216 
Q 1584 2216 1326 1975 
Q 1069 1734 1069 1313 
Q 1069 891 1326 650 
Q 1584 409 2034 409 
Q 2484 409 2743 651 
Q 3003 894 3003 1313 
Q 3003 1734 2745 1975 
Q 2488 2216 2034 2216 
z
M 1403 2484 
Q 997 2584 770 2862 
Q 544 3141 544 3541 
Q 544 4100 942 4425 
Q 1341 4750 2034 4750 
Q 2731 4750 3128 4425 
Q 3525 4100 3525 3541 
Q 3525 3141 3298 2862 
Q 3072 2584 2669 2484 
Q 3125 2378 3379 2068 
Q 3634 1759 3634 1313 
Q 3634 634 3220 271 
Q 2806 -91 2034 -91 
Q 1263 -91 848 271 
Q 434 634 434 1313 
Q 434 1759 690 2068 
Q 947 2378 1403 2484 
z
M 1172 3481 
Q 1172 3119 1398 2916 
Q 1625 2713 2034 2713 
Q 2441 2713 2670 2916 
Q 2900 3119 2900 3481 
Q 2900 3844 2670 4047 
Q 2441 4250 2034 4250 
Q 1625 4250 1398 4047 
Q 1172 3844 1172 3481 
z
" transform="scale(0.015625)"/>
       </defs>
       <use xlink:href="#DejaVuSans-32"/>
       <use xlink:href="#DejaVuSans-38" x="63.623047"/>
       <use xlink:href="#DejaVuSans-30" x="127.246094"/>
       <use xlink:href="#DejaVuSans-30" x="190.869141"/>
      </g>
     </g>
    </g>
    <g id="xtick_5">
     <g id="line2d_5">
      <g>
       <use xlink:href="#me857c1d495" x="337.908128" y="339.84" style="stroke: #000000; stroke-width: 0.8"/>
      </g>
     </g>
     <g id="text_5">
      <!-- 2900 -->
      <g transform="translate(322.638128 355.958125)scale(0.12 -0.12)">
       <defs>
        <path id="DejaVuSans-39" d="M 703 97 
L 703 672 
Q 941 559 1184 500 
Q 1428 441 1663 441 
Q 2288 441 2617 861 
Q 2947 1281 2994 2138 
Q 2813 1869 2534 1725 
Q 2256 1581 1919 1581 
Q 1219 1581 811 2004 
Q 403 2428 403 3163 
Q 403 3881 828 4315 
Q 1253 4750 1959 4750 
Q 2769 4750 3195 4129 
Q 3622 3509 3622 2328 
Q 3622 1225 3098 567 
Q 2575 -91 1691 -91 
Q 1453 -91 1209 -44 
Q 966 3 703 97 
z
M 1959 2075 
Q 2384 2075 2632 2365 
Q 2881 2656 2881 3163 
Q 2881 3666 2632 3958 
Q 2384 4250 1959 4250 
Q 1534 4250 1286 3958 
Q 1038 3666 1038 3163 
Q 1038 2656 1286 2365 
Q 1534 2075 1959 2075 
z
" transform="scale(0.015625)"/>
       </defs>
       <use xlink:href="#DejaVuSans-32"/>
       <use xlink:href="#DejaVuSans-39" x="63.623047"/>
       <use xlink:href="#DejaVuSans-30" x="127.246094"/>
       <use xlink:href="#DejaVuSans-30" x="190.869141"/>
      </g>
     </g>
    </g>
    <g id="xtick_6">
     <g id="line2d_6">
      <g>
       <use xlink:href="#me857c1d495" x="405.565048" y="339.84" style="stroke: #000000; stroke-width: 0.8"/>
      </g>
     </g>
     <g id="text_6">
      <!-- 3000 -->
      <g transform="translate(390.295048 355.958125)scale(0.12 -0.12)">
       <defs>
        <path id="DejaVuSans-33" d="M 2597 2516 
Q 3050 2419 3304 2112 
Q 3559 1806 3559 1356 
Q 3559 666 3084 287 
Q 2609 -91 1734 -91 
Q 1441 -91 1130 -33 
Q 819 25 488 141 
L 488 750 
Q 750 597 1062 519 
Q 1375 441 1716 441 
Q 2309 441 2620 675 
Q 2931 909 2931 1356 
Q 2931 1769 2642 2001 
Q 2353 2234 1838 2234 
L 1294 2234 
L 1294 2753 
L 1863 2753 
Q 2328 2753 2575 2939 
Q 2822 3125 2822 3475 
Q 2822 3834 2567 4026 
Q 2313 4219 1838 4219 
Q 1578 4219 1281 4162 
Q 984 4106 628 3988 
L 628 4550 
Q 988 4650 1302 4700 
Q 1616 4750 1894 4750 
Q 2613 4750 3031 4423 
Q 3450 4097 3450 3541 
Q 3450 3153 3228 2886 
Q 3006 2619 2597 2516 
z
" transform="scale(0.015625)"/>
       </defs>
       <use xlink:href="#DejaVuSans-33"/>
       <use xlink:href="#DejaVuSans-30" x="63.623047"/>
       <use xlink:href="#DejaVuSans-30" x="127.246094"/>
       <use xlink:href="#DejaVuSans-30" x="190.869141"/>
      </g>
     </g>
    </g>
    <g id="xtick_7">
     <g id="line2d_7">
      <g>
       <use xlink:href="#me857c1d495" x="473.221968" y="339.84" style="stroke: #000000; stroke-width: 0.8"/>
      </g>
     </g>
     <g id="text_7">
      <!-- 3100 -->
      <g transform="translate(457.951968 355.958125)scale(0.12 -0.12)">
       <defs>
        <path id="DejaVuSans-31" d="M 794 531 
L 1825 531 
L 1825 4091 
L 703 3866 
L 703 4441 
L 1819 4666 
L 2450 4666 
L 2450 531 
L 3481 531 
L 3481 0 
L 794 0 
L 794 531 
z
" transform="scale(0.015625)"/>
       </defs>
       <use xlink:href="#DejaVuSans-33"/>
       <use xlink:href="#DejaVuSans-31" x="63.623047"/>
       <use xlink:href="#DejaVuSans-30" x="127.246094"/>
       <use xlink:href="#DejaVuSans-30" x="190.869141"/>
      </g>
     </g>
    </g>
    <g id="text_8">
     <!-- $\sigma$ (cm$^{-1}$) -->
     <g transform="translate(239.909375 374.102188)scale(0.14 -0.14)">
      <defs>
       <path id="DejaVuSans-Oblique-3c3" d="M 2219 3044 
Q 1744 3044 1422 2700 
Q 1081 2341 969 1747 
Q 844 1119 1044 756 
Q 1241 397 1706 397 
Q 2166 397 2503 759 
Q 2844 1122 2966 1747 
Q 3075 2319 2881 2700 
Q 2700 3044 2219 3044 
z
M 2309 3503 
L 4219 3500 
L 4106 2925 
L 3463 2925 
Q 3706 2438 3575 1747 
Q 3406 888 2884 400 
Q 2359 -91 1609 -91 
Q 856 -91 525 400 
Q 194 888 363 1747 
Q 528 2609 1050 3097 
Q 1484 3503 2309 3503 
z
" transform="scale(0.015625)"/>
       <path id="DejaVuSans-20" transform="scale(0.015625)"/>
       <path id="DejaVuSans-28" d="M 1984 4856 
Q 1566 4138 1362 3434 
Q 1159 2731 1159 2009 
Q 1159 1288 1364 580 
Q 1569 -128 1984 -844 
L 1484 -844 
Q 1016 -109 783 600 
Q 550 1309 550 2009 
Q 550 2706 781 3412 
Q 1013 4119 1484 4856 
L 1984 4856 
z
" transform="scale(0.015625)"/>
       <path id="DejaVuSans-63" d="M 3122 3366 
L 3122 2828 
Q 2878 2963 2633 3030 
Q 2388 3097 2138 3097 
Q 1578 3097 1268 2742 
Q 959 2388 959 1747 
Q 959 1106 1268 751 
Q 1578 397 2138 397 
Q 2388 397 2633 464 
Q 2878 531 3122 666 
L 3122 134 
Q 2881 22 2623 -34 
Q 2366 -91 2075 -91 
Q 1284 -91 818 406 
Q 353 903 353 1747 
Q 353 2603 823 3093 
Q 1294 3584 2113 3584 
Q 2378 3584 2631 3529 
Q 2884 3475 3122 3366 
z
" transform="scale(0.015625)"/>
       <path id="DejaVuSans-6d" d="M 3328 2828 
Q 3544 3216 3844 3400 
Q 4144 3584 4550 3584 
Q 5097 3584 5394 3201 
Q 5691 2819 5691 2113 
L 5691 0 
L 5113 0 
L 5113 2094 
Q 5113 2597 4934 2840 
Q 4756 3084 4391 3084 
Q 3944 3084 3684 2787 
Q 3425 2491 3425 1978 
L 3425 0 
L 2847 0 
L 2847 2094 
Q 2847 2600 2669 2842 
Q 2491 3084 2119 3084 
Q 1678 3084 1418 2786 
Q 1159 2488 1159 1978 
L 1159 0 
L 581 0 
L 581 3500 
L 1159 3500 
L 1159 2956 
Q 1356 3278 1631 3431 
Q 1906 3584 2284 3584 
Q 2666 3584 2933 3390 
Q 3200 3197 3328 2828 
z
" transform="scale(0.015625)"/>
       <path id="DejaVuSans-2212" d="M 678 2272 
L 4684 2272 
L 4684 1741 
L 678 1741 
L 678 2272 
z
" transform="scale(0.015625)"/>
       <path id="DejaVuSans-29" d="M 513 4856 
L 1013 4856 
Q 1481 4119 1714 3412 
Q 1947 2706 1947 2009 
Q 1947 1309 1714 600 
Q 1481 -109 1013 -844 
L 513 -844 
Q 928 -128 1133 580 
Q 1338 1288 1338 2009 
Q 1338 2731 1133 3434 
Q 928 4138 513 4856 
z
" transform="scale(0.015625)"/>
      </defs>
      <use xlink:href="#DejaVuSans-Oblique-3c3" transform="translate(0 0.684375)"/>
      <use xlink:href="#DejaVuSans-20" transform="translate(63.378906 0.684375)"/>
      <use xlink:href="#DejaVuSans-28" transform="translate(95.166016 0.684375)"/>
      <use xlink:href="#DejaVuSans-63" transform="translate(134.179688 0.684375)"/>
      <use xlink:href="#DejaVuSans-6d" transform="translate(189.160156 0.684375)"/>
      <use xlink:href="#DejaVuSans-2212" transform="translate(287.529297 38.965625)scale(0.7)"/>
      <use xlink:href="#DejaVuSans-31" transform="translate(346.181641 38.965625)scale(0.7)"/>
      <use xlink:href="#DejaVuSans-29" transform="translate(393.452148 0.684375)"/>
     </g>
    </g>
   </g>
   <g id="matplotlib.axis_2">
    <g id="ytick_1">
     <g id="line2d_8">
      <defs>
       <path id="mc0e8822662" d="M 0 0 
L -3.5 0 
" style="stroke: #000000; stroke-width: 0.8"/>
      </defs>
      <g>
       <use xlink:href="#mc0e8822662" x="47.019375" y="332.125126" style="stroke: #000000; stroke-width: 0.8"/>
      </g>
     </g>
     <g id="text_9">
      <!-- 78 -->
      <g transform="translate(24.749375 336.684188)scale(0.12 -0.12)">
       <use xlink:href="#DejaVuSans-37"/>
       <use xlink:href="#DejaVuSans-38" x="63.623047"/>
      </g>
     </g>
    </g>
    <g id="ytick_2">
     <g id="line2d_9">
      <g>
       <use xlink:href="#mc0e8822662" x="47.019375" y="272.067332" style="stroke: #000000; stroke-width: 0.8"/>
      </g>
     </g>
     <g id="text_10">
      <!-- 80 -->
      <g transform="translate(24.749375 276.626395)scale(0.12 -0.12)">
       <use xlink:href="#DejaVuSans-38"/>
       <use xlink:href="#DejaVuSans-30" x="63.623047"/>
      </g>
     </g>
    </g>
    <g id="ytick_3">
     <g id="line2d_10">
      <g>
       <use xlink:href="#mc0e8822662" x="47.019375" y="212.009539" style="stroke: #000000; stroke-width: 0.8"/>
      </g>
     </g>
     <g id="text_11">
      <!-- 82 -->
      <g transform="translate(24.749375 216.568601)scale(0.12 -0.12)">
       <use xlink:href="#DejaVuSans-38"/>
       <use xlink:href="#DejaVuSans-32" x="63.623047"/>
      </g>
     </g>
    </g>
    <g id="ytick_4">
     <g id="line2d_11">
      <g>
       <use xlink:href="#mc0e8822662" x="47.019375" y="151.951745" style="stroke: #000000; stroke-width: 0.8"/>
      </g>
     </g>
     <g id="text_12">
      <!-- 84 -->
      <g transform="translate(24.749375 156.510807)scale(0.12 -0.12)">
       <defs>
        <path id="DejaVuSans-34" d="M 2419 4116 
L 825 1625 
L 2419 1625 
L 2419 4116 
z
M 2253 4666 
L 3047 4666 
L 3047 1625 
L 3713 1625 
L 3713 1100 
L 3047 1100 
L 3047 0 
L 2419 0 
L 2419 1100 
L 313 1100 
L 313 1709 
L 2253 4666 
z
" transform="scale(0.015625)"/>
       </defs>
       <use xlink:href="#DejaVuSans-38"/>
       <use xlink:href="#DejaVuSans-34" x="63.623047"/>
      </g>
     </g>
    </g>
    <g id="ytick_5">
     <g id="line2d_12">
      <g>
       <use xlink:href="#mc0e8822662" x="47.019375" y="91.893951" style="stroke: #000000; stroke-width: 0.8"/>
      </g>
     </g>
     <g id="text_13">
      <!-- 86 -->
      <g transform="translate(24.749375 96.453014)scale(0.12 -0.12)">
       <use xlink:href="#DejaVuSans-38"/>
       <use xlink:href="#DejaVuSans-36" x="63.623047"/>
      </g>
     </g>
    </g>
    <g id="ytick_6">
     <g id="line2d_13">
      <g>
       <use xlink:href="#mc0e8822662" x="47.019375" y="31.836157" style="stroke: #000000; stroke-width: 0.8"/>
      </g>
     </g>
     <g id="text_14">
      <!-- 88 -->
      <g transform="translate(24.749375 36.39522)scale(0.12 -0.12)">
       <use xlink:href="#DejaVuSans-38"/>
       <use xlink:href="#DejaVuSans-38" x="63.623047"/>
      </g>
     </g>
    </g>
    <g id="text_15">
     <!-- Transmittance (%) -->
     <g transform="translate(17.837812 237.484688)rotate(-90)scale(0.14 -0.14)">
      <defs>
       <path id="DejaVuSans-54" d="M -19 4666 
L 3928 4666 
L 3928 4134 
L 2272 4134 
L 2272 0 
L 1638 0 
L 1638 4134 
L -19 4134 
L -19 4666 
z
" transform="scale(0.015625)"/>
       <path id="DejaVuSans-72" d="M 2631 2963 
Q 2534 3019 2420 3045 
Q 2306 3072 2169 3072 
Q 1681 3072 1420 2755 
Q 1159 2438 1159 1844 
L 1159 0 
L 581 0 
L 581 3500 
L 1159 3500 
L 1159 2956 
Q 1341 3275 1631 3429 
Q 1922 3584 2338 3584 
Q 2397 3584 2469 3576 
Q 2541 3569 2628 3553 
L 2631 2963 
z
" transform="scale(0.015625)"/>
       <path id="DejaVuSans-61" d="M 2194 1759 
Q 1497 1759 1228 1600 
Q 959 1441 959 1056 
Q 959 750 1161 570 
Q 1363 391 1709 391 
Q 2188 391 2477 730 
Q 2766 1069 2766 1631 
L 2766 1759 
L 2194 1759 
z
M 3341 1997 
L 3341 0 
L 2766 0 
L 2766 531 
Q 2569 213 2275 61 
Q 1981 -91 1556 -91 
Q 1019 -91 701 211 
Q 384 513 384 1019 
Q 384 1609 779 1909 
Q 1175 2209 1959 2209 
L 2766 2209 
L 2766 2266 
Q 2766 2663 2505 2880 
Q 2244 3097 1772 3097 
Q 1472 3097 1187 3025 
Q 903 2953 641 2809 
L 641 3341 
Q 956 3463 1253 3523 
Q 1550 3584 1831 3584 
Q 2591 3584 2966 3190 
Q 3341 2797 3341 1997 
z
" transform="scale(0.015625)"/>
       <path id="DejaVuSans-6e" d="M 3513 2113 
L 3513 0 
L 2938 0 
L 2938 2094 
Q 2938 2591 2744 2837 
Q 2550 3084 2163 3084 
Q 1697 3084 1428 2787 
Q 1159 2491 1159 1978 
L 1159 0 
L 581 0 
L 581 3500 
L 1159 3500 
L 1159 2956 
Q 1366 3272 1645 3428 
Q 1925 3584 2291 3584 
Q 2894 3584 3203 3211 
Q 3513 2838 3513 2113 
z
" transform="scale(0.015625)"/>
       <path id="DejaVuSans-73" d="M 2834 3397 
L 2834 2853 
Q 2591 2978 2328 3040 
Q 2066 3103 1784 3103 
Q 1356 3103 1142 2972 
Q 928 2841 928 2578 
Q 928 2378 1081 2264 
Q 1234 2150 1697 2047 
L 1894 2003 
Q 2506 1872 2764 1633 
Q 3022 1394 3022 966 
Q 3022 478 2636 193 
Q 2250 -91 1575 -91 
Q 1294 -91 989 -36 
Q 684 19 347 128 
L 347 722 
Q 666 556 975 473 
Q 1284 391 1588 391 
Q 1994 391 2212 530 
Q 2431 669 2431 922 
Q 2431 1156 2273 1281 
Q 2116 1406 1581 1522 
L 1381 1569 
Q 847 1681 609 1914 
Q 372 2147 372 2553 
Q 372 3047 722 3315 
Q 1072 3584 1716 3584 
Q 2034 3584 2315 3537 
Q 2597 3491 2834 3397 
z
" transform="scale(0.015625)"/>
       <path id="DejaVuSans-69" d="M 603 3500 
L 1178 3500 
L 1178 0 
L 603 0 
L 603 3500 
z
M 603 4863 
L 1178 4863 
L 1178 4134 
L 603 4134 
L 603 4863 
z
" transform="scale(0.015625)"/>
       <path id="DejaVuSans-74" d="M 1172 4494 
L 1172 3500 
L 2356 3500 
L 2356 3053 
L 1172 3053 
L 1172 1153 
Q 1172 725 1289 603 
Q 1406 481 1766 481 
L 2356 481 
L 2356 0 
L 1766 0 
Q 1100 0 847 248 
Q 594 497 594 1153 
L 594 3053 
L 172 3053 
L 172 3500 
L 594 3500 
L 594 4494 
L 1172 4494 
z
" transform="scale(0.015625)"/>
       <path id="DejaVuSans-65" d="M 3597 1894 
L 3597 1613 
L 953 1613 
Q 991 1019 1311 708 
Q 1631 397 2203 397 
Q 2534 397 2845 478 
Q 3156 559 3463 722 
L 3463 178 
Q 3153 47 2828 -22 
Q 2503 -91 2169 -91 
Q 1331 -91 842 396 
Q 353 884 353 1716 
Q 353 2575 817 3079 
Q 1281 3584 2069 3584 
Q 2775 3584 3186 3129 
Q 3597 2675 3597 1894 
z
M 3022 2063 
Q 3016 2534 2758 2815 
Q 2500 3097 2075 3097 
Q 1594 3097 1305 2825 
Q 1016 2553 972 2059 
L 3022 2063 
z
" transform="scale(0.015625)"/>
       <path id="DejaVuSans-25" d="M 4653 2053 
Q 4381 2053 4226 1822 
Q 4072 1591 4072 1178 
Q 4072 772 4226 539 
Q 4381 306 4653 306 
Q 4919 306 5073 539 
Q 5228 772 5228 1178 
Q 5228 1588 5073 1820 
Q 4919 2053 4653 2053 
z
M 4653 2450 
Q 5147 2450 5437 2106 
Q 5728 1763 5728 1178 
Q 5728 594 5436 251 
Q 5144 -91 4653 -91 
Q 4153 -91 3862 251 
Q 3572 594 3572 1178 
Q 3572 1766 3864 2108 
Q 4156 2450 4653 2450 
z
M 1428 4353 
Q 1159 4353 1004 4120 
Q 850 3888 850 3481 
Q 850 3069 1003 2837 
Q 1156 2606 1428 2606 
Q 1700 2606 1854 2837 
Q 2009 3069 2009 3481 
Q 2009 3884 1853 4118 
Q 1697 4353 1428 4353 
z
M 4250 4750 
L 4750 4750 
L 1831 -91 
L 1331 -91 
L 4250 4750 
z
M 1428 4750 
Q 1922 4750 2215 4408 
Q 2509 4066 2509 3481 
Q 2509 2891 2217 2550 
Q 1925 2209 1428 2209 
Q 931 2209 642 2551 
Q 353 2894 353 3481 
Q 353 4063 643 4406 
Q 934 4750 1428 4750 
z
" transform="scale(0.015625)"/>
      </defs>
      <use xlink:href="#DejaVuSans-54"/>
      <use xlink:href="#DejaVuSans-72" x="46.333984"/>
      <use xlink:href="#DejaVuSans-61" x="87.447266"/>
      <use xlink:href="#DejaVuSans-6e" x="148.726562"/>
      <use xlink:href="#DejaVuSans-73" x="212.105469"/>
      <use xlink:href="#DejaVuSans-6d" x="264.205078"/>
      <use xlink:href="#DejaVuSans-69" x="361.617188"/>
      <use xlink:href="#DejaVuSans-74" x="389.400391"/>
      <use xlink:href="#DejaVuSans-74" x="428.609375"/>
      <use xlink:href="#DejaVuSans-61" x="467.818359"/>
      <use xlink:href="#DejaVuSans-6e" x="529.097656"/>
      <use xlink:href="#DejaVuSans-63" x="592.476562"/>
      <use xlink:href="#DejaVuSans-65" x="647.457031"/>
      <use xlink:href="#DejaVuSans-20" x="708.980469"/>
      <use xlink:href="#DejaVuSans-28" x="740.767578"/>
      <use xlink:href="#DejaVuSans-25" x="779.78125"/>
      <use xlink:href="#DejaVuSans-29" x="874.800781"/>
     </g>
    </g>
   </g>
   <g id="line2d_14">
    <path d="M 67.310284 22.554225 
L 67.636526 22.713379 
L 68.288941 22.593263 
L 68.941357 23.001656 
L 69.59384 22.821483 
L 69.920014 22.977633 
L 70.246256 22.821483 
L 70.572498 22.422098 
L 70.898672 22.32 
L 71.551155 23.208855 
L 72.203571 23.187835 
L 72.529813 23.298942 
L 73.50847 22.893552 
L 73.834712 22.74641 
L 74.160886 22.743407 
L 74.813369 23.626257 
L 75.139543 23.533167 
L 75.792026 23.043696 
L 76.444442 23.362003 
L 76.770684 23.235881 
L 77.096858 22.971627 
L 77.749341 23.365006 
L 78.075515 23.389029 
L 78.727998 24.085699 
L 79.05424 23.755381 
L 79.380414 23.070722 
L 79.706656 22.902561 
L 80.032897 23.24489 
L 80.359071 23.815439 
L 80.685313 23.983601 
L 81.011555 23.758384 
L 81.66397 23.028682 
L 81.990212 23.365006 
L 82.316386 23.479115 
L 82.642628 23.365006 
L 83.295043 23.506141 
L 83.621285 23.328971 
L 83.947527 23.443081 
L 84.273701 23.746373 
L 84.926184 23.962581 
L 85.5786 24.512109 
L 85.904841 24.41902 
L 86.231083 23.518153 
L 86.557257 23.193841 
L 86.883499 23.737364 
L 88.188398 24.794381 
L 88.840813 24.313919 
L 89.167055 24.259867 
L 89.493229 23.974592 
L 89.819471 23.995612 
L 90.145712 24.256864 
L 90.471954 24.019636 
L 90.798128 23.476113 
L 91.12437 23.362003 
L 91.450611 23.719347 
L 91.776785 24.265873 
L 92.103027 24.307913 
L 92.429269 24.061676 
L 93.081684 25.310878 
L 93.407926 24.998578 
L 93.7341 25.148722 
L 94.060342 25.57213 
L 94.712758 24.391994 
L 95.038999 24.57517 
L 95.365241 24.611205 
L 95.691415 23.863485 
L 96.017657 23.647277 
L 96.343898 24.32593 
L 96.67014 24.55415 
L 96.996314 24.518115 
L 97.322556 25.040618 
L 97.648797 25.310878 
L 98.301213 24.376979 
L 98.953629 24.112725 
L 99.27987 24.316922 
L 99.606112 24.908491 
L 100.584769 25.253823 
L 100.910943 25.037615 
L 101.563427 24.349953 
L 102.215842 24.935517 
L 105.151814 25.025604 
L 105.478056 25.2298 
L 105.804298 25.145719 
L 106.130472 25.202774 
L 106.456713 25.121696 
L 106.782955 25.226797 
L 107.109129 25.575132 
L 107.435371 25.394959 
L 107.761612 24.893476 
L 108.087854 25.025604 
L 108.414028 25.518078 
L 108.74027 25.358924 
L 109.066511 25.400965 
L 109.392685 26.010551 
L 109.718927 26.157693 
L 110.045169 25.710262 
L 111.023826 25.055633 
L 111.35 25.794343 
L 111.676242 26.220754 
L 112.002483 25.545104 
L 112.328657 25.253823 
L 112.654899 25.430994 
L 113.307382 25.464026 
L 113.959798 26.415942 
L 114.612214 25.992534 
L 114.938455 26.118655 
L 115.264697 25.860407 
L 115.590871 25.99854 
L 115.917113 26.319849 
L 116.243354 26.208742 
L 116.89577 25.596153 
L 117.222012 25.644199 
L 117.548186 26.04058 
L 117.874428 25.899445 
L 118.200669 25.623179 
L 118.526843 25.989531 
L 118.853085 26.172707 
L 119.505568 25.446008 
L 119.831742 25.518078 
L 120.484226 25.956499 
L 121.136641 26.785297 
L 121.462883 26.367895 
L 121.789057 26.178713 
L 122.115299 26.578098 
L 122.44154 26.301832 
L 122.767714 25.476037 
L 123.093956 25.280849 
L 123.746372 25.854401 
L 124.072613 25.830378 
L 124.398855 25.677231 
L 125.051271 26.184719 
L 126.029928 26.238771 
L 126.35617 26.439965 
L 126.682411 27.064566 
L 127.008585 27.34984 
L 127.661069 26.860369 
L 127.987243 26.90241 
L 128.639726 25.992534 
L 128.9659 26.63215 
L 129.292142 26.983488 
L 129.618383 26.542063 
L 129.944557 26.719233 
L 130.270799 27.313806 
L 130.597041 27.548031 
L 130.923282 27.106606 
L 131.249456 26.442968 
L 131.575698 26.515037 
L 131.90194 27.253748 
L 132.228114 27.587069 
L 132.880597 26.460985 
L 133.206771 26.728242 
L 133.859254 28.262719 
L 134.185428 28.593037 
L 134.51167 27.875346 
L 134.837912 26.704219 
L 135.164086 26.31084 
L 135.816569 27.289782 
L 136.142811 27.166664 
L 136.468985 26.821332 
L 137.447642 27.490976 
L 137.773884 27.103603 
L 138.100125 26.479002 
L 138.4263 26.644161 
L 139.078783 27.626106 
L 139.404957 27.581063 
L 139.731199 27.076577 
L 140.383614 27.71319 
L 140.709856 27.199696 
L 141.036098 27.070571 
L 141.362339 27.343834 
L 142.014755 27.21471 
L 142.340997 27.067569 
L 142.667171 27.280774 
L 143.319654 28.358811 
L 143.97207 28.349802 
L 144.298311 28.6591 
L 144.624485 28.445895 
L 145.603143 27.32882 
L 146.255626 27.749225 
L 146.5818 27.560043 
L 146.908042 27.551034 
L 147.886699 27.947415 
L 148.212941 27.974441 
L 148.539182 27.701178 
L 148.865356 27.69217 
L 149.191598 28.38884 
L 149.51784 28.48193 
L 149.844014 27.950418 
L 150.496497 28.07654 
L 150.822671 28.1396 
L 151.801328 29.872268 
L 152.12757 31.457793 
L 152.453812 31.229574 
L 152.780053 29.238658 
L 153.106227 28.340794 
L 153.432469 28.463912 
L 154.084885 27.96243 
L 154.737368 28.040505 
L 155.716025 29.070496 
L 156.368441 28.770207 
L 157.67334 28.593037 
L 158.325756 29.611016 
L 158.651997 29.070496 
L 158.978239 28.298753 
L 159.304413 28.442892 
L 159.630655 29.016444 
L 160.283071 28.722161 
L 161.58797 29.737138 
L 161.914211 29.602007 
L 162.240385 29.343759 
L 162.566627 29.397811 
L 162.892869 29.130554 
L 163.219043 29.013441 
L 163.545284 29.403817 
L 163.871526 29.352768 
L 164.850183 28.824259 
L 166.155082 29.394808 
L 166.481256 29.710112 
L 167.13374 29.716117 
L 167.459914 29.779178 
L 167.786155 29.430843 
L 168.112397 29.331747 
L 168.438571 30.370747 
L 168.764813 31.95327 
L 169.091054 31.649978 
L 169.417228 30.677042 
L 170.069712 37.775873 
L 170.722127 30.695059 
L 171.048369 29.638042 
L 171.700785 29.1786 
L 172.027026 29.052479 
L 172.679442 29.112536 
L 173.331925 29.788187 
L 173.658099 29.818216 
L 174.310583 30.058447 
L 174.636757 29.986377 
L 175.615482 30.226609 
L 175.941656 29.728129 
L 176.267897 29.689091 
L 176.920313 30.148533 
L 177.246555 30.229611 
L 177.572796 30.031421 
L 177.89897 29.986377 
L 178.551454 30.499872 
L 179.203869 30.385762 
L 179.530111 30.433808 
L 180.508768 30.298678 
L 181.487426 30.686051 
L 182.139842 30.746108 
L 183.444741 30.562932 
L 183.770982 30.334713 
L 185.402055 30.824184 
L 185.728297 31.72505 
L 186.054471 35.148345 
L 186.380713 36.562706 
L 186.706954 33.93818 
L 187.033196 37.826922 
L 187.35937 48.427123 
L 187.685612 46.868623 
L 188.011853 35.163359 
L 188.338027 30.268649 
L 189.642926 31.286629 
L 189.969168 31.262605 
L 190.295342 31.43377 
L 190.621584 31.325666 
L 191.600241 30.5299 
L 191.926483 30.523895 
L 192.252657 30.869227 
L 192.578898 30.998351 
L 192.90514 30.77914 
L 193.557556 31.448785 
L 194.210039 30.088476 
L 195.51487 30.752114 
L 195.841112 30.668033 
L 196.167354 30.896253 
L 196.819769 31.553886 
L 197.146011 31.43377 
L 197.472185 31.115464 
L 197.798427 31.022374 
L 198.124668 31.085435 
L 198.45091 31.031383 
L 198.777084 30.541912 
L 199.103326 30.379756 
L 199.755741 31.079429 
L 200.408225 31.577909 
L 200.734399 31.646975 
L 201.386882 32.256562 
L 202.039298 31.746071 
L 202.365539 31.713039 
L 202.691713 33.01329 
L 203.344197 45.574378 
L 203.670371 40.745731 
L 203.996612 40.205211 
L 204.322854 61.255468 
L 204.649096 72.729509 
L 205.301512 34.508729 
L 205.627753 32.322626 
L 205.953927 31.926244 
L 206.280169 32.064377 
L 206.606411 32.478776 
L 206.932585 32.37968 
L 207.258826 32.445744 
L 207.585068 32.310614 
L 207.911242 31.812134 
L 208.237484 31.613944 
L 209.216141 32.145455 
L 209.868624 31.439776 
L 210.194798 31.692019 
L 210.52104 32.58688 
L 210.847282 32.670961 
L 211.173456 32.034348 
L 211.499697 31.998313 
L 211.825939 32.20251 
L 212.152113 31.986302 
L 212.478355 31.938256 
L 212.804596 32.283588 
L 213.457012 33.244513 
L 213.783254 33.322588 
L 214.435669 32.800085 
L 214.761911 32.815099 
L 215.088085 32.706995 
L 215.414327 32.782068 
L 216.06681 33.412674 
L 217.045467 33.730981 
L 217.371641 33.352617 
L 217.697883 32.658949 
L 218.024125 32.478776 
L 218.67654 33.217487 
L 219.002782 33.788036 
L 219.328956 34.959163 
L 219.655198 43.796667 
L 219.981439 58.018353 
L 220.307613 55.558986 
L 220.633855 45.610412 
L 220.960097 70.564426 
L 221.286338 107.578044 
L 221.612512 89.293449 
L 221.938754 46.760519 
L 222.264996 34.74896 
L 222.59117 35.391579 
L 223.569827 33.223492 
L 223.896069 33.508767 
L 224.22231 34.148382 
L 224.548484 34.385611 
L 224.874726 34.265495 
L 225.200968 34.442666 
L 225.527142 34.763975 
L 225.853383 34.754966 
L 226.179625 34.364591 
L 226.832041 34.100336 
L 227.158283 33.788036 
L 227.810698 34.382608 
L 228.13694 34.03127 
L 228.463182 34.14538 
L 228.789356 34.631848 
L 229.441839 33.974215 
L 230.094255 34.079316 
L 230.420496 34.541761 
L 230.74667 34.637853 
L 231.399154 33.764013 
L 231.725328 34.121356 
L 232.051569 34.781992 
L 232.704053 34.304533 
L 233.356468 34.523744 
L 234.008884 35.040241 
L 234.661367 35.622801 
L 234.987541 35.316507 
L 235.313783 35.58977 
L 235.640025 37.403515 
L 235.966199 48.838519 
L 236.29244 72.438229 
L 236.618682 75.888549 
L 236.944856 55.637061 
L 237.271098 76.528165 
L 237.597339 143.096223 
L 237.923513 144.822885 
L 238.249755 75.032726 
L 238.575997 38.358434 
L 238.902238 36.865998 
L 239.228412 36.028191 
L 239.880896 35.968134 
L 240.20707 36.112272 
L 241.185727 35.649827 
L 241.511969 36.013177 
L 241.83821 36.613755 
L 242.164384 36.424573 
L 242.490626 35.778952 
L 242.816868 35.541723 
L 243.143042 35.490674 
L 243.795525 36.202359 
L 244.447941 36.076238 
L 244.774182 35.980145 
L 246.079081 37.694795 
L 246.405255 37.911003 
L 247.057739 36.896027 
L 247.710154 36.944073 
L 248.036396 36.709847 
L 248.36257 36.673813 
L 248.688812 37.05518 
L 249.015054 37.241359 
L 249.341228 37.21133 
L 249.667469 36.950079 
L 249.993711 36.865998 
L 251.29861 38.370445 
L 251.624784 40.23524 
L 251.951026 54.550015 
L 252.277267 88.080281 
L 252.603441 98.60541 
L 252.929683 69.846735 
L 253.255925 84.050403 
L 253.582099 175.533438 
L 253.90834 205.352132 
L 254.560756 47.096843 
L 254.886998 39.844864 
L 255.213239 38.959012 
L 255.539481 38.757818 
L 255.865655 38.892948 
L 256.191897 38.391466 
L 256.518138 38.508578 
L 256.844312 38.76983 
L 257.170554 38.370445 
L 257.496796 38.319396 
L 257.82297 38.610677 
L 258.475453 38.391466 
L 258.801627 38.658723 
L 259.127869 38.433506 
L 259.45411 38.352428 
L 259.780284 39.079127 
L 260.106526 39.448483 
L 260.759009 39.121168 
L 261.085183 39.187231 
L 261.737667 39.637665 
L 262.390082 39.790812 
L 262.716324 39.427463 
L 263.042498 38.895951 
L 263.36874 39.004055 
L 263.694981 39.469503 
L 264.673639 39.577607 
L 264.999813 39.379416 
L 265.326054 39.376413 
L 265.652296 39.514546 
L 265.97847 39.992006 
L 266.304712 40.199205 
L 266.630953 40.064075 
L 266.957195 40.574566 
L 267.283369 43.039939 
L 267.609611 61.868057 
L 267.935852 105.001565 
L 268.262026 118.865906 
L 268.588268 83.062453 
L 268.91451 95.752664 
L 269.240684 206.70043 
L 269.566925 256.410265 
L 270.219341 57.447804 
L 270.545583 43.808679 
L 270.871825 43.43632 
L 271.197999 42.193124 
L 271.52424 41.880823 
L 271.850482 41.901844 
L 272.176724 41.772719 
L 272.502898 42.003942 
L 272.829139 41.964904 
L 273.155381 41.271237 
L 273.481555 41.325289 
L 273.807797 41.748696 
L 274.134038 41.931873 
L 275.112696 41.946887 
L 276.091353 42.148081 
L 276.743769 42.021959 
L 277.07001 42.205135 
L 277.722426 42.175107 
L 278.048668 42.394318 
L 278.701083 42.568485 
L 279.353567 43.226118 
L 279.679741 42.991893 
L 280.005982 42.523442 
L 280.658398 43.304193 
L 280.98464 43.265156 
L 281.310881 43.577456 
L 281.963297 43.9348 
L 282.289539 45.370181 
L 282.615713 49.34901 
L 282.941954 73.264024 
L 283.268196 119.322346 
L 283.594438 125.150954 
L 283.920612 85.218527 
L 284.246853 110.722069 
L 284.573095 233.966668 
L 284.899269 274.433609 
L 285.551752 61.267479 
L 285.877926 48.562253 
L 286.204168 47.012762 
L 286.53041 46.301077 
L 286.856584 46.039826 
L 287.182825 45.433242 
L 288.813898 45.331144 
L 289.14014 45.454262 
L 289.792623 46.150933 
L 290.118797 46.373146 
L 290.445039 46.388161 
L 290.771281 46.766525 
L 291.097455 46.619383 
L 291.423696 45.817612 
L 291.749938 45.991779 
L 292.402354 47.066814 
L 292.728596 47.370106 
L 293.381011 47.174918 
L 294.033427 48.361059 
L 294.359669 48.370068 
L 295.338326 49.264929 
L 295.990809 49.739386 
L 296.316983 50.291917 
L 297.295641 53.523027 
L 297.621882 60.79002 
L 298.274298 127.790494 
L 298.60054 114.736933 
L 298.926781 85.671964 
L 299.252955 139.249521 
L 299.579197 249.791897 
L 299.905439 245.09838 
L 300.231613 128.919581 
L 300.557854 67.051045 
L 300.884096 62.507673 
L 301.210338 61.375583 
L 301.536512 62.264439 
L 303.167652 69.225137 
L 303.820068 70.609469 
L 304.472484 70.071952 
L 304.798725 70.264137 
L 305.777383 69.195108 
L 306.429866 67.951912 
L 306.75604 67.765733 
L 307.082282 67.432412 
L 307.734697 65.988022 
L 308.387181 65.909947 
L 308.713355 65.483536 
L 309.365838 63.952063 
L 310.344495 63.345479 
L 310.996911 62.237413 
L 311.323153 61.952138 
L 311.649327 61.96415 
L 311.975568 63.468597 
L 312.30181 74.176902 
L 312.628052 97.287141 
L 312.954226 103.893498 
L 313.280467 83.696062 
L 313.606709 85.957238 
L 314.259125 192.169446 
L 314.585367 144.276359 
L 314.911541 77.864451 
L 315.237782 60.793023 
L 316.542681 58.666977 
L 317.195097 59.141433 
L 317.521339 59.039335 
L 317.84758 58.447766 
L 318.173754 57.510864 
L 318.499996 57.363723 
L 318.826238 58.234561 
L 319.152412 58.495812 
L 319.804895 57.105474 
L 320.457311 57.982318 
L 321.109726 57.291653 
L 321.435968 57.435792 
L 321.76221 57.730075 
L 322.414625 56.904281 
L 322.740867 56.964338 
L 323.067041 56.576966 
L 323.393283 56.495888 
L 324.37194 57.772116 
L 325.024423 58.19252 
L 325.350597 57.940277 
L 325.676839 57.138506 
L 326.003081 57.219584 
L 326.329255 57.883223 
L 326.655496 58.246572 
L 326.981738 58.282607 
L 327.307912 58.147477 
L 327.634154 58.507824 
L 327.960395 59.132425 
L 328.286569 59.45974 
L 328.612811 59.465745 
L 329.265294 59.847112 
L 329.91771 59.357641 
L 330.243952 59.630904 
L 330.896367 60.943167 
L 331.222609 61.252465 
L 331.548783 60.919144 
L 331.875025 60.934158 
L 332.201266 61.669866 
L 332.52744 61.453658 
L 332.853682 60.958182 
L 334.158581 63.546672 
L 334.484755 63.465594 
L 334.810997 63.654777 
L 335.137238 64.276375 
L 335.46348 64.393487 
L 335.789654 63.958068 
L 336.115896 64.069175 
L 336.442138 64.822901 
L 336.768312 65.228291 
L 337.420795 65.43549 
L 339.37811 69.210122 
L 339.704284 70.417284 
L 340.030525 78.783335 
L 340.356767 102.746394 
L 340.683009 118.199265 
L 341.335424 90.035162 
L 341.661666 135.468883 
L 341.98784 203.943777 
L 342.314082 188.590002 
L 342.640323 111.064399 
L 342.966497 76.260907 
L 343.618981 74.137864 
L 343.945155 74.233957 
L 344.271396 74.64235 
L 344.597638 75.483159 
L 345.250054 77.423026 
L 345.576295 78.086664 
L 346.228711 80.561045 
L 346.881194 83.368747 
L 347.859852 87.957163 
L 348.512267 89.78292 
L 349.164683 92.029081 
L 350.795824 94.746696 
L 351.121998 94.548506 
L 351.448239 94.545503 
L 351.774481 94.401364 
L 352.100723 94.42839 
L 352.753138 94.79174 
L 353.07938 98.710511 
L 353.405554 121.86279 
L 353.731796 165.521803 
L 354.058037 172.779788 
L 354.384211 132.475002 
L 354.710453 132.520046 
L 355.362869 324.72 
L 355.68911 255.335231 
L 356.015352 132.922433 
L 356.341526 95.881789 
L 356.667768 94.218188 
L 356.994009 91.725789 
L 357.646425 89.954084 
L 357.972667 89.335489 
L 358.625083 86.536796 
L 358.951324 86.113388 
L 359.277566 86.329597 
L 359.60374 85.753042 
L 360.256223 83.699065 
L 361.234881 82.173597 
L 361.887296 80.660141 
L 362.865954 79.230765 
L 363.518437 79.107647 
L 363.844611 79.080621 
L 364.497094 77.507107 
L 365.14951 77.435037 
L 365.475752 77.55215 
L 365.801926 79.44397 
L 366.128167 94.242211 
L 366.780583 177.248088 
L 367.433066 105.536079 
L 367.75924 174.107065 
L 368.085482 315.49212 
L 368.411724 323.113454 
L 368.737898 175.746643 
L 369.064139 86.73799 
L 369.390381 77.879465 
L 369.716623 75.056749 
L 370.042797 74.161888 
L 370.369038 73.915651 
L 370.69528 74.113841 
L 371.021454 73.978711 
L 371.347696 73.621367 
L 372.000111 73.912648 
L 372.978769 74.654361 
L 373.631252 74.936633 
L 374.609909 73.897633 
L 374.936151 73.864601 
L 375.914808 75.257942 
L 377.545881 75.762428 
L 377.872123 75.630301 
L 378.198297 77.197809 
L 378.524539 90.797896 
L 379.176954 173.87284 
L 379.829438 102.797444 
L 380.155679 158.059622 
L 380.481854 295.336724 
L 380.808095 322.930278 
L 381.460511 88.287481 
L 381.786753 76.564199 
L 382.112994 74.834535 
L 383.091652 72.095899 
L 384.070309 71.564388 
L 385.048966 68.915839 
L 385.37514 67.852816 
L 385.701382 68.408351 
L 386.027624 69.387293 
L 386.680039 68.441383 
L 387.006281 68.474414 
L 387.984938 67.390371 
L 388.637354 67.80477 
L 388.963596 67.402383 
L 389.289837 67.333316 
L 389.616011 68.198149 
L 389.942253 68.741672 
L 390.268495 70.471336 
L 390.594669 88.482668 
L 390.92091 131.517081 
L 391.247152 146.030046 
L 391.573394 106.421931 
L 391.899568 88.33853 
L 392.225809 162.200607 
L 392.552051 274.208393 
L 392.878225 252.506509 
L 393.204467 127.364084 
L 393.530708 71.165004 
L 394.183124 67.204192 
L 394.509366 67.39938 
L 394.83554 66.9009 
L 395.161781 66.615626 
L 395.488023 66.564577 
L 396.46668 67.060053 
L 397.119096 66.234259 
L 397.445338 66.639649 
L 397.771579 66.750756 
L 398.097753 66.045077 
L 398.423995 65.714759 
L 399.402652 66.780785 
L 399.728894 66.975973 
L 400.055068 67.006001 
L 400.38131 66.60962 
L 401.033725 66.47449 
L 401.359967 65.918955 
L 401.686209 66.636646 
L 402.012383 75.420098 
L 402.664866 126.231995 
L 403.317282 79.128667 
L 403.643524 109.448844 
L 403.969765 197.175263 
L 404.295939 225.555574 
L 404.948423 75.444121 
L 405.274597 67.936897 
L 405.600838 67.894857 
L 405.92708 68.038995 
L 406.253254 68.057013 
L 406.579496 67.390371 
L 406.905737 67.363345 
L 407.231911 67.91888 
L 407.558153 68.159111 
L 407.884395 67.675646 
L 408.210569 67.408389 
L 408.53681 67.978938 
L 408.863052 67.924886 
L 409.189294 67.297282 
L 410.167951 67.147137 
L 411.146608 68.038995 
L 411.472782 68.768698 
L 411.799024 69.011932 
L 412.45144 68.816744 
L 412.777681 69.585484 
L 413.103923 76.206855 
L 413.430097 95.533453 
L 413.756339 107.899353 
L 414.408822 75.765431 
L 414.734996 99.058846 
L 415.061238 156.88249 
L 415.387479 171.224291 
L 416.039895 73.092859 
L 416.366137 69.552452 
L 416.692311 69.987871 
L 417.018552 69.981865 
L 417.670968 70.924772 
L 418.323451 69.777669 
L 418.975867 70.351221 
L 419.954524 70.450316 
L 420.280766 70.351221 
L 420.607008 70.771625 
L 420.933182 71.393223 
L 421.259423 71.155995 
L 421.585665 70.756611 
L 422.238081 71.46229 
L 422.890496 70.957804 
L 423.216738 71.501327 
L 423.54298 73.531281 
L 423.869154 80.912384 
L 424.195396 92.026078 
L 424.521637 90.227347 
L 424.847811 77.900485 
L 425.174053 78.492054 
L 425.826536 133.102606 
L 426.15271 117.538629 
L 426.478952 82.206629 
L 426.805194 71.312145 
L 427.131368 71.963772 
L 427.457609 72.185986 
L 427.783851 72.870645 
L 428.110025 72.987758 
L 428.762508 72.318113 
L 429.088682 72.681463 
L 429.414924 73.525275 
L 429.741166 73.31207 
L 430.06734 72.7205 
L 430.719823 73.627373 
L 431.045997 73.825564 
L 431.372239 74.489203 
L 431.69848 74.801503 
L 432.024722 74.882581 
L 432.350896 75.345026 
L 433.003379 75.014708 
L 433.655795 76.077731 
L 433.982037 79.344875 
L 434.308211 84.765091 
L 434.634452 83.587958 
L 434.960694 77.534133 
L 435.286868 77.987569 
L 435.939351 107.523992 
L 436.265525 100.073823 
L 436.591767 81.290748 
L 436.918009 75.561234 
L 437.24425 76.612246 
L 437.570424 76.58522 
L 437.896666 76.254902 
L 438.222908 76.363006 
L 438.549082 77.017636 
L 438.875323 77.347953 
L 439.201565 76.981601 
L 439.527739 76.807433 
L 439.853981 77.254864 
L 440.180222 77.317925 
L 440.506396 77.023641 
L 440.832638 77.564162 
L 441.15888 78.49806 
L 441.485054 78.693248 
L 441.811295 78.179754 
L 442.137537 78.056635 
L 442.463711 78.251823 
L 442.789953 77.999581 
L 443.116194 78.45602 
L 443.442436 79.801314 
L 444.094852 83.780143 
L 444.747267 80.19169 
L 445.073509 82.918314 
L 445.399751 90.626732 
L 445.725925 93.650642 
L 446.378408 79.732248 
L 446.704582 79.452979 
L 447.030824 80.552037 
L 447.357066 81.20967 
L 447.68324 81.266725 
L 448.009481 81.20967 
L 448.661965 81.966398 
L 448.988139 81.717158 
L 449.31438 81.609054 
L 449.640622 81.717158 
L 449.966796 81.978409 
L 450.293038 82.744146 
L 450.619279 82.996389 
L 450.945453 82.834233 
L 451.271695 83.176562 
L 451.597937 83.263646 
L 451.924111 82.398814 
L 452.250352 82.086513 
L 452.902768 85.119432 
L 453.22901 85.227536 
L 453.555251 84.425764 
L 453.881425 83.963319 
L 454.207667 84.969288 
L 454.86015 90.975067 
L 455.512566 83.792155 
L 455.838808 83.834195 
L 456.164982 84.5669 
L 456.491223 85.02334 
L 456.817465 84.948267 
L 457.143639 84.31766 
L 457.469881 84.912233 
L 457.796122 85.966247 
L 458.122296 86.107383 
L 458.448538 86.446709 
L 458.77478 86.236507 
L 459.100954 85.320626 
L 459.427195 85.509808 
L 459.753437 86.128403 
L 460.079679 86.398663 
L 460.732094 86.437701 
L 461.38451 87.461686 
L 461.710752 87.93314 
L 462.036993 87.81903 
L 462.363167 87.482706 
L 462.689409 88.353544 
L 463.341825 90.761862 
L 463.668066 90.671775 
L 463.994308 89.353506 
L 464.320482 88.644824 
L 464.646724 88.227423 
L 464.972965 88.527712 
L 465.299139 89.203362 
L 465.951623 89.002168 
L 466.604038 90.059186 
L 466.93028 90.473584 
L 467.256522 91.107194 
L 467.908937 91.605674 
L 468.235179 91.374451 
L 468.561353 90.881977 
L 468.887595 90.698801 
L 469.213837 90.74985 
L 469.540011 91.215298 
L 469.866252 91.945 
L 470.192494 91.773836 
L 470.518668 90.617723 
L 470.84491 90.362477 
L 471.497393 92.431468 
L 471.823567 92.299341 
L 472.149809 92.503538 
L 472.47605 92.86989 
L 472.802224 92.674702 
L 473.128466 92.815838 
L 473.128466 92.815838 
" clip-path="url(#pf049712fef)" style="fill: none; stroke: #1f77b4; stroke-width: 0.7; stroke-linecap: square"/>
   </g>
   <g id="line2d_15">
    <path d="M 67.310284 22.350839 
L 99.606112 24.308015 
L 118.200669 25.482338 
L 132.228114 26.40131 
L 149.51784 27.781412 
L 169.74347 29.326281 
L 188.338027 30.513034 
L 197.798427 31.095187 
L 207.258826 31.995219 
L 214.109428 32.782381 
L 227.158283 34.395761 
L 232.704053 35.158758 
L 250.646127 38.127638 
L 255.213239 38.951974 
L 262.390082 40.139693 
L 267.935852 41.385185 
L 271.850482 42.149419 
L 276.743769 43.116717 
L 280.005982 44.02328 
L 283.920612 45.383069 
L 288.161483 47.035808 
L 290.445039 48.148351 
L 292.728596 49.506698 
L 295.338326 51.333551 
L 300.557854 55.096546 
L 302.841411 56.40866 
L 304.798725 57.304214 
L 306.75604 57.98086 
L 308.713355 58.44254 
L 310.670669 58.701603 
L 312.954226 58.772271 
L 315.564024 58.601529 
L 321.109726 58.106805 
L 323.067041 58.177455 
L 325.024423 58.493836 
L 326.655496 58.978301 
L 328.286569 59.681122 
L 329.91771 60.609298 
L 331.548783 61.763933 
L 333.506098 63.4395 
L 335.46348 65.40516 
L 338.073211 68.38849 
L 345.902469 77.681387 
L 348.186026 79.895762 
L 350.14334 81.456544 
L 351.774481 82.471457 
L 353.405554 83.193813 
L 354.710453 83.544269 
L 356.015352 83.686938 
L 357.320183 83.63478 
L 358.951324 83.337256 
L 360.908639 82.715519 
L 363.518437 81.602466 
L 367.433066 79.657471 
L 374.283668 76.121897 
L 387.984938 70.143559 
L 390.594669 69.334238 
L 394.183124 68.467106 
L 396.792854 68.026313 
L 399.076411 67.842414 
L 401.686209 67.859434 
L 405.600838 68.157315 
L 409.189294 68.620763 
L 412.777681 69.312607 
L 420.933182 71.193141 
L 426.805194 72.790952 
L 431.69848 74.330342 
L 437.570424 76.445787 
L 443.76861 78.899569 
L 451.924111 82.394031 
L 463.668066 87.689796 
L 473.128466 92.000146 
L 473.128466 92.000146 
" clip-path="url(#pf049712fef)" style="fill: none; stroke: #ff7f0e; stroke-linecap: square"/>
   </g>
   <g id="patch_3">
    <path d="M 47.019375 339.84 
L 47.019375 7.2 
" style="fill: none; stroke: #000000; stroke-width: 0.8; stroke-linejoin: miter; stroke-linecap: square"/>
   </g>
   <g id="patch_4">
    <path d="M 493.419375 339.84 
L 493.419375 7.2 
" style="fill: none; stroke: #000000; stroke-width: 0.8; stroke-linejoin: miter; stroke-linecap: square"/>
   </g>
   <g id="patch_5">
    <path d="M 47.019375 339.84 
L 493.419375 339.84 
" style="fill: none; stroke: #000000; stroke-width: 0.8; stroke-linejoin: miter; stroke-linecap: square"/>
   </g>
   <g id="patch_6">
    <path d="M 47.019375 7.2 
L 493.419375 7.2 
" style="fill: none; stroke: #000000; stroke-width: 0.8; stroke-linejoin: miter; stroke-linecap: square"/>
   </g>
   <g id="legend_1">
    <g id="patch_7">
     <path d="M 379.461563 59.49875 
L 483.619375 59.49875 
Q 486.419375 59.49875 486.419375 56.69875 
L 486.419375 17 
Q 486.419375 14.2 483.619375 14.2 
L 379.461563 14.2 
Q 376.661563 14.2 376.661563 17 
L 376.661563 56.69875 
Q 376.661563 59.49875 379.461563 59.49875 
z
" style="fill: #ffffff; opacity: 0.8; stroke: #cccccc; stroke-linejoin: miter"/>
    </g>
    <g id="line2d_16">
     <path d="M 382.261563 25.537812 
L 396.261563 25.537812 
L 410.261563 25.537812 
" style="fill: none; stroke: #1f77b4; stroke-width: 0.7; stroke-linecap: square"/>
    </g>
    <g id="text_16">
     <!-- Original -->
     <g transform="translate(421.461563 30.437812)scale(0.14 -0.14)">
      <defs>
       <path id="DejaVuSans-4f" d="M 2522 4238 
Q 1834 4238 1429 3725 
Q 1025 3213 1025 2328 
Q 1025 1447 1429 934 
Q 1834 422 2522 422 
Q 3209 422 3611 934 
Q 4013 1447 4013 2328 
Q 4013 3213 3611 3725 
Q 3209 4238 2522 4238 
z
M 2522 4750 
Q 3503 4750 4090 4092 
Q 4678 3434 4678 2328 
Q 4678 1225 4090 567 
Q 3503 -91 2522 -91 
Q 1538 -91 948 565 
Q 359 1222 359 2328 
Q 359 3434 948 4092 
Q 1538 4750 2522 4750 
z
" transform="scale(0.015625)"/>
       <path id="DejaVuSans-67" d="M 2906 1791 
Q 2906 2416 2648 2759 
Q 2391 3103 1925 3103 
Q 1463 3103 1205 2759 
Q 947 2416 947 1791 
Q 947 1169 1205 825 
Q 1463 481 1925 481 
Q 2391 481 2648 825 
Q 2906 1169 2906 1791 
z
M 3481 434 
Q 3481 -459 3084 -895 
Q 2688 -1331 1869 -1331 
Q 1566 -1331 1297 -1286 
Q 1028 -1241 775 -1147 
L 775 -588 
Q 1028 -725 1275 -790 
Q 1522 -856 1778 -856 
Q 2344 -856 2625 -561 
Q 2906 -266 2906 331 
L 2906 616 
Q 2728 306 2450 153 
Q 2172 0 1784 0 
Q 1141 0 747 490 
Q 353 981 353 1791 
Q 353 2603 747 3093 
Q 1141 3584 1784 3584 
Q 2172 3584 2450 3431 
Q 2728 3278 2906 2969 
L 2906 3500 
L 3481 3500 
L 3481 434 
z
" transform="scale(0.015625)"/>
       <path id="DejaVuSans-6c" d="M 603 4863 
L 1178 4863 
L 1178 0 
L 603 0 
L 603 4863 
z
" transform="scale(0.015625)"/>
      </defs>
      <use xlink:href="#DejaVuSans-4f"/>
      <use xlink:href="#DejaVuSans-72" x="78.710938"/>
      <use xlink:href="#DejaVuSans-69" x="119.824219"/>
      <use xlink:href="#DejaVuSans-67" x="147.607422"/>
      <use xlink:href="#DejaVuSans-69" x="211.083984"/>
      <use xlink:href="#DejaVuSans-6e" x="238.867188"/>
      <use xlink:href="#DejaVuSans-61" x="302.246094"/>
      <use xlink:href="#DejaVuSans-6c" x="363.525391"/>
     </g>
    </g>
    <g id="line2d_17">
     <path d="M 382.261563 46.087187 
L 396.261563 46.087187 
L 410.261563 46.087187 
" style="fill: none; stroke: #ff7f0e; stroke-linecap: square"/>
    </g>
    <g id="text_17">
     <!-- Baseline -->
     <g transform="translate(421.461563 50.987187)scale(0.14 -0.14)">
      <defs>
       <path id="DejaVuSans-42" d="M 1259 2228 
L 1259 519 
L 2272 519 
Q 2781 519 3026 730 
Q 3272 941 3272 1375 
Q 3272 1813 3026 2020 
Q 2781 2228 2272 2228 
L 1259 2228 
z
M 1259 4147 
L 1259 2741 
L 2194 2741 
Q 2656 2741 2882 2914 
Q 3109 3088 3109 3444 
Q 3109 3797 2882 3972 
Q 2656 4147 2194 4147 
L 1259 4147 
z
M 628 4666 
L 2241 4666 
Q 2963 4666 3353 4366 
Q 3744 4066 3744 3513 
Q 3744 3084 3544 2831 
Q 3344 2578 2956 2516 
Q 3422 2416 3680 2098 
Q 3938 1781 3938 1306 
Q 3938 681 3513 340 
Q 3088 0 2303 0 
L 628 0 
L 628 4666 
z
" transform="scale(0.015625)"/>
      </defs>
      <use xlink:href="#DejaVuSans-42"/>
      <use xlink:href="#DejaVuSans-61" x="68.603516"/>
      <use xlink:href="#DejaVuSans-73" x="129.882812"/>
      <use xlink:href="#DejaVuSans-65" x="181.982422"/>
      <use xlink:href="#DejaVuSans-6c" x="243.505859"/>
      <use xlink:href="#DejaVuSans-69" x="271.289062"/>
      <use xlink:href="#DejaVuSans-6e" x="299.072266"/>
      <use xlink:href="#DejaVuSans-65" x="362.451172"/>
     </g>
    </g>
   </g>
  </g>
 </g>
 <defs>
  <clipPath id="pf049712fef">
   <rect x="47.019375" y="7.2" width="446.4" height="332.64"/>
  </clipPath>
 </defs>
</svg>
